<svg width="263" height="242" viewBox="0 0 263 242" fill="none" xmlns="http://www.w3.org/2000/svg">
<path d="M203.149 56.7645C204.26 56.5241 205.343 54.6287 207.137 57.998L207.137 57.9978C208.146 57.6012 209.154 57.2045 210.175 56.8361C211.483 56.3453 215.107 56.9339 216.379 57.8251C218.73 59.4895 218.646 59.4589 219.412 63.4327C219.732 65.063 220.481 66.7774 221 68.4562C221.315 69.4886 222.022 71.1876 221.81 71.4446C221.293 72.0317 220.622 72.3843 221.48 73.6853C222.79 75.6272 222.143 72.6027 222.553 73.0614C223.165 73.7543 223.671 74.8498 224.129 75.8421L224.148 75.8818C224.671 77.0255 226.818 74.7769 226.217 78.4333C226.129 78.9377 227.774 80.7033 228.517 81.9866C229.402 83.4762 229.628 85.3466 231.15 86.5312C231.762 87.0037 230.858 89.8227 229.696 89.6512C227.575 89.3221 227.406 92.5275 225.652 92.8085C225.565 92.8125 225.489 93.1783 225.537 93.2911C228.305 98.445 223.62 96.7083 223.944 99.6037C221.594 98.9054 220.716 100.947 219.786 102.91C217.325 101.492 217.812 104.351 217.502 106.051C217.474 106.196 217.625 106.465 217.694 106.669C218.057 107.814 219.322 109.442 217.909 109.644C217.526 109.707 216.707 108.289 216.065 107.83C215.778 107.618 215.217 107.891 215.095 108.276C214.573 109.899 217.397 110.495 216.685 112.299C217.017 112.491 217.538 113.002 217.665 112.881C218.702 111.673 220.978 113.536 221.64 111.32C221.708 111.104 222.227 113.587 222.659 115.11C222.864 115.064 223.067 115.081 223.257 115.198C223.278 116.895 222.995 116.292 222.659 115.11C222.209 115.21 221.749 115.613 221.392 115.926L221.39 115.927C220.411 116.811 221.026 119.216 222.488 120.426C222.934 120.803 223.419 121.23 223.865 121.439C225.627 122.222 225.298 123.462 225.07 124.726L225.061 124.776C225.004 125.092 224.936 125.47 225.002 125.822L225.036 126.005C225.347 127.679 225.355 127.725 224.95 127.544C224.643 127.408 224.318 126.98 224.046 126.929C222.507 126.752 220.845 126.16 219.648 127.204C219.382 127.417 218.854 127.142 218.45 127.115C218.468 126.74 218.514 126.387 218.503 126.025C218.385 124.576 219.615 123.484 218.35 121.857C216.435 119.373 217.043 123.647 215.616 123.022C215.086 122.782 214.587 123.328 214.112 123.597C212.952 124.225 210.013 124.111 208.707 123.434C208.303 123.24 207.76 123.138 207.518 123.408C206.94 124.021 207.899 126.479 206.463 126.124C204.9 125.724 205.518 127.76 205.429 128.765C205.25 130.941 206.143 129.561 206.64 129.849C207.569 130.353 208.24 131.8 207.644 132.288C206.39 133.322 206.784 134.121 208.225 135.407C208.372 135.544 208.543 136.405 208.425 136.589C207.674 138.009 206.818 139.307 206.067 140.728C205.982 140.864 206.294 141.764 206.523 141.966C208.383 143.774 208.557 144.1 208.217 145.478C208.174 145.63 208.129 145.816 208.035 145.889C207.521 146.275 206.51 146.539 208.192 147.555C208.798 147.931 209.761 148.054 209.976 147.595C210.261 147.007 209.967 145.732 209.923 144.751C209.9 144.361 209.891 143.964 209.868 143.574C210.133 143.861 210.462 144.088 210.663 144.435C210.988 145.03 211.235 145.692 211.496 146.347C212.461 148.736 213.721 149.766 214.96 148.904C216.123 148.075 217.553 148.499 218.996 148.784C219.252 148.841 219.535 149.087 219.813 149.236C219.701 149.517 219.645 149.974 219.449 150.057C218.712 150.338 217.911 151.013 217.136 150.577C215.876 149.88 215.803 150.212 216.455 151.7C217.084 153.133 217.534 154.274 216.318 154.559C216.215 154.57 216.409 155.82 216.674 156.274C216.903 156.643 217.533 156.908 217.832 156.814C219.01 156.479 220.058 155.798 221.281 155.61C221.71 155.528 222.472 156.436 223.099 156.902C222.878 157.263 222.72 157.73 222.424 157.957C221.094 158.857 219.729 159.672 218.387 160.544C218.218 160.65 218.009 161.039 217.97 160.989C215.653 158.276 214.995 160.457 213.84 161.516C213.175 162.133 211.6 161.37 211.14 162.133C210.126 163.899 209.422 166.099 208.884 168.396C208.562 169.733 207.275 170.315 208.173 172.799C208.429 173.523 208.232 174.108 209.039 174.663C209.368 174.89 209.955 175.973 209.903 176.229C209.684 177.222 208.989 177.852 208.969 178.894C208.942 180.672 208.203 179.987 207.326 179.727C206.885 179.615 206.783 181.259 206.254 181.484C204.925 182.051 203.524 182.615 201.997 182.466C200.901 182.366 200.056 182.226 199.74 183.661C199.627 184.109 199.11 184.696 199.017 184.603C196.631 182.02 196.924 185.595 195.906 186.096C194.634 186.671 193.873 188.696 192.521 188.705C191.138 188.728 190.514 189.861 189.445 190.283C188.047 190.813 186.669 191.433 185.295 192.019C184.042 192.553 182.836 193.2 181.523 193.594C180.297 193.983 178.268 192.448 178.016 195.122C176.53 193.689 176.133 196.525 174.638 195.028C173.967 197.348 172.012 197.281 170.64 198.333C168.071 200.262 164.592 199.511 161.678 200.42C160.705 200.734 159.11 199.881 157.868 198.977C156.502 197.992 156.293 200.182 155.076 199.167C153.713 201.581 151.988 202.85 148.904 200.431C148.66 200.235 148.28 201.898 147.824 201.792C146.557 201.498 145.221 200.835 143.918 200.123C142.561 199.368 138.703 198.313 137.625 198.672C136.622 199 135.776 199.527 134.374 198.625C133.439 198.023 132.178 197.827 131.58 198.349C130.588 199.205 130.015 200.749 128.659 201.127C128.375 201.215 127.201 202.982 129.324 204.278C129.202 204.663 129.162 205.28 128.908 205.355C126.897 206.079 125.969 208.508 124.635 210.277C124.339 210.67 124.159 211.713 123.921 211.615C122.95 211.095 120.56 211.421 121 213.5L117.579 214.5C116.892 214.85 117.186 215.968 116.5 216.309C113.869 217.616 110.546 217.879 110.821 216.932C110.35 217 109.542 216.778 109.459 217.213C109.116 218.626 108.924 219.808 107.425 217.38C107.145 216.933 106.414 216.977 105.908 216.793C105.443 216.625 104.991 216.484 104.541 216.309C104.813 216.026 105.278 215.861 105.333 215.404C105.514 214.027 103.075 210.734 101.885 211.041C100.176 211.469 98.4399 209.909 96.7236 209.274C95.149 208.678 93.6603 209.08 91.982 207.362C91.0359 206.398 90.9263 206.978 90.5596 207.835C90.2838 208.485 89.0653 207.972 88.3616 208.205C86.3684 208.888 84.5704 204.754 82.6175 204.82C81.182 202.331 78.5774 200.408 79.1357 196.903C79.148 196.764 78.2561 195.845 77.7589 195.39C77.2888 194.957 76.7672 194.612 76.2727 194.29C75.4256 193.684 74.4675 192.693 73.7582 192.662C72.7743 192.614 71.9613 193.261 71.1334 193.747C71.0096 193.833 71.0809 194.503 71.207 194.883C72.0538 197.455 71.2796 198.319 70.0051 198.762C69.7968 198.817 69.7808 199.324 69.6536 199.612C70.0669 199.702 70.4713 199.73 70.8936 199.883C71.1621 199.969 71.4334 200.186 71.7078 200.37C71.5805 200.657 71.5195 201.016 71.3291 201.198C70.1804 202.187 68.5592 200.645 67.1922 200.494C66.7184 200.43 66.3464 200.855 65.9205 201.07C66.3243 201.431 67.0238 201.9 67.0596 202.151C67.1488 202.946 66.9846 203.65 66.932 204.406C66.5975 204.081 66.2661 203.723 65.9285 203.433C65.5518 203.094 65.127 202.641 64.771 202.56C64.2581 202.445 63.8676 203.078 63.6923 201.453C63.4991 199.702 64.066 196.426 61.1904 197.719C60.8431 197.867 59.8393 197.061 59.4179 196.408C58.1205 194.327 56.7107 192.695 55.0769 191.458C54.8447 191.29 54.5111 190.465 54.5388 190.154C54.6345 188.913 54.1406 188.257 53.2786 187.491C51.9978 186.37 50.6735 185.901 49.4242 183.933C48.4941 182.463 46.6533 182.247 45.9936 179.695C45.9276 179.457 45.3489 178.937 45.213 178.994C44.1799 179.502 42.6605 178.449 42.418 177.252C42.008 175.16 41.1853 172.644 42.2142 171.039C42.65 170.386 42.6883 169.136 42.8108 168.084C42.8293 167.876 42.4288 167.314 42.1788 167.02C42.1125 166.948 41.759 167.166 41.7405 167.374C41.5959 169.002 40.758 168.293 39.7867 167.94C38.2664 167.388 38.5014 164.087 36.9014 164.269C34.9814 164.454 35.1096 161.866 34.3391 160.561C33.9479 159.895 33.8589 158.932 33.6551 158.119C34.1249 158.719 34.5766 159.36 35.0646 159.919C35.17 160.04 35.5658 159.838 35.563 159.706C35.4738 158.911 36.4619 158.256 35.0149 157.206C34.632 156.936 34.0615 155.179 34.0766 155.173C35.847 154.218 36.1443 153.325 33.3252 151.526C32.2247 150.828 32.2885 148.801 33.3792 148.136C34.4549 147.478 34.4247 147.49 33.4651 145.533C33.1192 144.847 32.8309 144.003 32.7053 143.29C32.2956 141.031 32.4078 138.949 31.259 136.506C30.856 135.644 30.9503 133.437 31.3217 133.345C32.8856 133.079 32.6446 131.048 33.0636 129.602C33.27 128.914 34.4505 128.711 33.4806 127.524C32.577 126.41 31.549 123.914 30.4764 124.538C28.5458 125.661 28.0038 123.092 27.4694 121.42C27.0161 119.979 27.3612 117.565 26.9454 117.176C25.3633 115.683 26.9832 114.46 25.8351 113.315C26.1987 112.494 26.352 111.095 26.962 110.935C27.8981 110.703 29.1437 111.238 30.2599 111.596C30.3866 111.642 30.8251 112.922 30.749 113.288C30.6363 113.902 30.2101 114.284 29.9195 114.775C30.4567 114.779 31.0902 115.009 31.5161 114.794C32.3107 114.355 32.9939 113.697 33.6772 113.039C34.0128 112.696 33.717 110.956 33.1814 109.951C32.2096 108.131 31.8958 106.265 32.7032 105.354C34.1307 103.679 36.0219 102.673 36.1573 99.3478C39.4019 97.6647 40.1311 93.0535 41.1134 88.7011C41.2532 88.1081 41.7759 87.7853 42.2441 87.5857C43.7303 86.8855 45.2495 86.3046 46.7477 85.6326C47.2039 85.4048 47.5879 85.0077 48.011 84.6607C47.6075 84.1326 46.8482 83.3562 46.8577 83.0855C46.9229 82.0243 46.7383 80.5028 47.9664 80.7461C48.609 80.8721 49.2579 80.9289 49.9067 80.9857C49.5032 80.4576 49.0725 79.9078 48.7173 79.3258C48.6661 79.2477 48.9055 78.6789 49.1019 78.5952C50.1803 78.0688 51.4453 77.8963 51.3586 75.5997C51.3416 74.9736 51.8525 74.4557 52.2785 74.2408C53.2965 73.7402 54.2457 72.8688 55.7711 74.0188C55.7113 71.9107 57.1594 72.2935 58.0356 71.7533C58.3589 71.5488 58.7938 71.3968 59.201 71.5565C60.0034 71.8479 61.1665 72.9855 61.5595 72.6513C62.8592 71.5973 64.135 70.32 64.9168 68.5533C65.4834 67.245 65.3086 67.0861 66.4435 68.8692C68.5357 72.1444 70.7278 71.6766 72.8016 71.5593C73.3721 71.5161 73.9846 71.6551 74.5881 71.7311C73.5439 68.1093 74.9942 68.9578 76.6686 69.4108C77.8754 69.7298 78.9726 68.8287 79.9487 68.1459C80.2418 67.9543 79.9272 66.5883 79.8833 65.7736C80.5612 66.4847 81.2755 67.1136 81.9321 67.9004C83.2846 69.5241 83.7693 68.4841 84.3533 67.6351C85.3215 66.2222 85.1524 62.7274 87.9983 64.7145C88.0948 64.7733 88.3764 64.2199 88.3253 64.1417C86.758 61.0095 89.3153 62.3196 89.4563 61.0594C89.5453 60.2214 87.9143 57.3163 90.3829 59.2976C90.4763 59.3911 90.7944 56.9554 91.321 56.0975C91.8446 55.2742 93.006 55.6125 93.3316 54.0736C93.5355 53.0866 94.8726 53.0833 95.6823 52.6382C96.4769 52.1995 96.5286 51.9441 95.8747 51.2894C95.408 50.6549 94.3914 50.3216 94.3791 50.4602C94.1852 52.643 92.4238 51.8604 91.5261 52.6431C91.3538 52.7832 90.995 52.5695 90.6963 52.4968C90.6851 51.9682 90.5084 51.1768 90.705 50.9263C91.6822 49.5763 92.7769 48.3763 93.8173 47.1327C94.5794 46.2411 93.4901 46.0721 93.2194 45.5208C92.9486 44.9694 92.8961 43.9251 93.093 43.5078C93.59 42.3292 93.8526 44.1174 94.2114 44.3311C94.7209 44.6473 95.3664 44.9055 95.7742 44.7317C97.683 44.018 99.5467 43.1568 101.447 42.3803C102.066 42.1164 102.676 41.7895 103.34 41.6731C104.047 41.5719 104.988 43.4041 105.019 44.6909C105.036 45.3171 105.185 46.4203 105.415 46.6227C105.939 47.0992 106.941 48.572 106.957 46.5986C106.952 46.1674 107.453 45.9203 107.8 45.7723C109.504 45.0794 111 43.7749 113.295 44.9301C114.102 42.5526 115.417 41.3253 117.917 42.7932C117.875 39.0108 120.763 42.6466 121.942 41.4772C123.04 40.4093 124.455 39.2062 126.514 40.3952C126.638 40.4758 126.861 40.5807 126.879 40.5396C127.475 37.9187 129.166 37.5312 131.08 37.2486C132.994 36.9661 134.692 36.0089 136.348 35.0364C137.451 34.3997 138.271 33.1834 139.289 32.3491C140.226 31.6164 141.208 31.1979 141.958 29.9445C142.9 28.3431 144.932 27.8768 146.725 27.8126C147.745 27.7777 149.339 29.2983 150.535 30.5553C152.897 33.082 155.108 34.3733 157.288 33.7105C157.512 33.6486 157.579 33.22 157.73 32.9888C157.501 32.7864 157.164 32.3301 157.028 32.3881C155.415 33.0423 155.659 31.6049 155.938 30.5857C156.093 29.9862 156.55 29.5917 156.991 29.3703C158.329 28.6998 159.706 28.0793 161.129 27.6063C162.086 27.2982 162.386 26.7037 161.637 24.9893C161.565 24.8201 162.052 24.2458 162.372 24.076C162.523 24.0116 162.954 24.3946 163.174 24.7009C163.406 25.0355 163.52 25.5537 163.745 25.9575C164.257 26.9062 164.814 27.8356 165.355 28.7714C165.688 28.1294 166.13 27.5745 166.331 26.7889C166.616 25.7004 166.017 24.9225 165.14 24.1629C163.964 23.1639 163.574 21.9969 164.707 21.514C165.401 21.2179 166.247 21.191 167.067 21.2744C167.426 21.3213 167.896 21.9211 168.342 22.2977C168.094 22.6368 167.822 22.9195 167.586 23.2868C167.317 23.7016 167.059 24.1447 166.805 24.5531C167.27 24.8885 167.725 25.328 168.183 25.5659C168.572 25.7668 173.431 24.062 173.83 23.9921C174.696 23.8895 175.764 24.301 176.48 23.9292C177.241 23.538 177.6 22.2852 178.337 21.8375C178.645 21.6395 179.528 22.4965 180.088 23.0577C180.221 23.2012 180.129 24.0738 180.125 24.6089C180.122 24.8103 180.103 25.0182 180.046 25.1761C179.691 26.2275 179.254 27.2136 179.02 28.3802C178.965 28.6703 182.996 29.5855 182.994 28.7862C182.964 25.3655 185.145 27.8027 186.286 27.7163C186.929 27.6755 188.518 28.5983 187.962 30.602C189.778 31.4282 190.75 35.0476 192.642 35.3411L192.65 35.3425C193.432 35.4725 193.773 35.5292 193.545 36.6229C193.192 38.3068 193.188 40.8088 192.266 41.3683C191.194 41.9922 190.906 44.4151 188.862 43.2198C188.129 42.7987 187.183 43.4686 186.66 44.1251C186.118 44.8226 184.46 45.6629 187.079 47.5798C187.312 47.7475 187.666 48.4963 187.645 48.7388C187.344 51.9675 188.236 52.7206 190.082 51.7338C190.157 51.7016 190.56 52.3964 190.792 52.7309C188.981 54.9701 191.988 57.5882 192.531 59.9906C192.561 60.1445 193.499 60.3779 194.015 60.6248C195.357 61.2194 196.215 62.1868 196.052 64.19C195.987 64.9176 196.001 65.7452 196.193 66.5301C196.319 67.0765 196.822 67.6288 197.153 68.1543C198.292 65.9688 202.209 73.0661 202.409 67.7141C203.596 68.9081 204.472 68.5348 205.236 67.9421C205.581 67.6619 205.688 66.9496 205.906 66.4566C205.402 66.0711 204.812 65.356 204.447 65.3784C202.953 65.5154 201.417 65.3034 199.768 63.906C199.403 63.5948 199.079 62.8331 198.88 62.2842C198.799 62.0521 199.171 61.4601 199.211 61.51C201.034 63.2331 200.934 59.7753 202.454 60.6609C202.743 60.8376 203.039 60.6113 203.335 60.5518C203.022 59.9852 202.731 59.176 202.402 58.9494C201.866 58.6114 201.31 58.6482 200.755 58.5182C201.124 58.1275 201.442 57.6587 201.85 57.3181C202.176 57.079 202.59 57.0027 203.149 56.7645Z" fill="#FFE68E"/>
<path d="M191.789 66.3552C191.748 71.5075 188.979 75.9991 184.868 78.4735C182.694 79.7829 180.143 80.5261 177.42 80.5025C169.551 80.4377 163.222 73.9966 163.287 66.1163C163.307 63.5888 163.985 61.2206 165.155 59.1709C167.629 54.8326 172.311 51.9247 177.659 51.9719C185.528 52.0368 191.857 58.4749 191.789 66.3552Z" fill="#585E60"/>
<path d="M184.868 78.4721C182.694 79.7816 180.143 80.5248 177.42 80.5012C169.551 80.4363 163.222 73.9952 163.287 66.115C163.307 63.5875 163.985 61.2193 165.155 59.1696C173.054 64.0774 179.798 70.6833 184.868 78.4721Z" fill="#414749"/>
<path d="M100.713 65.5967C100.648 73.474 94.2131 79.8089 86.3406 79.744C83.8509 79.7234 81.5174 79.0657 79.4904 77.9273C75.1092 75.4618 72.1629 70.746 72.21 65.3607C72.2748 57.4805 78.7067 51.1456 86.5792 51.2134C92.0682 51.2576 96.8088 54.4074 99.1512 58.9816C100.168 60.9638 100.733 63.2137 100.713 65.5967Z" fill="#585E60"/>
<path d="M99.1512 58.9814C100.168 60.9633 100.733 63.2136 100.713 65.5965C100.648 73.4738 94.2131 79.8087 86.3406 79.7439C83.8509 79.7232 81.5174 79.0655 79.4904 77.9272C84.5846 70.2737 91.3051 63.7946 99.1512 58.9814Z" fill="#414749"/>
<path d="M190.64 112.845C190.64 142.386 168.837 166.83 140.462 170.938C137.698 171.336 134.873 171.543 132 171.543C119.483 171.543 107.883 167.618 98.3607 160.929C83.2434 150.312 73.3597 132.732 73.3597 112.845C73.3597 80.4286 99.6149 54.1473 132 54.1473C164.385 54.1473 190.64 80.4286 190.64 112.845Z" fill="#F9E8D4"/>
<path d="M149.452 157.712L140.462 170.938C137.698 171.336 134.873 171.543 132 171.543C119.483 171.543 107.883 167.618 98.3605 160.929C96.6534 156.946 95.6269 153.291 95.0285 150.634C94.6184 148.822 95.0467 146.958 96.1949 145.517C97.3431 144.082 99.1168 143.225 100.946 143.225C102.23 143.225 103.463 143.629 104.512 144.395C108.381 147.217 113.918 151.987 118.326 158.7C118.502 158.971 118.681 159.244 118.86 159.521L138.867 148.009L149.452 157.712Z" fill="#EFCDB1"/>
<path d="M190.64 112.845C190.64 145.262 164.385 171.542 132 171.542C131 171.542 130.007 171.518 129.023 171.47C160.023 169.913 184.683 144.261 184.683 112.845C184.683 81.4286 160.023 55.777 129.023 54.2204C130.007 54.1717 131 54.1476 132 54.1476C164.385 54.1473 190.64 80.4285 190.64 112.845Z" fill="#EFCDB1"/>
<path d="M145.683 101.571C145.683 101.571 134.554 105.453 139.009 119.769C143.464 134.085 153.631 143.933 163.108 139.009C172.585 134.085 170.335 114.429 163.955 105.776C157.574 97.1229 145.683 101.571 145.683 101.571Z" fill="#585E60"/>
<path d="M118.316 101.571C118.316 101.571 129.445 105.453 124.99 119.769C120.536 134.085 110.368 143.933 100.892 139.009C91.4147 134.085 93.6645 114.429 100.045 105.776C106.426 97.1228 118.316 101.571 118.316 101.571Z" fill="#585E60"/>
<path d="M132 141.084C135.474 141.084 138.29 138.265 138.29 134.787C138.29 131.31 135.474 128.491 132 128.491C128.526 128.491 125.71 131.31 125.71 134.787C125.71 138.265 128.526 141.084 132 141.084Z" fill="#8B5016"/>
<path d="M99.4723 149.631C99.1659 148.27 100.704 147.26 101.83 148.081C105.09 150.458 110.381 154.905 114.519 161.206C115.057 162.023 115.572 162.839 116.065 163.641C116.843 164.911 117.566 166.157 118.227 167.366C119.29 169.309 120.19 171.157 120.909 172.84L114.613 176.984C112.719 174.987 110.649 172.46 108.583 169.57C107.879 168.585 107.175 167.56 106.478 166.496C105.814 165.485 105.205 164.467 104.648 163.45C101.732 158.137 100.217 152.937 99.4723 149.631Z" fill="#009655"/>
<path d="M108.583 169.571L116.064 163.642C116.843 164.912 117.565 166.158 118.227 167.367C119.289 169.31 120.189 171.157 120.908 172.841L114.612 176.984C112.719 174.987 110.648 172.461 108.583 169.571Z" fill="#006B42"/>
<path d="M104.647 163.45C107.44 164.116 111.058 165.135 118.227 167.367C119.289 169.309 120.19 171.157 120.908 172.84L114.613 176.984C112.072 174.307 109.22 170.678 106.478 166.497C105.814 165.486 105.205 164.468 104.647 163.45Z" fill="#006B42"/>
<path d="M83.9134 168.064C82.5419 167.37 82.9679 165.309 84.5021 165.216C88.5279 164.971 94.6748 164.974 101.292 166.345C104.408 166.989 107.339 167.723 109.948 168.488C111.439 168.925 112.822 169.372 114.077 169.822L112.888 175.578C109.961 175.391 106.457 174.948 102.664 174.26C101.719 174.088 100.753 173.899 99.7746 173.696C93.1566 172.326 87.5123 169.888 83.9134 168.064Z" fill="#00C37A"/>
<path d="M102.664 174.26L109.948 168.488C111.439 168.925 112.822 169.372 114.077 169.822L112.888 175.578C109.961 175.391 106.458 174.948 102.664 174.26Z" fill="#009655"/>
<path d="M95.6975 184.311L141.149 147.213L149.452 157.712L104.001 194.81L95.6975 184.311Z" fill="#A4E869"/>
<path d="M95.6975 184.311L101.199 179.952C101.343 180.104 101.482 180.265 101.614 180.432L109.113 189.913C109.251 190.088 109.382 190.268 109.5 190.452L104.001 194.81L95.6975 184.311Z" fill="#60DC4D"/>
<path d="M141.149 147.213L143.541 150.237L98.0906 187.335L95.6985 184.31L141.149 147.213Z" fill="#60DC4D"/>
<path d="M98.8324 182.638L106.33 192.117C107.528 193.632 107.272 195.832 105.759 197.031C104.246 198.231 102.048 197.975 100.85 196.46L93.3522 186.981C92.1543 185.466 92.4097 183.265 93.9229 182.066C95.4362 180.867 97.6344 181.123 98.8324 182.638Z" fill="#A4E869"/>
<path d="M147.771 143.6C143.118 143.6 139.345 147.377 139.345 152.035C139.345 156.693 143.118 160.469 147.771 160.469L153.064 159.829V143.6H147.771Z" fill="#F9E8D4"/>
<path d="M129.529 56.4174C130.421 56.3791 131.23 56.3605 132 56.3605C160.79 56.3605 184.897 77.9278 188.077 106.528C188.202 107.659 189.159 108.495 190.27 108.495C190.352 108.495 190.434 108.491 190.517 108.482C191.73 108.346 192.604 107.253 192.469 106.039C191.49 97.2303 188.606 88.8248 184.09 81.3524C189.97 78.7892 193.945 72.925 193.999 66.3734C194.037 61.9714 192.36 57.8189 189.276 54.6809C186.193 51.5433 182.074 49.7953 177.678 49.759C170.883 49.705 164.805 53.8351 162.291 60.0158C153.143 54.7544 142.727 51.9367 132 51.9367C131.166 51.9367 130.296 51.9565 129.339 51.9977C128.12 52.0502 127.174 53.0822 127.227 54.3023C127.279 55.5229 128.307 56.4723 129.529 56.4174ZM177.641 54.1828C180.857 54.2094 183.871 55.4878 186.125 57.7829C188.381 60.078 189.608 63.1154 189.58 66.3359C189.538 71.3923 186.307 75.8899 181.614 77.5821C179.04 73.9593 176.061 70.599 172.706 67.5743C170.618 65.6915 168.416 63.9674 166.117 62.407C167.756 57.4886 172.39 54.1368 177.641 54.1828Z" fill="black"/>
<path d="M190.676 113.289C189.445 113.228 188.424 114.18 188.37 115.401C187.147 142.885 166.05 165.367 139.292 168.857L146.907 162.642C147.192 162.665 147.48 162.68 147.771 162.68C148.992 162.68 149.981 161.69 149.981 160.468C149.981 159.246 148.992 158.256 147.771 158.256C144.344 158.256 141.555 155.465 141.555 152.034C141.555 148.603 144.344 145.812 147.771 145.812C148.992 145.812 149.981 144.822 149.981 143.6C149.981 142.378 148.992 141.388 147.771 141.388C144.049 141.388 140.769 143.314 138.868 146.221L134.21 150.022V143.002C137.829 142.026 140.5 138.713 140.5 134.787C140.5 130.096 136.687 126.279 132 126.279C127.313 126.279 123.5 130.095 123.5 134.787C123.5 138.713 126.172 142.025 129.791 143.002V153.629L118.276 163.027C117.661 162.008 117.024 160.993 116.366 159.991C112.145 153.564 106.839 148.993 103.13 146.29C101.865 145.369 100.205 145.329 98.8996 146.188C97.5949 147.047 96.9735 148.589 97.3171 150.117C97.9008 152.708 98.8489 156.04 100.357 159.629C84.916 149.189 75.57 131.818 75.57 112.844C75.57 86.106 94.5366 62.8297 120.668 57.4984C121.864 57.2545 122.636 56.0864 122.392 54.8893C122.148 53.6922 120.981 52.9189 119.786 53.1637C113.503 54.4454 107.481 56.7334 101.946 59.8873C99.6426 53.5123 93.5322 49.0578 86.5984 49C86.5495 49.0009 86.5012 49.0006 86.4525 49.0006C82.1091 49.0006 78.0172 50.6769 74.9171 53.7293C71.7828 56.8157 70.0365 60.9396 70.0006 65.3416C69.9428 72.2082 74.0754 78.2576 80.2824 80.7553C74.3544 90.3382 71.1505 101.475 71.1505 112.845C71.1505 124.26 74.3246 135.389 80.3295 145.029C84.9532 152.452 91.1045 158.767 98.3303 163.58C92.8027 162.769 87.8123 162.8 84.3671 163.007C82.6692 163.111 81.2977 164.301 80.9541 165.968C80.6106 167.634 81.3993 169.27 82.9146 170.037C86.6043 171.908 92.4468 174.437 99.3277 175.863C100.203 176.043 101.07 176.209 101.932 176.368L98.1226 179.477C97.6857 179.311 97.2278 179.192 96.7514 179.137C95.2379 178.962 93.7464 179.385 92.5517 180.332C91.357 181.279 90.6021 182.634 90.4262 184.149C90.2503 185.664 90.6743 187.157 91.6201 188.353L99.1179 197.833C100.064 199.029 101.418 199.785 102.932 199.961C103.156 199.987 103.38 200 103.602 200C104.881 200 106.114 199.573 107.132 198.766C108.326 197.819 109.081 196.463 109.257 194.948C109.318 194.426 109.302 193.907 109.223 193.401L133.354 173.705C133.46 173.72 133.567 173.731 133.677 173.731C133.698 173.731 133.719 173.731 133.74 173.73C149.15 173.297 163.693 167.088 174.69 156.248C185.675 145.419 192.101 130.983 192.785 115.598C192.839 114.377 191.895 113.344 190.676 113.289ZM127.919 134.788C127.919 132.536 129.75 130.703 132 130.703C134.249 130.703 136.08 132.536 136.08 134.788C136.08 137.04 134.249 138.872 132 138.872C129.75 138.872 127.919 137.04 127.919 134.788ZM74.4198 65.3784C74.4463 62.1579 75.7238 59.1408 78.0166 56.8829C80.3095 54.625 83.3403 53.3925 86.5613 53.4247C91.9566 53.4692 96.6701 57.1504 98.0758 62.2906C93.2247 65.5551 88.827 69.5194 85.0613 74.083C84.2849 75.0238 83.541 75.9876 82.8259 76.9703C77.7977 75.3892 74.375 70.723 74.4198 65.3784ZM141.979 160.956L107.051 189.465L101.491 182.435L137.211 153.281C137.587 156.492 139.396 159.27 141.979 160.956ZM112.673 162.421C113.415 163.553 114.131 164.702 114.815 165.853L110.925 169.027C110.043 167.823 109.171 166.573 108.322 165.283C104.939 160.127 103.069 154.684 102.101 151.063C105.037 153.387 109.284 157.262 112.673 162.421ZM100.221 171.531C95.2252 170.495 90.8051 168.829 87.4643 167.315C91.1398 167.257 95.8613 167.48 100.845 168.51C102.577 168.869 104.297 169.268 105.973 169.695C106.475 170.42 106.983 171.132 107.495 171.827L106.493 172.645C104.463 172.343 102.361 171.972 100.221 171.531ZM104.866 194.437C104.827 194.778 104.657 195.084 104.388 195.297C104.119 195.511 103.782 195.607 103.442 195.566C103.101 195.527 102.795 195.357 102.582 195.087L95.0847 185.607C94.8716 185.338 94.7762 185.002 94.8157 184.66C94.8554 184.319 95.0254 184.014 95.2944 183.8C95.5237 183.618 95.8015 183.522 96.0897 183.522C96.1397 183.522 96.1901 183.525 96.2405 183.531C96.5814 183.571 96.8866 183.741 97.0996 184.01L104.597 193.49C104.811 193.759 104.906 194.096 104.866 194.437Z" fill="black"/>
<path d="M136.899 120.427C140.119 130.771 146.027 138.61 152.705 141.397C154.47 142.134 156.257 142.502 158.025 142.502C160.108 142.502 162.165 141.991 164.126 140.972C167.54 139.198 169.923 135.766 171.017 131.047C172.938 122.764 170.617 111.087 165.732 104.462C158.446 94.5796 145.459 99.2936 144.909 99.4989L144.91 99.4992C144.058 99.8242 132.019 104.744 136.899 120.427ZM142.281 106.836C144.068 104.532 146.401 103.663 146.424 103.655C146.433 103.651 146.444 103.648 146.452 103.645C146.875 103.489 156.881 99.9071 162.177 107.09C166.313 112.699 168.347 122.997 166.712 130.047C166.159 132.432 164.908 135.582 162.09 137.046C159.628 138.325 157.043 138.415 154.406 137.315C149.003 135.06 143.911 128.084 141.119 119.111C139.531 114.007 139.921 109.877 142.281 106.836Z" fill="black"/>
<path d="M119.09 99.4993C118.541 99.2937 105.554 94.58 98.267 104.462C96.6277 106.686 95.2087 109.599 94.1637 112.887C93.7936 114.051 94.4365 115.295 95.5994 115.665C96.762 116.036 98.0051 115.392 98.3751 114.228C99.2752 111.396 100.468 108.928 101.823 107.09C107.119 99.9074 117.125 103.489 117.543 103.643C117.558 103.649 117.574 103.654 117.589 103.66C117.961 103.789 126.656 106.978 122.881 119.111C120.088 128.085 114.997 135.06 109.593 137.315C106.957 138.415 104.371 138.325 101.91 137.046C98.2982 135.17 96.3775 129.881 96.7718 122.899C96.8404 121.679 95.9085 120.635 94.6902 120.566C93.4695 120.497 92.428 121.43 92.359 122.649C91.8564 131.551 94.5953 138.23 99.8733 140.972C101.835 141.991 103.891 142.502 105.975 142.502C107.742 142.502 109.529 142.134 111.294 141.398C117.972 138.611 123.881 130.771 127.1 120.427C131.98 104.744 119.942 99.8243 119.09 99.4993Z" fill="black"/>
<path d="M144.858 121.658C146.079 121.658 147.068 120.668 147.068 119.447V119.26C147.068 118.038 146.079 117.048 144.858 117.048C143.638 117.048 142.648 118.038 142.648 119.26V119.447C142.648 120.668 143.638 121.658 144.858 121.658Z" fill="black"/>
<path d="M121.351 119.447V119.26C121.351 118.038 120.362 117.048 119.141 117.048C117.921 117.048 116.932 118.038 116.932 119.26V119.447C116.932 120.668 117.921 121.658 119.141 121.658C120.362 121.658 121.351 120.668 121.351 119.447Z" fill="black"/>
</svg>
