<svg width="263" height="242" fill="none" xmlns="http://www.w3.org/2000/svg"><path d="M203.149 56.764c1.111-.24 2.194-2.135 3.988 1.234 1.009-.397 2.017-.793 3.038-1.162 1.308-.49 4.932.098 6.204.99 2.351 1.663 2.267 1.633 3.033 5.607.32 1.63 1.069 3.344 1.588 5.023.315 1.033 1.022 2.732.81 2.989-.517.587-1.188.94-.33 2.24 1.31 1.942.663-1.082 1.073-.624.612.693 1.118 1.789 1.576 2.781l.019.04c.523 1.143 2.67-1.105 2.069 2.551-.088.505 1.557 2.27 2.3 3.554.885 1.49 1.111 3.36 2.633 4.544.612.473-.292 3.292-1.454 3.12-2.121-.329-2.29 2.877-4.044 3.157-.087.004-.163.37-.115.483 2.768 5.154-1.917 3.417-1.593 6.313-2.35-.699-3.228 1.343-4.158 3.306-2.461-1.418-1.974 1.441-2.284 3.141-.028.145.123.414.192.618.363 1.145 1.628 2.773.215 2.975-.383.063-1.202-1.355-1.844-1.814-.287-.212-.848.061-.97.446-.522 1.623 2.302 2.219 1.59 4.023.332.192.853.703.98.582 1.037-1.208 3.313.655 3.975-1.561.068-.216.587 2.267 1.019 3.79a.776.776 0 01.598.088c.021 1.697-.262 1.094-.598-.088-.45.1-.91.503-1.267.816l-.002.001c-.979.884-.364 3.289 1.098 4.499.446.377.931.804 1.377 1.013 1.762.783 1.433 2.023 1.205 3.287l-.009.05c-.057.316-.125.694-.059 1.046l.034.183c.311 1.674.319 1.72-.086 1.539-.307-.136-.632-.564-.904-.615-1.539-.177-3.201-.769-4.398.275-.266.213-.794-.062-1.198-.089.018-.375.064-.728.053-1.09-.118-1.449 1.112-2.541-.153-4.168-1.915-2.484-1.307 1.79-2.734 1.165-.53-.24-1.029.306-1.504.575-1.16.628-4.099.514-5.405-.163-.404-.194-.947-.296-1.189-.026-.578.613.381 3.071-1.055 2.716-1.563-.4-.945 1.636-1.034 2.641-.179 2.176.714.796 1.211 1.084.929.504 1.6 1.951 1.004 2.439-1.254 1.034-.86 1.833.581 3.119.147.137.318.998.2 1.182-.751 1.42-1.607 2.718-2.358 4.139-.085.136.227 1.036.456 1.238 1.86 1.808 2.034 2.134 1.694 3.512-.043.152-.088.338-.182.411-.514.386-1.525.65.157 1.666.606.376 1.569.499 1.784.04.285-.588-.009-1.863-.053-2.844-.023-.39-.032-.787-.055-1.177.265.287.594.514.795.861.325.595.572 1.257.833 1.912.965 2.389 2.225 3.419 3.464 2.557 1.163-.829 2.593-.405 4.036-.12.256.057.539.303.817.452-.112.281-.168.738-.364.821-.737.281-1.538.956-2.313.52-1.26-.697-1.333-.365-.681 1.123.629 1.433 1.079 2.574-.137 2.859-.103.011.091 1.261.356 1.715.229.369.859.634 1.158.54 1.178-.335 2.226-1.016 3.449-1.204.429-.082 1.191.826 1.818 1.292-.221.361-.379.828-.675 1.055-1.33.9-2.695 1.715-4.037 2.587-.169.106-.378.495-.417.445-2.317-2.713-2.975-.532-4.13.527-.665.617-2.24-.146-2.7.617-1.014 1.766-1.718 3.966-2.256 6.263-.322 1.337-1.609 1.919-.711 4.403.256.724.059 1.309.866 1.864.329.227.916 1.31.864 1.566-.219.993-.914 1.623-.934 2.665-.027 1.778-.766 1.093-1.643.833-.441-.112-.543 1.532-1.072 1.757-1.329.567-2.73 1.131-4.257.982-1.096-.1-1.941-.24-2.257 1.195-.113.448-.63 1.035-.723.942-2.386-2.583-2.093.992-3.111 1.493-1.272.575-2.033 2.6-3.385 2.609-1.383.023-2.007 1.156-3.076 1.578-1.398.53-2.776 1.15-4.15 1.736-1.253.534-2.459 1.181-3.772 1.575-1.226.389-3.255-1.146-3.507 1.528-1.486-1.433-1.883 1.403-3.378-.094-.671 2.32-2.626 2.253-3.998 3.305-2.569 1.929-6.048 1.178-8.962 2.087-.973.314-2.568-.539-3.81-1.443-1.366-.985-1.575 1.205-2.792.19-1.363 2.414-3.088 3.683-6.172 1.264-.244-.196-.624 1.467-1.08 1.361-1.267-.294-2.603-.957-3.906-1.669-1.357-.755-5.215-1.81-6.293-1.451-1.003.328-1.849.855-3.251-.047-.935-.602-2.196-.798-2.794-.276-.992.856-1.565 2.4-2.921 2.778-.284.088-1.458 1.855.665 3.151-.122.385-.162 1.002-.416 1.077-2.011.724-2.939 3.153-4.273 4.922-.296.393-.476 1.436-.714 1.338-.971-.52-3.361-.194-2.921 1.885l-3.421 1c-.687.35-.393 1.468-1.079 1.809-2.631 1.307-5.954 1.57-5.679.623-.471.068-1.279-.154-1.362.281-.343 1.413-.535 2.595-2.034.167-.28-.447-1.011-.403-1.517-.587-.465-.168-.917-.309-1.367-.484.272-.283.737-.448.792-.905.181-1.377-2.258-4.67-3.448-4.363-1.709.428-3.445-1.132-5.161-1.767-1.575-.596-3.064-.194-4.742-1.912-.946-.964-1.056-.384-1.422.473-.276.65-1.495.137-2.198.37-1.994.683-3.792-3.451-5.744-3.385-1.436-2.489-4.04-4.412-3.482-7.917.012-.139-.88-1.058-1.377-1.513-.47-.433-.992-.778-1.486-1.1-.847-.606-1.805-1.597-2.515-1.628-.984-.048-1.797.599-2.625 1.085-.123.086-.052.756.074 1.136.847 2.572.073 3.436-1.202 3.879-.208.055-.224.562-.351.85.413.09.817.118 1.24.271.268.086.54.303.814.487-.127.287-.189.646-.379.828-1.149.989-2.77-.553-4.137-.704-.474-.064-.846.361-1.271.576.403.361 1.103.83 1.139 1.081.089.795-.075 1.499-.128 2.255-.335-.325-.666-.683-1.004-.973-.376-.339-.801-.792-1.157-.873-.513-.115-.903.518-1.079-1.107-.193-1.751.374-5.027-2.502-3.734-.347.148-1.35-.658-1.772-1.311-1.297-2.081-2.707-3.713-4.341-4.95-.232-.168-.566-.993-.538-1.304.096-1.241-.398-1.897-1.26-2.663-1.281-1.121-2.606-1.59-3.855-3.558-.93-1.47-2.77-1.686-3.43-4.238-.066-.238-.645-.758-.781-.701-1.033.508-2.553-.545-2.795-1.742-.41-2.092-1.233-4.608-.204-6.213.436-.653.474-1.903.597-2.955.018-.208-.382-.77-.632-1.064-.067-.072-.42.146-.439.354-.144 1.628-.982.919-1.953.566-1.52-.552-1.286-3.853-2.886-3.671-1.92.185-1.791-2.403-2.562-3.708-.391-.666-.48-1.629-.684-2.442.47.6.922 1.241 1.41 1.8.105.121.5-.081.498-.213-.09-.795.899-1.45-.548-2.5-.383-.27-.953-2.027-.938-2.033 1.77-.955 2.067-1.848-.752-3.647-1.1-.698-1.037-2.725.054-3.39 1.076-.658 1.046-.646.086-2.603a8.641 8.641 0 01-.76-2.243c-.41-2.259-.297-4.341-1.446-6.784-.403-.862-.309-3.069.063-3.161 1.564-.266 1.323-2.297 1.742-3.743.206-.688 1.386-.891.417-2.078-.904-1.114-1.932-3.61-3.005-2.986-1.93 1.123-2.472-1.446-3.007-3.118-.453-1.441-.108-3.855-.524-4.244-1.582-1.493.038-2.716-1.11-3.861.364-.821.517-2.22 1.127-2.38.936-.232 2.182.303 3.298.661.127.046.565 1.326.489 1.692-.113.614-.539.996-.83 1.487.538.004 1.171.234 1.597.019.795-.439 1.478-1.097 2.161-1.755.336-.343.04-2.083-.496-3.088-.971-1.82-1.285-3.686-.478-4.597 1.428-1.675 3.319-2.681 3.454-6.006 3.245-1.683 3.974-6.294 4.956-10.647.14-.593.663-.916 1.131-1.115 1.486-.7 3.005-1.281 4.504-1.953.456-.228.84-.625 1.263-.972-.404-.528-1.163-1.305-1.153-1.576.065-1.06-.12-2.582 1.108-2.339.643.126 1.292.183 1.94.24-.403-.528-.834-1.078-1.189-1.66-.05-.078.189-.647.385-.73 1.078-.527 2.343-.7 2.257-2.996-.017-.626.493-1.144.92-1.36 1.017-.5 1.967-1.371 3.492-.221-.06-2.108 1.388-1.726 2.265-2.266.323-.204.758-.356 1.165-.197.802.292 1.965 1.43 2.358 1.095 1.3-1.054 2.576-2.331 3.358-4.098.566-1.308.392-1.467 1.526.316 2.093 3.275 4.285 2.808 6.359 2.69.57-.043 1.183.096 1.786.172-1.044-3.622.406-2.773 2.08-2.32 1.207.319 2.305-.582 3.28-1.265.294-.192-.02-1.558-.065-2.372.678.71 1.392 1.34 2.05 2.126 1.352 1.624 1.836.584 2.42-.265.969-1.413.8-4.908 3.645-2.92.097.058.378-.495.327-.573-1.567-3.132.99-1.822 1.131-3.083.09-.838-1.542-3.743.927-1.761.093.093.411-2.343.938-3.2.524-.824 1.685-.486 2.01-2.024.204-.987 1.542-.99 2.351-1.436.795-.438.847-.694.193-1.349-.467-.634-1.484-.967-1.496-.829-.194 2.183-1.955 1.4-2.853 2.183-.172.14-.531-.074-.83-.146-.01-.529-.188-1.32.009-1.57.977-1.35 2.072-2.55 3.112-3.794.762-.892-.327-1.06-.598-1.612-.27-.552-.323-1.596-.126-2.013.497-1.179.76.61 1.118.823.51.316 1.155.575 1.563.4 1.909-.713 3.773-1.574 5.673-2.35.619-.265 1.229-.592 1.893-.708.707-.101 1.648 1.731 1.679 3.018.017.626.166 1.73.396 1.932.524.476 1.526 1.949 1.542-.024-.005-.432.496-.679.843-.827 1.704-.693 3.2-1.997 5.495-.842.807-2.377 2.122-3.605 4.622-2.137-.042-3.782 2.846-.146 4.025-1.316 1.098-1.068 2.513-2.27 4.572-1.082.124.08.347.186.365.145.596-2.621 2.287-3.009 4.201-3.291 1.914-.283 3.612-1.24 5.268-2.213 1.103-.636 1.923-1.853 2.941-2.687.937-.733 1.919-1.151 2.669-2.404.942-1.602 2.974-2.068 4.767-2.132 1.02-.035 2.614 1.485 3.81 2.742 2.362 2.527 4.573 3.818 6.753 3.156.224-.062.291-.491.442-.722-.229-.203-.566-.659-.702-.6-1.613.653-1.369-.784-1.09-1.803.155-.6.612-.994 1.053-1.216 1.338-.67 2.715-1.29 4.138-1.764.957-.308 1.257-.902.508-2.617-.072-.169.415-.743.735-.913.151-.064.582.319.802.625.232.334.346.853.571 1.256.512.95 1.069 1.879 1.61 2.814.333-.642.775-1.197.976-1.982.285-1.089-.314-1.867-1.191-2.626-1.176-1-1.566-2.166-.433-2.649.694-.296 1.54-.323 2.36-.24.359.047.829.647 1.275 1.024-.248.339-.52.622-.756.989-.269.415-.527.858-.781 1.266.465.335.92.775 1.378 1.013.389.2 5.248-1.504 5.647-1.574.866-.102 1.934.309 2.65-.063.761-.391 1.12-1.644 1.857-2.091.308-.198 1.191.659 1.751 1.22.133.143.041 1.016.037 1.55-.003.202-.022.41-.079.568-.355 1.052-.792 2.038-1.026 3.204-.055.29 3.976 1.206 3.974.406-.03-3.42 2.151-.983 3.292-1.07.643-.04 2.232.882 1.676 2.886 1.816.826 2.788 4.446 4.68 4.74h.008c.782.13 1.123.187.895 1.28-.353 1.685-.357 4.187-1.279 4.746-1.072.624-1.36 3.047-3.404 1.852-.733-.421-1.679.249-2.202.905-.542.698-2.2 1.538.419 3.455.233.168.587.916.566 1.159-.301 3.229.591 3.982 2.437 2.995.075-.032.478.662.71.997-1.811 2.24 1.196 4.857 1.739 7.26.03.154.968.387 1.484.634 1.342.594 2.2 1.562 2.037 3.565-.065.728-.051 1.555.141 2.34.126.546.629 1.099.96 1.624 1.139-2.185 5.056 4.912 5.256-.44 1.187 1.194 2.063.82 2.827.228.345-.28.452-.992.67-1.485-.504-.386-1.094-1.101-1.459-1.079-1.494.137-3.03-.075-4.679-1.472-.365-.311-.689-1.073-.888-1.622-.081-.232.291-.824.331-.774 1.823 1.723 1.723-1.735 3.243-.85.289.178.585-.049.881-.108-.313-.567-.604-1.376-.933-1.603-.536-.338-1.092-.3-1.647-.43.369-.392.687-.86 1.095-1.2.326-.24.74-.316 1.299-.555z" fill="#FFE68E"/><path d="M191.789 66.355c-.041 5.152-2.81 9.644-6.921 12.118a14.15 14.15 0 01-7.448 2.03c-7.869-.065-14.198-6.506-14.133-14.387.02-2.527.698-4.895 1.868-6.945 2.474-4.338 7.156-7.246 12.504-7.2 7.869.066 14.198 6.504 14.13 14.384z" fill="#585E60"/><path d="M184.868 78.472a14.15 14.15 0 01-7.448 2.03c-7.869-.066-14.198-6.507-14.133-14.387.02-2.527.698-4.896 1.868-6.945a63.597 63.597 0 0119.713 19.302z" fill="#414749"/><path d="M100.713 65.597c-.065 7.877-6.5 14.212-14.372 14.147a14.183 14.183 0 01-6.85-1.817c-4.382-2.465-7.328-7.181-7.281-12.566.065-7.88 6.497-14.215 14.37-14.148 5.488.045 10.229 3.194 12.571 7.769a14.188 14.188 0 011.562 6.615z" fill="#585E60"/><path d="M99.151 58.981a14.187 14.187 0 011.562 6.616c-.065 7.877-6.5 14.212-14.372 14.147a14.186 14.186 0 01-6.85-1.817 63.576 63.576 0 0119.66-18.946z" fill="#414749"/><path d="M190.64 112.845c0 29.541-21.803 53.985-50.178 58.093a59.344 59.344 0 01-8.462.605c-12.517 0-24.117-3.925-33.64-10.614-15.117-10.617-25-28.197-25-48.084 0-32.416 26.255-58.698 58.64-58.698 32.385 0 58.64 26.282 58.64 58.698z" fill="#F9E8D4"/><path d="M149.452 157.712l-8.99 13.226a59.344 59.344 0 01-8.462.605c-12.517 0-24.117-3.925-33.64-10.614a59.748 59.748 0 01-3.332-10.295 6.032 6.032 0 011.167-5.117 6.137 6.137 0 014.751-2.292c1.284 0 2.517.404 3.566 1.17 3.869 2.822 9.406 7.592 13.814 14.305l.534.821 20.007-11.512 10.585 9.703z" fill="#EFCDB1"/><path d="M190.64 112.845c0 32.417-26.255 58.697-58.64 58.697-1 0-1.993-.024-2.977-.072 31-1.557 55.66-27.209 55.66-58.625s-24.66-57.068-55.66-58.625a60.24 60.24 0 012.977-.072c32.385 0 58.64 26.28 58.64 58.697z" fill="#EFCDB1"/><path d="M145.683 101.571s-11.129 3.882-6.674 18.198c4.455 14.316 14.622 24.164 24.099 19.24 9.477-4.924 7.227-24.58.847-33.233-6.381-8.653-18.272-4.205-18.272-4.205zm-27.367 0s11.129 3.882 6.674 18.198c-4.454 14.316-14.622 24.164-24.098 19.24-9.477-4.924-7.227-24.58-.847-33.233 6.381-8.653 18.271-4.205 18.271-4.205z" fill="#585E60"/><path d="M132 141.084a6.293 6.293 0 006.29-6.297 6.293 6.293 0 00-6.29-6.296 6.293 6.293 0 00-6.29 6.296 6.293 6.293 0 006.29 6.297z" fill="#8B5016"/><path d="M99.472 149.631c-.306-1.361 1.232-2.371 2.358-1.55 3.26 2.377 8.551 6.824 12.689 13.125a92.59 92.59 0 011.546 2.435 87.6 87.6 0 012.162 3.725 63.568 63.568 0 012.682 5.474l-6.296 4.144c-1.894-1.997-3.964-4.524-6.03-7.414a91.778 91.778 0 01-2.105-3.074 44.407 44.407 0 01-1.83-3.046c-2.916-5.313-4.431-10.513-5.176-13.819z" fill="#009655"/><path d="M108.583 169.571l7.481-5.929a87.647 87.647 0 012.163 3.725 63.692 63.692 0 012.681 5.474l-6.296 4.143c-1.893-1.997-3.964-4.523-6.029-7.413z" fill="#006B42"/><path d="M104.647 163.45c2.793.666 6.411 1.685 13.58 3.917a63.389 63.389 0 012.681 5.473l-6.295 4.144c-2.541-2.677-5.393-6.306-8.135-10.487a44.605 44.605 0 01-1.831-3.047z" fill="#006B42"/><path d="M83.913 168.064c-1.371-.694-.945-2.755.59-2.848 4.025-.245 10.172-.242 16.789 1.129 3.116.644 6.047 1.378 8.656 2.143a73.81 73.81 0 014.129 1.334l-1.189 5.756c-2.927-.187-6.431-.63-10.224-1.318-.945-.172-1.911-.361-2.89-.564-6.617-1.37-12.262-3.808-15.86-5.632z" fill="#00C37A"/><path d="M102.664 174.26l7.284-5.772a73.81 73.81 0 014.129 1.334l-1.189 5.756c-2.927-.187-6.43-.63-10.224-1.318z" fill="#009655"/><path d="M95.698 184.311l45.451-37.098 8.303 10.499-45.451 37.098-8.303-10.499z" fill="#A4E869"/><path d="M95.698 184.311l5.501-4.359c.144.152.283.313.415.48l7.499 9.481c.138.175.269.355.387.539l-5.499 4.358-8.303-10.499z" fill="#60DC4D"/><path d="M141.149 147.213l2.392 3.024-45.45 37.098-2.392-3.025 45.45-37.097z" fill="#60DC4D"/><path d="M98.832 182.638l7.498 9.479a3.5 3.5 0 01-.571 4.914 3.491 3.491 0 01-4.909-.571l-7.498-9.479a3.502 3.502 0 01.57-4.915 3.493 3.493 0 014.91.572z" fill="#A4E869"/><path d="M147.771 143.6c-4.653 0-8.426 3.777-8.426 8.435s3.773 8.434 8.426 8.434l5.293-.64V143.6h-5.293z" fill="#F9E8D4"/><path d="M129.529 56.417a57.32 57.32 0 012.471-.056c28.79 0 52.897 21.567 56.077 50.167a2.21 2.21 0 104.392-.489 60.659 60.659 0 00-8.379-24.687c5.88-2.563 9.855-8.427 9.909-14.979a16.37 16.37 0 00-4.723-11.692 16.343 16.343 0 00-11.598-4.922 16.49 16.49 0 00-15.387 10.257 60.695 60.695 0 00-32.952-8.018 2.21 2.21 0 00-2.112 2.304 2.207 2.207 0 002.302 2.115zm48.112-2.234a11.952 11.952 0 018.484 3.6 11.972 11.972 0 013.455 8.553c-.042 5.056-3.273 9.554-7.966 11.246a61.176 61.176 0 00-15.497-15.175 12.034 12.034 0 0111.524-8.224zm13.035 59.106a2.2 2.2 0 00-2.306 2.112c-1.223 27.484-22.32 49.966-49.078 53.456l7.615-6.215c.285.023.573.038.864.038a2.21 2.21 0 002.21-2.212 2.21 2.21 0 00-2.21-2.212c-3.427 0-6.216-2.791-6.216-6.222 0-3.431 2.789-6.222 6.216-6.222a2.21 2.21 0 002.21-2.212 2.21 2.21 0 00-2.21-2.212c-3.722 0-7.002 1.926-8.903 4.833l-4.658 3.801v-7.02c3.619-.976 6.29-4.289 6.29-8.215 0-4.691-3.813-8.508-8.5-8.508-4.687 0-8.5 3.816-8.5 8.508 0 3.926 2.672 7.238 6.291 8.215v10.627l-11.515 9.398a94.366 94.366 0 00-1.91-3.036c-4.221-6.427-9.527-10.998-13.236-13.701a3.686 3.686 0 00-4.23-.102 3.695 3.695 0 00-1.583 3.929 57.253 57.253 0 003.04 9.512c-15.441-10.44-24.787-27.811-24.787-46.785 0-26.738 18.967-50.014 45.098-55.346a2.211 2.211 0 00-.882-4.334 60.485 60.485 0 00-17.84 6.723C99.643 53.512 93.532 49.057 86.598 49h-.145a16.337 16.337 0 00-11.536 4.73 16.378 16.378 0 00-4.916 11.612c-.058 6.866 4.074 12.916 10.281 15.413a61.096 61.096 0 00-9.132 32.09c0 11.415 3.175 22.544 9.18 32.184a61.131 61.131 0 0018 18.551c-5.527-.811-10.518-.78-13.963-.573a3.678 3.678 0 00-3.413 2.961 3.68 3.68 0 001.96 4.069c3.69 1.871 9.533 4.4 16.414 5.826.875.18 1.742.346 2.604.505l-3.81 3.109a5.667 5.667 0 00-5.57.855 5.673 5.673 0 00-2.126 3.817 5.678 5.678 0 001.194 4.204l7.498 9.48a5.666 5.666 0 003.814 2.128 5.656 5.656 0 004.2-1.195 5.678 5.678 0 002.125-3.818 5.714 5.714 0 00-.034-1.547l24.131-19.696c.106.015.213.026.323.026l.063-.001c15.41-.433 29.953-6.642 40.95-17.482 10.985-10.829 17.411-25.265 18.095-40.65a2.212 2.212 0 00-2.109-2.309zm-62.757 21.499a4.088 4.088 0 014.081-4.085 4.088 4.088 0 014.08 4.085 4.087 4.087 0 01-4.08 4.084 4.087 4.087 0 01-4.081-4.084zm-53.5-69.41a11.984 11.984 0 013.598-8.495 11.926 11.926 0 018.544-3.458c5.396.044 10.11 3.725 11.515 8.866A61.099 61.099 0 0085.06 74.083c-.776.94-1.52 1.905-2.235 2.887a12.005 12.005 0 01-8.406-11.592zm67.56 95.578l-34.928 28.509-5.56-7.03 35.72-29.154a10.658 10.658 0 004.768 7.675zm-29.306 1.465a92.068 92.068 0 012.142 3.432l-3.89 3.174a90.982 90.982 0 01-2.603-3.744c-3.383-5.156-5.253-10.599-6.221-14.22 2.936 2.324 7.183 6.199 10.572 11.358zm-12.452 9.11c-4.996-1.036-9.416-2.702-12.757-4.216 3.676-.058 8.397.165 13.381 1.195 1.732.359 3.452.758 5.128 1.185.502.725 1.01 1.437 1.522 2.132l-1.002.818c-2.03-.302-4.132-.673-6.272-1.114zm4.645 22.906a1.275 1.275 0 01-.478.86c-.269.214-.606.31-.946.269a1.273 1.273 0 01-.86-.479l-7.497-9.48a1.278 1.278 0 01-.27-.947 1.281 1.281 0 011.425-1.129c.341.04.647.21.86.479l7.497 9.48c.214.269.309.606.269.947z" fill="#000"/><path d="M136.899 120.427c3.22 10.344 9.128 18.183 15.806 20.97 1.765.737 3.552 1.105 5.32 1.105 2.083 0 4.14-.511 6.101-1.53 3.414-1.774 5.797-5.206 6.891-9.925 1.921-8.283-.4-19.96-5.285-26.585-7.286-9.882-20.273-5.168-20.823-4.963h.001c-.852.325-12.891 5.245-8.011 20.928zm5.382-13.591c1.787-2.304 4.12-3.173 4.143-3.181l.028-.01c.423-.156 10.429-3.738 15.725 3.445 4.136 5.609 6.17 15.907 4.535 22.957-.553 2.385-1.804 5.535-4.622 6.999-2.462 1.279-5.047 1.369-7.684.269-5.403-2.255-10.495-9.231-13.287-18.204-1.588-5.104-1.198-9.234 1.162-12.275zM119.09 99.5c-.549-.206-13.536-4.92-20.823 4.962-1.64 2.224-3.058 5.137-4.103 8.425a2.209 2.209 0 104.211 1.341c.9-2.832 2.093-5.3 3.448-7.138 5.296-7.183 15.302-3.601 15.72-3.447l.046.017c.372.129 9.067 3.318 5.292 15.451-2.793 8.974-7.884 15.949-13.288 18.204-2.636 1.1-5.222 1.01-7.683-.269-3.612-1.876-5.532-7.165-5.138-14.147a2.211 2.211 0 10-4.413-.25c-.503 8.902 2.236 15.581 7.514 18.323 1.962 1.019 4.018 1.53 6.102 1.53 1.767 0 3.554-.368 5.319-1.104 6.678-2.787 12.587-10.627 15.806-20.971 4.88-15.683-7.158-20.603-8.01-20.928z" fill="#000"/><path d="M144.858 121.658a2.21 2.21 0 002.21-2.211v-.187a2.21 2.21 0 10-4.42 0v.187a2.21 2.21 0 002.21 2.211zm-23.507-2.211v-.187a2.21 2.21 0 10-4.419 0v.187a2.21 2.21 0 104.419 0z" fill="#000"/></svg>