<svg width="263" height="242" fill="none" xmlns="http://www.w3.org/2000/svg"><path d="M203.149 56.764c1.111-.24 2.194-2.135 3.988 1.234 1.009-.397 2.017-.793 3.038-1.162 1.308-.49 4.932.098 6.204.99 2.351 1.663 2.267 1.633 3.033 5.607.32 1.63 1.069 3.344 1.588 5.023.315 1.033 1.022 2.732.81 2.989-.517.587-1.188.94-.33 2.24 1.31 1.942.663-1.082 1.073-.624.612.693 1.118 1.789 1.576 2.781l.019.04c.523 1.143 2.67-1.105 2.069 2.551-.088.505 1.557 2.27 2.3 3.554.885 1.49 1.111 3.36 2.633 4.544.612.473-.292 3.292-1.454 3.12-2.121-.329-2.29 2.877-4.044 3.157-.087.004-.163.37-.115.483 2.768 5.154-1.917 3.417-1.592 6.313-2.351-.699-3.229 1.343-4.159 3.306-2.461-1.418-1.974 1.441-2.284 3.141-.028.145.123.414.192.618.363 1.145 1.628 2.773.215 2.975-.383.063-1.202-1.355-1.844-1.814-.287-.212-.848.061-.97.446-.522 1.623 2.302 2.219 1.59 4.023.332.192.853.703.98.582 1.037-1.208 3.313.655 3.975-1.561.068-.216.587 2.267 1.019 3.79a.776.776 0 01.598.088c.021 1.697-.262 1.094-.598-.088-.45.1-.91.503-1.267.816l-.002.001c-.979.884-.364 3.289 1.098 4.499.446.377.931.804 1.377 1.013 1.762.783 1.433 2.023 1.205 3.287l-.009.05c-.057.316-.125.694-.059 1.046l.034.183c.311 1.674.319 1.72-.085 1.539-.308-.136-.633-.564-.905-.615-1.539-.177-3.201-.769-4.398.275-.266.213-.794-.062-1.198-.089.019-.375.064-.728.053-1.09-.118-1.449 1.112-2.541-.153-4.168-1.915-2.484-1.307 1.79-2.734 1.165-.53-.24-1.029.306-1.504.575-1.16.628-4.099.514-5.405-.163-.404-.194-.947-.296-1.189-.026-.578.613.381 3.071-1.055 2.716-1.563-.4-.945 1.636-1.034 2.641-.179 2.176.714.796 1.212 1.084.928.504 1.599 1.951 1.003 2.439-1.254 1.034-.86 1.833.581 3.119.147.137.318.998.2 1.182-.751 1.42-1.607 2.718-2.358 4.139-.085.136.227 1.036.456 1.238 1.86 1.808 2.034 2.134 1.694 3.512-.043.152-.088.338-.182.411-.514.386-1.525.65.157 1.666.606.376 1.569.499 1.784.04.285-.588-.009-1.863-.053-2.844-.023-.39-.032-.787-.055-1.177.265.287.594.514.795.861.325.595.572 1.257.833 1.912.965 2.389 2.225 3.419 3.464 2.557 1.163-.829 2.593-.405 4.036-.12.256.057.539.303.817.452-.112.281-.168.738-.364.821-.737.281-1.538.956-2.313.52-1.26-.697-1.333-.365-.681 1.123.629 1.433 1.079 2.574-.137 2.859-.103.011.091 1.261.356 1.715.229.369.859.634 1.158.54 1.178-.335 2.226-1.016 3.449-1.204.429-.082 1.191.826 1.818 1.292-.221.361-.379.828-.675 1.055-1.33.9-2.695 1.715-4.037 2.587-.169.106-.378.495-.417.445-2.317-2.713-2.975-.532-4.13.527-.665.617-2.24-.146-2.7.617-1.014 1.766-1.718 3.966-2.256 6.263-.322 1.337-1.609 1.919-.711 4.403.256.724.059 1.309.867 1.864.328.227.915 1.31.863 1.566-.219.993-.914 1.623-.934 2.665-.027 1.778-.766 1.093-1.643.833-.441-.112-.543 1.532-1.072 1.757-1.329.567-2.73 1.131-4.257.982-1.096-.1-1.941-.24-2.257 1.195-.113.448-.63 1.035-.723.942-2.386-2.583-2.093.992-3.111 1.493-1.272.575-2.033 2.6-3.385 2.609-1.383.023-2.007 1.156-3.076 1.578-1.398.53-2.776 1.15-4.15 1.736-1.253.534-2.459 1.181-3.772 1.575-1.226.389-3.255-1.146-3.507 1.528-1.486-1.433-1.883 1.403-3.378-.094-.671 2.32-2.626 2.253-3.998 3.305-2.569 1.929-6.048 1.178-8.962 2.087-.973.314-2.568-.539-3.81-1.443-1.366-.985-1.575 1.205-2.792.19-1.363 2.414-3.088 3.683-6.172 1.264-.244-.196-.624 1.467-1.08 1.361-1.267-.294-2.603-.957-3.906-1.669-1.357-.755-5.215-1.81-6.293-1.451-1.003.328-1.849.855-3.251-.047-.935-.602-2.196-.798-2.794-.276-.992.856-1.565 2.4-2.921 2.778-.284.088-1.458 1.855.665 3.151-.122.385-.162 1.002-.416 1.077-2.011.724-2.939 3.153-4.273 4.922-.296.393-.476 1.436-.714 1.338-.971-.52-3.361-.194-2.921 1.885l-3.421 1c-.687.35-.393 1.468-1.079 1.809-2.631 1.307-5.954 1.57-5.679.623-.471.068-1.279-.154-1.362.281-.343 1.413-.535 2.595-2.034.167-.28-.447-1.011-.403-1.517-.587-.465-.168-.917-.309-1.367-.484.272-.283.737-.448.792-.905.181-1.377-2.258-4.67-3.448-4.363-1.709.428-3.445-1.132-5.161-1.767-1.575-.596-3.064-.194-4.742-1.912-.946-.964-1.056-.384-1.422.473-.276.65-1.495.137-2.198.37-1.994.683-3.792-3.451-5.744-3.385-1.436-2.489-4.04-4.412-3.482-7.917.012-.139-.88-1.058-1.377-1.513-.47-.433-.992-.778-1.486-1.1-.847-.606-1.805-1.597-2.515-1.628-.984-.048-1.797.599-2.624 1.085-.124.086-.053.756.073 1.136.847 2.572.073 3.436-1.202 3.879-.208.055-.224.562-.351.85.413.09.817.118 1.24.271.268.086.54.303.814.487-.127.287-.189.646-.379.828-1.149.989-2.77-.553-4.137-.704-.474-.064-.846.361-1.271.576.403.361 1.103.83 1.139 1.081.089.795-.075 1.499-.128 2.255-.335-.325-.666-.683-1.004-.973-.376-.339-.801-.792-1.157-.873-.513-.115-.903.518-1.079-1.107-.193-1.751.374-5.027-2.502-3.734-.347.148-1.35-.658-1.772-1.311-1.297-2.081-2.707-3.713-4.341-4.95-.232-.168-.566-.993-.538-1.304.096-1.241-.398-1.897-1.26-2.663-1.281-1.121-2.606-1.59-3.855-3.558-.93-1.47-2.77-1.686-3.43-4.238-.066-.238-.645-.758-.781-.701-1.033.508-2.553-.545-2.795-1.742-.41-2.092-1.233-4.608-.204-6.213.436-.653.474-1.903.597-2.955.018-.208-.382-.77-.632-1.064-.067-.072-.42.146-.438.354-.145 1.628-.983.919-1.954.566-1.52-.552-1.286-3.853-2.886-3.671-1.92.185-1.791-2.403-2.562-3.708-.391-.666-.48-1.629-.684-2.442.47.6.922 1.241 1.41 1.8.105.121.5-.081.498-.213-.09-.795.899-1.45-.548-2.5-.383-.27-.953-2.027-.938-2.033 1.77-.955 2.067-1.848-.752-3.647-1.1-.698-1.037-2.725.054-3.39 1.076-.658 1.046-.646.086-2.603a8.638 8.638 0 01-.76-2.243c-.41-2.259-.297-4.341-1.446-6.784-.403-.862-.309-3.069.063-3.161 1.564-.266 1.323-2.297 1.742-3.743.206-.688 1.386-.891.417-2.078-.904-1.114-1.932-3.61-3.005-2.986-1.93 1.123-2.472-1.446-3.007-3.118-.453-1.441-.108-3.855-.524-4.244-1.582-1.493.038-2.716-1.11-3.861.364-.821.517-2.22 1.127-2.38.936-.232 2.182.303 3.298.661.127.046.565 1.326.489 1.692-.113.614-.539.996-.83 1.487.538.004 1.171.234 1.597.019.795-.439 1.478-1.097 2.161-1.755.336-.343.04-2.083-.496-3.088-.971-1.82-1.285-3.686-.478-4.597 1.428-1.675 3.319-2.681 3.454-6.006 3.245-1.683 3.974-6.294 4.956-10.647.14-.593.663-.916 1.131-1.115 1.486-.7 3.005-1.281 4.504-1.953.456-.228.84-.625 1.263-.972-.404-.528-1.163-1.305-1.153-1.576.065-1.06-.12-2.582 1.108-2.339.643.126 1.292.183 1.94.24-.403-.528-.834-1.078-1.189-1.66-.05-.078.189-.647.385-.73 1.078-.527 2.343-.7 2.257-2.996-.017-.626.494-1.144.92-1.36 1.017-.5 1.967-1.371 3.492-.221-.06-2.108 1.388-1.726 2.265-2.266.323-.204.758-.356 1.165-.197.802.292 1.966 1.43 2.358 1.095 1.3-1.054 2.576-2.331 3.358-4.098.566-1.308.392-1.467 1.526.316 2.093 3.275 4.285 2.808 6.359 2.69.57-.043 1.183.096 1.786.172-1.044-3.622.406-2.773 2.08-2.32 1.207.319 2.305-.582 3.28-1.265.294-.192-.02-1.558-.065-2.372.678.71 1.392 1.34 2.05 2.126 1.352 1.624 1.836.584 2.42-.265.969-1.413.8-4.908 3.645-2.92.097.058.378-.495.327-.573-1.567-3.132.99-1.822 1.131-3.083.09-.838-1.542-3.743.927-1.761.093.093.411-2.343.938-3.2.524-.824 1.685-.486 2.01-2.024.204-.987 1.542-.99 2.351-1.436.795-.438.847-.694.193-1.349-.467-.634-1.484-.967-1.496-.829-.194 2.183-1.955 1.4-2.853 2.183-.172.14-.531-.074-.83-.146-.01-.529-.188-1.32.009-1.57.977-1.35 2.072-2.55 3.112-3.794.762-.892-.327-1.06-.598-1.612-.27-.552-.323-1.596-.126-2.013.497-1.179.76.61 1.118.823.51.316 1.155.575 1.563.4 1.909-.713 3.773-1.574 5.673-2.35.619-.265 1.229-.592 1.893-.708.707-.101 1.648 1.731 1.679 3.018.017.626.166 1.73.396 1.932.524.476 1.527 1.949 1.542-.024-.005-.432.496-.679.843-.827 1.704-.693 3.2-1.997 5.495-.842.807-2.377 2.122-3.605 4.622-2.137-.042-3.782 2.846-.146 4.025-1.316 1.098-1.068 2.513-2.27 4.572-1.082.124.08.347.186.365.145.596-2.621 2.287-3.009 4.201-3.291 1.914-.283 3.612-1.24 5.268-2.213 1.103-.636 1.923-1.853 2.941-2.687.937-.733 1.919-1.151 2.669-2.404.942-1.602 2.974-2.068 4.767-2.132 1.02-.035 2.614 1.485 3.81 2.742 2.362 2.527 4.573 3.818 6.753 3.156.224-.062.291-.491.442-.722-.229-.203-.566-.659-.702-.6-1.613.653-1.369-.784-1.09-1.803.155-.6.612-.994 1.053-1.216 1.338-.67 2.715-1.29 4.138-1.764.957-.308 1.257-.902.508-2.617-.072-.169.415-.743.735-.913.151-.064.582.319.802.625.232.334.346.853.571 1.256.512.95 1.069 1.879 1.61 2.814.333-.642.775-1.197.976-1.982.285-1.089-.314-1.867-1.191-2.626-1.176-1-1.566-2.166-.433-2.649.694-.296 1.54-.323 2.36-.24.359.047.829.647 1.275 1.024-.248.339-.52.622-.756.989-.269.415-.526.858-.781 1.266.465.335.92.775 1.378 1.013.389.2 5.248-1.504 5.647-1.574.866-.102 1.934.309 2.65-.063.761-.391 1.12-1.644 1.857-2.091.308-.198 1.191.659 1.751 1.22.133.143.041 1.016.037 1.55-.003.202-.022.41-.079.568-.355 1.052-.792 2.038-1.026 3.204-.055.29 3.976 1.206 3.974.406-.03-3.42 2.151-.983 3.292-1.07.643-.04 2.232.882 1.676 2.886 1.816.826 2.788 4.446 4.68 4.74h.008c.782.13 1.123.187.895 1.28-.353 1.685-.357 4.187-1.279 4.746-1.072.624-1.36 3.047-3.404 1.852-.733-.421-1.679.249-2.202.905-.542.698-2.2 1.538.419 3.455.233.168.588.916.566 1.159-.301 3.229.591 3.982 2.437 2.995.075-.032.478.662.71.997-1.811 2.24 1.196 4.857 1.739 7.26.03.154.968.387 1.484.634 1.342.594 2.2 1.562 2.037 3.565-.065.728-.051 1.555.141 2.34.126.546.629 1.099.96 1.624 1.139-2.185 5.056 4.912 5.256-.44 1.187 1.194 2.063.82 2.827.228.345-.28.452-.992.67-1.485-.503-.386-1.094-1.101-1.459-1.079-1.494.137-3.03-.075-4.679-1.472-.365-.311-.689-1.073-.888-1.622-.081-.232.291-.824.331-.774 1.823 1.723 1.723-1.735 3.243-.85.289.178.585-.049.881-.108-.313-.567-.604-1.376-.933-1.603-.536-.338-1.092-.3-1.647-.43.369-.392.687-.86 1.095-1.2.326-.24.74-.316 1.299-.555z" fill="#FFE68E"/><g clip-path="url(#clip0)"><path d="M189.173 92.924l-69.391 68.334c-3.136 3.088-8.22 3.088-11.356 0l-40.833-40.212a7.822 7.822 0 010-11.183l69.39-68.335c3.136-3.088 8.22-3.088 11.356 0l40.834 40.213a7.824 7.824 0 010 11.183z" fill="#8CBAFA"/><path d="M189.173 81.74l-5.097-5.019c2.792 2.75 2.514 7.483-.621 10.571l-69.392 68.335c-3.135 3.088-7.94 3.362-10.733.612l5.096 5.019c3.136 3.088 8.22 3.088 11.356 0l69.391-68.335a7.824 7.824 0 000-11.182z" fill="#5692D8"/><path d="M135.849 57.103L129.05 63.8a6.666 6.666 0 000 9.532c2.673 2.632 7.006 2.632 9.68 0l6.799-6.696a6.667 6.667 0 000-9.532c-2.673-2.632-7.007-2.632-9.68 0zm59.876 56.002H97.592c-4.435 0-8.03 3.54-8.03 7.906v56.87c0 4.367 3.595 7.907 8.03 7.907h98.133c4.434 0 8.029-3.54 8.029-7.907v-56.87c0-4.366-3.595-7.906-8.029-7.906z" fill="#FFB600"/><path d="M195.725 113.105h-7.187c4.433 0 8.028 3.54 8.028 7.906v56.87c0 4.367-3.595 7.907-8.028 7.907h7.187c4.434 0 8.029-3.54 8.029-7.907v-56.87c0-4.366-3.595-7.906-8.029-7.906z" fill="#FFB600"/><path d="M89.562 130.969h114.192v13.662H89.562v-13.662z" fill="#575B7A"/><path d="M196.566 130.969h7.188v13.662h-7.188v-13.662z" fill="#252D4C"/><path d="M175.688 166.461v8.427c0 .652.536 1.179 1.198 1.179h13.61c.662 0 1.198-.527 1.198-1.179v-8.427c0-.652-.536-1.179-1.198-1.179h-13.61c-.662 0-1.198.527-1.198 1.179zm-41.034 0v8.427c0 .652.537 1.179 1.198 1.179h28.786c.662 0 1.198-.527 1.198-1.179v-8.427c0-.652-.536-1.179-1.198-1.179h-28.786c-.661 0-1.198.527-1.198 1.179z" fill="#E9E9EA"/><path d="M69.181 119.482a5.64 5.64 0 010-8.055l55.04-54.202a2.186 2.186 0 000-3.128 2.269 2.269 0 00-3.176 0L66.005 108.3a10.023 10.023 0 000 14.31l13.863 13.652a2.257 2.257 0 001.587.647c.576 0 1.15-.215 1.589-.647a2.188 2.188 0 000-3.128l-13.863-13.652z" fill="#000"/><path d="M113.336 81.05l-33.989 33.472a2.189 2.189 0 000 3.129 2.26 2.26 0 001.589.647c.574 0 1.149-.215 1.587-.647l33.989-33.471a2.19 2.19 0 000-3.13 2.272 2.272 0 00-3.176 0zm20.554-3.536a9.133 9.133 0 006.428-2.617l6.799-6.696a8.866 8.866 0 000-12.661c-3.544-3.49-9.312-3.49-12.856 0l-6.799 6.696a8.822 8.822 0 00-2.663 6.33c0 2.39.945 4.64 2.663 6.33a9.133 9.133 0 006.428 2.618zm-3.252-12.15l6.799-6.696c1.793-1.766 4.711-1.766 6.503 0a4.485 4.485 0 010 6.404l-6.799 6.695c-1.792 1.767-4.71 1.767-6.503 0a4.464 4.464 0 01-1.347-3.201c0-1.21.479-2.348 1.347-3.203z" fill="#000"/><path d="M195.724 110.893h-21.621l16.659-16.405a10.024 10.024 0 000-14.312l-40.835-40.212A10.29 10.29 0 00142.661 37a10.295 10.295 0 00-7.267 2.964l-8.001 7.88a2.188 2.188 0 000 3.128 2.27 2.27 0 003.176 0l8.003-7.88a5.786 5.786 0 014.089-1.668 5.79 5.79 0 014.09 1.668l40.833 40.212a5.64 5.64 0 010 8.055l-19.834 19.533h-56.762l16.326-16.078a2.186 2.186 0 000-3.128 2.27 2.27 0 00-3.176 0l-19.502 19.207h-7.044c-5.666 0-10.276 4.539-10.276 10.118v56.869c0 5.58 4.61 10.12 10.276 10.12h98.132c5.667 0 10.276-4.54 10.276-10.12v-8.174c0-1.223-1.005-2.212-2.246-2.212-1.24 0-2.246.989-2.246 2.212v8.174c0 3.141-2.594 5.696-5.784 5.696H97.592c-3.189 0-5.784-2.555-5.784-5.696v-31.037h109.7v14.015c0 1.221 1.005 2.212 2.246 2.212s2.246-.991 2.246-2.212v-39.846c0-5.58-4.609-10.119-10.276-10.119zm-98.132 4.424h98.132c3.189 0 5.784 2.555 5.784 5.695v7.747h-109.7v-7.747c0-3.14 2.595-5.695 5.784-5.695zm-5.784 27.103v-9.237h109.7v9.237h-109.7z" fill="#000"/><path d="M176.886 163.07c-1.898 0-3.444 1.522-3.444 3.391v8.426c0 1.871 1.546 3.392 3.444 3.392h13.61c1.899 0 3.444-1.521 3.444-3.392v-8.426c0-1.869-1.545-3.391-3.444-3.391h-13.61zm12.562 10.785h-11.514v-6.361h11.514v6.361zm-53.596-10.785c-1.899 0-3.444 1.522-3.444 3.391v8.426c0 1.871 1.545 3.392 3.444 3.392h28.786c1.899 0 3.444-1.521 3.444-3.392v-8.426c0-1.869-1.545-3.391-3.444-3.391h-28.786zm27.738 10.785H136.9v-6.361h26.69v6.361zm-55.012 0c-1.24 0-2.246.991-2.246 2.212 0 1.223 1.006 2.212 2.246 2.212h14.342c1.24 0 2.246-.989 2.246-2.212 0-1.221-1.006-2.212-2.246-2.212h-14.342z" fill="#000"/></g><defs><clipPath id="clip0"><path fill="#fff" transform="translate(63 37)" d="M0 0h143v151H0z"/></clipPath></defs></svg>