<svg width="263" height="242" viewBox="0 0 263 242" fill="none" xmlns="http://www.w3.org/2000/svg">
<path d="M203.149 56.7645C204.26 56.5241 205.343 54.6287 207.137 57.998L207.137 57.9978C208.146 57.6012 209.154 57.2045 210.175 56.8361C211.483 56.3453 215.107 56.9339 216.379 57.8251C218.73 59.4895 218.646 59.4589 219.412 63.4327C219.732 65.063 220.481 66.7774 221 68.4562C221.315 69.4886 222.022 71.1876 221.81 71.4446C221.293 72.0317 220.622 72.3843 221.48 73.6853C222.79 75.6272 222.143 72.6027 222.553 73.0614C223.165 73.7543 223.671 74.8498 224.129 75.8421L224.148 75.8818C224.671 77.0255 226.818 74.7769 226.217 78.4333C226.129 78.9377 227.774 80.7033 228.517 81.9866C229.402 83.4762 229.628 85.3466 231.15 86.5312C231.762 87.0037 230.858 89.8227 229.696 89.6512C227.575 89.3221 227.406 92.5275 225.652 92.8085C225.565 92.8125 225.489 93.1783 225.537 93.2911C228.305 98.445 223.62 96.7083 223.945 99.6037C221.594 98.9054 220.716 100.947 219.786 102.91C217.325 101.492 217.812 104.351 217.502 106.051C217.474 106.196 217.625 106.465 217.694 106.669C218.057 107.814 219.322 109.442 217.909 109.644C217.526 109.707 216.707 108.289 216.065 107.83C215.778 107.618 215.217 107.891 215.095 108.276C214.573 109.899 217.397 110.495 216.685 112.299C217.017 112.491 217.538 113.002 217.665 112.881C218.702 111.673 220.978 113.536 221.64 111.32C221.708 111.104 222.227 113.587 222.659 115.11C222.864 115.064 223.067 115.081 223.257 115.198C223.278 116.895 222.995 116.292 222.659 115.11C222.209 115.21 221.749 115.613 221.392 115.926L221.39 115.927C220.411 116.811 221.026 119.216 222.488 120.426C222.934 120.803 223.419 121.23 223.865 121.439C225.627 122.222 225.298 123.462 225.07 124.726L225.061 124.776C225.004 125.092 224.936 125.47 225.002 125.822L225.036 126.005C225.347 127.679 225.355 127.725 224.951 127.544C224.643 127.408 224.318 126.98 224.046 126.929C222.507 126.752 220.845 126.16 219.648 127.204C219.382 127.417 218.854 127.142 218.45 127.115C218.469 126.74 218.514 126.387 218.503 126.025C218.385 124.576 219.615 123.484 218.35 121.857C216.435 119.373 217.043 123.647 215.616 123.022C215.086 122.782 214.587 123.328 214.112 123.597C212.952 124.225 210.013 124.111 208.707 123.434C208.303 123.24 207.76 123.138 207.518 123.408C206.94 124.021 207.899 126.479 206.463 126.124C204.9 125.724 205.518 127.76 205.429 128.765C205.25 130.941 206.143 129.561 206.641 129.849C207.569 130.353 208.24 131.8 207.644 132.288C206.39 133.322 206.784 134.121 208.225 135.407C208.372 135.544 208.543 136.405 208.425 136.589C207.674 138.009 206.818 139.307 206.067 140.728C205.982 140.864 206.294 141.764 206.523 141.966C208.383 143.774 208.557 144.1 208.217 145.478C208.174 145.63 208.129 145.816 208.035 145.889C207.521 146.275 206.51 146.539 208.192 147.555C208.798 147.931 209.761 148.054 209.976 147.595C210.261 147.007 209.967 145.732 209.923 144.751C209.9 144.361 209.891 143.964 209.868 143.574C210.133 143.861 210.462 144.088 210.663 144.435C210.988 145.03 211.235 145.692 211.496 146.347C212.461 148.736 213.721 149.766 214.96 148.904C216.123 148.075 217.553 148.499 218.996 148.784C219.252 148.841 219.535 149.087 219.813 149.236C219.701 149.517 219.645 149.974 219.449 150.057C218.712 150.338 217.911 151.013 217.136 150.577C215.876 149.88 215.803 150.212 216.455 151.7C217.084 153.133 217.534 154.274 216.318 154.559C216.215 154.57 216.409 155.82 216.674 156.274C216.903 156.643 217.533 156.908 217.832 156.814C219.01 156.479 220.058 155.798 221.281 155.61C221.71 155.528 222.472 156.436 223.099 156.902C222.878 157.263 222.72 157.73 222.424 157.957C221.094 158.857 219.729 159.672 218.387 160.544C218.218 160.65 218.009 161.039 217.97 160.989C215.653 158.276 214.995 160.457 213.84 161.516C213.175 162.133 211.6 161.37 211.14 162.133C210.126 163.899 209.422 166.099 208.884 168.396C208.562 169.733 207.275 170.315 208.173 172.799C208.429 173.523 208.232 174.108 209.04 174.663C209.368 174.89 209.955 175.973 209.903 176.229C209.684 177.222 208.989 177.852 208.969 178.894C208.942 180.672 208.203 179.987 207.326 179.727C206.885 179.615 206.783 181.259 206.254 181.484C204.925 182.051 203.524 182.615 201.997 182.466C200.901 182.366 200.056 182.226 199.74 183.661C199.627 184.109 199.11 184.696 199.017 184.603C196.631 182.02 196.924 185.595 195.906 186.096C194.634 186.671 193.873 188.696 192.521 188.705C191.138 188.728 190.514 189.861 189.445 190.283C188.047 190.813 186.669 191.433 185.295 192.019C184.042 192.553 182.836 193.2 181.523 193.594C180.297 193.983 178.268 192.448 178.016 195.122C176.53 193.689 176.133 196.525 174.638 195.028C173.967 197.348 172.012 197.281 170.64 198.333C168.071 200.262 164.592 199.511 161.678 200.42C160.705 200.734 159.11 199.881 157.868 198.977C156.502 197.992 156.293 200.182 155.076 199.167C153.713 201.581 151.988 202.85 148.904 200.431C148.66 200.235 148.28 201.898 147.824 201.792C146.557 201.498 145.221 200.835 143.918 200.123C142.561 199.368 138.703 198.313 137.625 198.672C136.622 199 135.776 199.527 134.374 198.625C133.439 198.023 132.178 197.827 131.58 198.349C130.588 199.205 130.015 200.749 128.659 201.127C128.375 201.215 127.201 202.982 129.324 204.278C129.202 204.663 129.162 205.28 128.908 205.355C126.897 206.079 125.969 208.508 124.635 210.277C124.339 210.67 124.159 211.713 123.921 211.615C122.95 211.095 120.56 211.421 121 213.5L117.579 214.5C116.892 214.85 117.186 215.968 116.5 216.309C113.869 217.616 110.546 217.879 110.821 216.932C110.35 217 109.542 216.778 109.459 217.213C109.116 218.626 108.924 219.808 107.425 217.38C107.145 216.933 106.414 216.977 105.908 216.793C105.443 216.625 104.991 216.484 104.541 216.309C104.813 216.026 105.278 215.861 105.333 215.404C105.514 214.027 103.075 210.734 101.885 211.041C100.176 211.469 98.4399 209.909 96.7236 209.274C95.149 208.678 93.6603 209.08 91.982 207.362C91.0359 206.398 90.9263 206.978 90.5596 207.835C90.2838 208.485 89.0653 207.972 88.3616 208.205C86.3684 208.888 84.5704 204.754 82.6175 204.82C81.182 202.331 78.5774 200.408 79.1357 196.903C79.148 196.764 78.2562 195.845 77.7589 195.39C77.2888 194.957 76.7672 194.612 76.2727 194.29C75.4256 193.684 74.4675 192.693 73.7582 192.662C72.7743 192.614 71.9613 193.261 71.1335 193.747C71.0096 193.833 71.0809 194.503 71.207 194.883C72.0538 197.455 71.2796 198.319 70.0052 198.762C69.7968 198.817 69.7809 199.324 69.6536 199.612C70.067 199.702 70.4714 199.73 70.8937 199.883C71.1621 199.969 71.4334 200.186 71.7078 200.37C71.5805 200.657 71.5195 201.016 71.3291 201.198C70.1804 202.187 68.5592 200.645 67.1922 200.494C66.7184 200.43 66.3464 200.855 65.9205 201.07C66.3243 201.431 67.0238 201.9 67.0596 202.151C67.1488 202.946 66.9846 203.65 66.932 204.406C66.5975 204.081 66.2661 203.723 65.9285 203.433C65.5518 203.094 65.127 202.641 64.771 202.56C64.2581 202.445 63.8676 203.078 63.6923 201.453C63.4991 199.702 64.0661 196.426 61.1904 197.719C60.8431 197.867 59.8393 197.061 59.4179 196.408C58.1205 194.327 56.7107 192.695 55.0769 191.458C54.8448 191.29 54.5111 190.465 54.5388 190.154C54.6345 188.913 54.1406 188.257 53.2787 187.491C51.9978 186.37 50.6735 185.901 49.4243 183.933C48.4941 182.463 46.6533 182.247 45.9936 179.695C45.9276 179.457 45.349 178.937 45.213 178.994C44.1799 179.502 42.6605 178.449 42.418 177.252C42.0081 175.16 41.1853 172.644 42.2142 171.039C42.65 170.386 42.6883 169.136 42.8109 168.084C42.8293 167.876 42.4288 167.314 42.1788 167.02C42.1125 166.948 41.759 167.166 41.7406 167.374C41.5959 169.002 40.758 168.293 39.7867 167.94C38.2664 167.388 38.5014 164.087 36.9014 164.269C34.9815 164.454 35.1096 161.866 34.3391 160.561C33.9479 159.895 33.859 158.932 33.6551 158.119C34.1249 158.719 34.5766 159.36 35.0646 159.919C35.17 160.04 35.5658 159.838 35.563 159.706C35.4738 158.911 36.4619 158.256 35.0149 157.206C34.632 156.936 34.0615 155.179 34.0766 155.173C35.847 154.218 36.1443 153.325 33.3252 151.526C32.2247 150.828 32.2885 148.801 33.3792 148.136C34.4549 147.478 34.4247 147.49 33.4652 145.533C33.1192 144.847 32.8309 144.003 32.7053 143.29C32.2957 141.031 32.4078 138.949 31.259 136.506C30.856 135.644 30.9503 133.437 31.3217 133.345C32.8856 133.079 32.6446 131.048 33.0636 129.602C33.27 128.914 34.4505 128.711 33.4806 127.524C32.577 126.41 31.549 123.914 30.4764 124.538C28.5458 125.661 28.0038 123.092 27.4694 121.42C27.0161 119.979 27.3613 117.565 26.9454 117.176C25.3633 115.683 26.9832 114.46 25.8352 113.315C26.1988 112.494 26.352 111.095 26.962 110.935C27.8981 110.703 29.1437 111.238 30.2599 111.596C30.3866 111.642 30.8251 112.922 30.749 113.288C30.6363 113.902 30.2101 114.284 29.9195 114.775C30.4567 114.779 31.0902 115.009 31.5161 114.794C32.3107 114.355 32.994 113.697 33.6772 113.039C34.0128 112.696 33.717 110.956 33.1814 109.951C32.2096 108.131 31.8958 106.265 32.7033 105.354C34.1308 103.679 36.0219 102.673 36.1574 99.3478C39.4019 97.6647 40.1311 93.0535 41.1134 88.7011C41.2532 88.1081 41.7759 87.7853 42.2441 87.5857C43.7303 86.8855 45.2495 86.3046 46.7477 85.6326C47.2039 85.4048 47.5879 85.0077 48.011 84.6607C47.6075 84.1326 46.8482 83.3562 46.8577 83.0855C46.9229 82.0243 46.7383 80.5028 47.9664 80.7461C48.6091 80.8721 49.2579 80.9289 49.9067 80.9857C49.5032 80.4576 49.0725 79.9078 48.7173 79.3258C48.6661 79.2477 48.9056 78.6789 49.1019 78.5952C50.1803 78.0688 51.4453 77.8963 51.3586 75.5997C51.3416 74.9736 51.8526 74.4557 52.2785 74.2408C53.2965 73.7402 54.2458 72.8688 55.7711 74.0188C55.7113 71.9107 57.1594 72.2935 58.0356 71.7533C58.3589 71.5488 58.7938 71.3968 59.201 71.5565C60.0034 71.8479 61.1666 72.9855 61.5595 72.6513C62.8592 71.5973 64.1351 70.32 64.9168 68.5533C65.4834 67.245 65.3086 67.0861 66.4435 68.8692C68.5357 72.1444 70.7278 71.6766 72.8016 71.5593C73.3721 71.5161 73.9846 71.6551 74.5881 71.7311C73.5439 68.1093 74.9943 68.9578 76.6687 69.4108C77.8754 69.7298 78.9726 68.8287 79.9487 68.1459C80.2418 67.9543 79.9272 66.5883 79.8833 65.7736C80.5612 66.4847 81.2755 67.1136 81.9321 67.9004C83.2846 69.5241 83.7693 68.4841 84.3533 67.6351C85.3215 66.2222 85.1524 62.7274 87.9983 64.7145C88.0948 64.7733 88.3765 64.2199 88.3253 64.1417C86.7581 61.0095 89.3154 62.3196 89.4563 61.0594C89.5453 60.2214 87.9143 57.3163 90.3829 59.2976C90.4763 59.3911 90.7944 56.9554 91.321 56.0975C91.8446 55.2742 93.0061 55.6125 93.3316 54.0736C93.5355 53.0866 94.8727 53.0833 95.6823 52.6382C96.4769 52.1995 96.5286 51.9441 95.8748 51.2894C95.408 50.6549 94.3914 50.3216 94.3791 50.4602C94.1852 52.643 92.4239 51.8604 91.5261 52.6431C91.3538 52.7832 90.995 52.5695 90.6963 52.4968C90.6851 51.9682 90.5084 51.1768 90.705 50.9263C91.6822 49.5763 92.7769 48.3763 93.8173 47.1327C94.5794 46.2411 93.4901 46.0721 93.2194 45.5208C92.9487 44.9694 92.8961 43.9251 93.093 43.5078C93.59 42.3292 93.8526 44.1174 94.2114 44.3311C94.7209 44.6473 95.3664 44.9055 95.7742 44.7317C97.683 44.018 99.5468 43.1568 101.447 42.3803C102.066 42.1164 102.676 41.7895 103.34 41.6731C104.047 41.5719 104.988 43.4041 105.019 44.6909C105.036 45.3171 105.185 46.4203 105.415 46.6227C105.939 47.0992 106.942 48.572 106.957 46.5986C106.952 46.1674 107.453 45.9203 107.8 45.7723C109.504 45.0794 111 43.7749 113.295 44.9301C114.102 42.5526 115.417 41.3253 117.917 42.7932C117.875 39.0108 120.763 42.6466 121.942 41.4772C123.04 40.4093 124.455 39.2062 126.514 40.3952C126.638 40.4758 126.861 40.5807 126.879 40.5396C127.475 37.9187 129.166 37.5312 131.08 37.2486C132.994 36.9661 134.692 36.0089 136.348 35.0364C137.451 34.3997 138.271 33.1834 139.289 32.3491C140.226 31.6164 141.208 31.1979 141.958 29.9445C142.9 28.3431 144.932 27.8768 146.725 27.8126C147.745 27.7777 149.339 29.2983 150.535 30.5553C152.897 33.082 155.108 34.3733 157.288 33.7105C157.512 33.6486 157.579 33.22 157.73 32.9888C157.501 32.7864 157.164 32.3301 157.028 32.3881C155.415 33.0423 155.659 31.6049 155.938 30.5857C156.093 29.9862 156.55 29.5917 156.991 29.3703C158.329 28.6998 159.706 28.0793 161.129 27.6063C162.086 27.2982 162.386 26.7037 161.637 24.9893C161.565 24.8201 162.052 24.2458 162.372 24.076C162.523 24.0116 162.954 24.3946 163.174 24.7009C163.406 25.0355 163.52 25.5537 163.745 25.9575C164.257 26.9062 164.814 27.8356 165.355 28.7714C165.688 28.1294 166.13 27.5745 166.331 26.7889C166.616 25.7004 166.017 24.9225 165.14 24.1629C163.964 23.1639 163.574 21.9969 164.707 21.514C165.401 21.2179 166.247 21.191 167.067 21.2744C167.426 21.3213 167.896 21.9211 168.342 22.2977C168.094 22.6368 167.822 22.9195 167.586 23.2868C167.317 23.7016 167.06 24.1447 166.805 24.5531C167.27 24.8885 167.725 25.328 168.183 25.5659C168.572 25.7668 173.431 24.062 173.83 23.9921C174.696 23.8895 175.764 24.301 176.48 23.9292C177.241 23.538 177.6 22.2852 178.337 21.8375C178.645 21.6395 179.528 22.4965 180.088 23.0577C180.221 23.2012 180.129 24.0738 180.125 24.6089C180.122 24.8103 180.103 25.0182 180.046 25.1761C179.691 26.2275 179.254 27.2136 179.02 28.3802C178.965 28.6703 182.996 29.5855 182.994 28.7862C182.964 25.3655 185.145 27.8027 186.286 27.7163C186.929 27.6755 188.518 28.5983 187.962 30.602C189.778 31.4282 190.75 35.0476 192.642 35.3411L192.65 35.3425C193.432 35.4725 193.773 35.5292 193.545 36.6229C193.192 38.3068 193.188 40.8088 192.266 41.3683C191.194 41.9922 190.906 44.4151 188.862 43.2198C188.129 42.7987 187.183 43.4686 186.66 44.1251C186.118 44.8226 184.46 45.6629 187.079 47.5798C187.312 47.7475 187.667 48.4963 187.645 48.7388C187.344 51.9675 188.236 52.7206 190.082 51.7338C190.157 51.7016 190.56 52.3964 190.792 52.7309C188.981 54.9701 191.988 57.5882 192.531 59.9906C192.561 60.1445 193.499 60.3779 194.015 60.6248C195.357 61.2194 196.215 62.1868 196.052 64.19C195.987 64.9176 196.001 65.7452 196.193 66.5301C196.319 67.0765 196.822 67.6288 197.153 68.1543C198.292 65.9688 202.209 73.0661 202.409 67.7141C203.596 68.9081 204.472 68.5348 205.236 67.9421C205.581 67.6619 205.688 66.9496 205.906 66.4566C205.403 66.0711 204.812 65.356 204.447 65.3784C202.953 65.5154 201.417 65.3034 199.768 63.906C199.403 63.5948 199.079 62.8331 198.88 62.2842C198.799 62.0521 199.171 61.4601 199.211 61.51C201.034 63.2331 200.934 59.7753 202.454 60.6609C202.743 60.8376 203.039 60.6113 203.335 60.5518C203.022 59.9852 202.731 59.176 202.402 58.9494C201.866 58.6114 201.31 58.6482 200.755 58.5182C201.124 58.1275 201.442 57.6587 201.85 57.3181C202.176 57.079 202.59 57.0027 203.149 56.7645Z" fill="#FFE68E"/>
<g clip-path="url(#clip0)">
<path d="M189.173 92.9235L119.782 161.258C116.646 164.346 111.562 164.346 108.426 161.258L67.5928 121.046C64.4564 117.957 64.4564 112.951 67.5928 109.863L136.983 41.5276C140.119 38.4401 145.203 38.4401 148.339 41.5276L189.173 81.7406C192.308 84.8281 192.308 89.8349 189.173 92.9235V92.9235Z" fill="#8CBAFA"/>
<path d="M189.173 81.7406L184.076 76.7212C186.868 79.4711 186.59 84.2037 183.455 87.2923L114.063 155.627C110.928 158.715 106.123 158.989 103.33 156.239L108.426 161.258C111.562 164.346 116.646 164.346 119.782 161.258L189.173 92.9235C192.308 89.8348 192.308 84.8281 189.173 81.7406V81.7406Z" fill="#5692D8"/>
<path d="M135.849 57.1032L129.05 63.7988C126.376 66.4312 126.376 70.6984 129.05 73.3308C131.723 75.9632 136.056 75.9632 138.73 73.3308L145.529 66.6351C148.202 64.0027 148.202 59.7356 145.529 57.1032C142.856 54.4707 138.522 54.4707 135.849 57.1032V57.1032Z" fill="#FFB600"/>
<path d="M195.725 113.105H97.5922C93.1573 113.105 89.5624 116.645 89.5624 121.011V177.881C89.5624 182.248 93.1573 185.788 97.5922 185.788H195.725C200.159 185.788 203.754 182.248 203.754 177.881V121.011C203.754 116.645 200.159 113.105 195.725 113.105V113.105Z" fill="#FFB600"/>
<path d="M195.725 113.105H188.538C192.971 113.105 196.566 116.645 196.566 121.011V177.881C196.566 182.248 192.971 185.788 188.538 185.788H195.725C200.159 185.788 203.754 182.248 203.754 177.881V121.011C203.754 116.645 200.159 113.105 195.725 113.105V113.105Z" fill="#FFB600"/>
<path d="M89.5624 130.969H203.754V144.631H89.5624V130.969Z" fill="#575B7A"/>
<path d="M196.566 130.969H203.754V144.631H196.566V130.969Z" fill="#252D4C"/>
<path d="M175.688 166.461V174.888C175.688 175.54 176.224 176.067 176.886 176.067H190.496C191.158 176.067 191.694 175.54 191.694 174.888V166.461C191.694 165.809 191.158 165.282 190.496 165.282H176.886C176.224 165.282 175.688 165.809 175.688 166.461Z" fill="#E9E9EA"/>
<path d="M134.654 166.461V174.888C134.654 175.54 135.191 176.067 135.852 176.067H164.638C165.3 176.067 165.836 175.54 165.836 174.888V166.461C165.836 165.809 165.3 165.282 164.638 165.282H135.852C135.191 165.282 134.654 165.809 134.654 166.461Z" fill="#E9E9EA"/>
<path d="M69.1814 119.482C66.926 117.261 66.926 113.647 69.1814 111.427L124.221 57.2251C125.099 56.3611 125.099 54.9602 124.221 54.0973C123.344 53.2321 121.921 53.2333 121.045 54.0973L66.0041 108.3C61.9986 112.244 61.9986 118.664 66.0041 122.61L79.8679 136.262C80.3054 136.693 80.881 136.909 81.4554 136.909C82.0309 136.909 82.6053 136.694 83.044 136.262C83.9214 135.398 83.9214 133.997 83.044 133.134L69.1814 119.482Z" fill="black"/>
<path d="M113.336 81.0505L79.3473 114.522C78.47 115.386 78.47 116.787 79.3473 117.651C79.786 118.082 80.3604 118.298 80.936 118.298C81.5104 118.298 82.0848 118.083 82.5234 117.651L116.512 84.1795C117.389 83.3154 117.389 81.9146 116.512 81.0505C115.636 80.1877 114.213 80.1877 113.336 81.0505V81.0505Z" fill="black"/>
<path d="M133.89 77.5139C136.218 77.5139 138.546 76.6418 140.318 74.8965L147.117 68.2008C150.662 64.7101 150.662 59.0306 147.117 55.5399C143.573 52.0492 137.805 52.0492 134.261 55.5399L127.462 62.2356C125.744 63.9268 124.799 66.1744 124.799 68.566C124.799 70.9565 125.744 73.2053 127.462 74.8965C129.234 76.6418 131.562 77.5139 133.89 77.5139V77.5139ZM130.638 65.3633L137.437 58.6677C139.23 56.9016 142.148 56.9016 143.94 58.6677C145.733 60.4338 145.733 63.307 143.94 65.0719L137.141 71.7675C135.349 73.5336 132.431 73.5336 130.638 71.7675C129.77 70.9127 129.291 69.7757 129.291 68.566C129.291 67.3564 129.77 66.2182 130.638 65.3633V65.3633Z" fill="black"/>
<path d="M195.724 110.893H174.103L190.762 94.4879C194.768 90.5421 194.768 84.1218 190.762 80.1761L149.927 39.9642C147.986 38.053 145.406 37 142.661 37C139.917 37 137.336 38.053 135.394 39.9642L127.393 47.8441C126.516 48.7082 126.516 50.1079 127.393 50.9719C128.27 51.836 129.693 51.836 130.569 50.9719L138.572 43.092C139.663 42.016 141.116 41.4238 142.661 41.4238C144.206 41.4238 145.659 42.016 146.751 43.092L187.584 83.3039C189.84 85.525 189.84 89.1378 187.584 91.3589L167.75 110.892H110.988L127.314 94.8139C128.192 93.951 128.192 92.5501 127.314 91.6861C126.437 90.8221 125.014 90.8221 124.138 91.6861L104.636 110.893H97.5922C91.9255 110.893 87.3163 115.432 87.3163 121.011V177.88C87.3163 183.46 91.9255 188 97.5922 188H195.724C201.391 188 206 183.46 206 177.88V169.706C206 168.483 204.995 167.494 203.754 167.494C202.514 167.494 201.508 168.483 201.508 169.706V177.88C201.508 181.021 198.914 183.576 195.724 183.576H97.5922C94.4032 183.576 91.8085 181.021 91.8085 177.88V146.843H201.508V160.858C201.508 162.079 202.513 163.07 203.754 163.07C204.995 163.07 206 162.079 206 160.858V121.012C206 115.432 201.391 110.893 195.724 110.893V110.893ZM97.5922 115.317H195.724C198.913 115.317 201.508 117.872 201.508 121.012V128.759H91.8085V121.012C91.8085 117.872 94.4032 115.317 97.5922 115.317ZM91.8085 142.42V133.183H201.508V142.42H91.8085Z" fill="black"/>
<path d="M176.886 163.07C174.988 163.07 173.442 164.592 173.442 166.461V174.887C173.442 176.758 174.988 178.279 176.886 178.279H190.496C192.395 178.279 193.94 176.758 193.94 174.887V166.461C193.94 164.592 192.395 163.07 190.496 163.07H176.886ZM189.448 173.855H177.934V167.494H189.448V173.855Z" fill="black"/>
<path d="M135.852 163.07C133.953 163.07 132.408 164.592 132.408 166.461V174.887C132.408 176.758 133.953 178.279 135.852 178.279H164.638C166.537 178.279 168.082 176.758 168.082 174.887V166.461C168.082 164.592 166.537 163.07 164.638 163.07H135.852ZM163.59 173.855H136.9V167.494H163.59V173.855Z" fill="black"/>
<path d="M108.578 173.855C107.338 173.855 106.332 174.846 106.332 176.067C106.332 177.29 107.338 178.279 108.578 178.279H122.92C124.16 178.279 125.166 177.29 125.166 176.067C125.166 174.846 124.16 173.855 122.92 173.855H108.578Z" fill="black"/>
</g>
<defs>
<clipPath id="clip0">
<rect width="143" height="151" fill="white" transform="translate(63 37)"/>
</clipPath>
</defs>
</svg>
