<svg width="12" height="12" viewBox="0 0 12 12" fill="none" xmlns="http://www.w3.org/2000/svg">
<path d="M6 12C9.31371 12 12 9.31371 12 6C12 2.68629 9.31371 0 6 0C2.68629 0 0 2.68629 0 6C0 9.31371 2.68629 12 6 12Z" fill="#FFB600"/>
<path d="M5.53847 9.2308C7.57767 9.2308 9.23077 7.5777 9.23077 5.5385C9.23077 3.49929 7.57767 1.84619 5.53847 1.84619C3.49926 1.84619 1.84616 3.49929 1.84616 5.5385C1.84616 7.5777 3.49926 9.2308 5.53847 9.2308Z" fill="#FFB600"/>
<path d="M6.00001 10.1539C8.29046 10.1539 10.1539 8.2905 10.1539 5.99999C10.1539 3.70957 8.29046 1.84619 6.00001 1.84619C3.70956 1.84619 1.84616 3.70957 1.84616 5.99999C1.84616 8.2905 3.70956 10.1539 6.00001 10.1539ZM6.00001 3.11273C7.59213 3.11273 8.88739 4.40798 8.88739 6.00008C8.88739 7.59218 7.59213 8.88751 6.00001 8.88751C4.40789 8.88751 3.11263 7.59226 3.11263 6.00008C3.11263 4.40798 4.40789 3.11273 6.00001 3.11273Z" fill="black"/>
</svg>
