<svg width="262" height="242" fill="none" xmlns="http://www.w3.org/2000/svg"><path d="M202.251 56.69c1.111-.24 2.195-2.135 3.988 1.234h.001c1.008-.396 2.017-.793 3.038-1.161 1.307-.491 4.931.097 6.204.989 2.351 1.664 2.267 1.633 3.032 5.607.321 1.63 1.069 3.345 1.589 5.024.315 1.032 1.021 2.731.81 2.988-.518.587-1.188.94-.33 2.24 1.309 1.943.663-1.082 1.072-.623.613.693 1.119 1.788 1.577 2.78l.018.04c.523 1.144 2.67-1.105 2.07 2.552-.089.504 1.556 2.27 2.299 3.553.885 1.49 1.112 3.36 2.634 4.545.612.472-.293 3.291-1.454 3.12-2.122-.33-2.29 2.876-4.044 3.157-.088.004-.164.37-.116.483 2.768 5.153-1.916 3.417-1.592 6.312-2.35-.698-3.229 1.343-4.159 3.306-2.46-1.418-1.973 1.442-2.284 3.141-.027.145.123.414.192.618.363 1.145 1.628 2.773.215 2.975-.383.064-1.202-1.354-1.844-1.814-.286-.211-.848.062-.969.447-.522 1.623 2.302 2.219 1.59 4.023.331.192.853.703.98.582 1.037-1.209 3.313.654 3.974-1.561.069-.217.587 2.267 1.019 3.789a.777.777 0 01.599.088c.02 1.697-.263 1.095-.599-.088-.449.101-.91.504-1.266.816l-.002.001c-.979.885-.365 3.29 1.097 4.5.446.376.931.803 1.378 1.013 1.761.782 1.433 2.022 1.205 3.287l-.009.05c-.057.315-.125.694-.06 1.045l.034.184c.311 1.673.32 1.72-.085 1.538-.308-.135-.633-.563-.904-.614-1.539-.178-3.202-.769-4.399.275-.266.213-.793-.062-1.198-.09.019-.374.065-.727.053-1.089-.118-1.45 1.112-2.541-.152-4.169-1.916-2.483-1.307 1.791-2.734 1.166-.531-.241-1.03.305-1.504.574-1.16.628-4.1.514-5.406-.162-.404-.195-.947-.297-1.189-.027-.577.613.381 3.071-1.055 2.717-1.563-.401-.944 1.636-1.034 2.64-.178 2.177.714.796 1.212 1.084.929.504 1.599 1.952 1.004 2.439-1.254 1.035-.86 1.834.58 3.12.148.137.319.997.201 1.181-.751 1.42-1.608 2.719-2.359 4.139-.085.136.228 1.036.457 1.239 1.859 1.807 2.034 2.133 1.693 3.512-.042.151-.088.337-.182.41-.513.386-1.525.651.158 1.667.606.375 1.568.498 1.783.04.285-.588-.009-1.863-.052-2.845-.024-.39-.032-.786-.056-1.176.266.287.594.513.796.861.325.595.571 1.256.833 1.911.965 2.389 2.224 3.419 3.463 2.558 1.164-.83 2.594-.406 4.036-.121.257.058.54.304.817.452-.112.281-.167.738-.363.822-.737.281-1.538.955-2.313.519-1.261-.696-1.334-.365-.681 1.124.628 1.432 1.079 2.573-.138 2.859-.103.01.092 1.261.356 1.715.229.369.859.633 1.158.539 1.178-.335 2.227-1.015 3.449-1.203.429-.083 1.191.826 1.818 1.292-.221.361-.378.828-.675 1.054-1.329.9-2.695 1.716-4.036 2.588-.17.105-.379.494-.418.444-2.316-2.713-2.975-.532-4.13.527-.665.617-2.239-.145-2.699.618-1.014 1.766-1.718 3.966-2.256 6.262-.323 1.337-1.609 1.919-.711 4.403.255.725.058 1.309.866 1.865.329.226.915 1.31.864 1.565-.219.993-.915 1.623-.935 2.665-.027 1.778-.765 1.093-1.643.834-.44-.112-.543 1.531-1.071 1.757-1.329.566-2.731 1.13-4.258.981-1.095-.099-1.94-.239-2.257 1.196-.112.448-.629 1.035-.723.941-2.386-2.583-2.093.993-3.111 1.493-1.272.576-2.033 2.6-3.385 2.61-1.382.023-2.006 1.155-3.075 1.578-1.399.529-2.776 1.15-4.15 1.735-1.254.535-2.459 1.182-3.773 1.575-1.226.39-3.255-1.146-3.507 1.529-1.485-1.434-1.883 1.402-3.377-.094-.671 2.319-2.627 2.253-3.999 3.305-2.569 1.928-6.048 1.177-8.962 2.086-.972.315-2.567-.539-3.809-1.443-1.366-.984-1.575 1.205-2.793.191-1.362 2.414-3.088 3.683-6.171 1.264-.244-.196-.625 1.466-1.08 1.36-1.267-.293-2.603-.957-3.906-1.668-1.357-.755-5.216-1.811-6.294-1.451-1.002.327-1.848.855-3.25-.048-.935-.602-2.196-.797-2.795-.275-.991.856-1.565 2.4-2.92 2.778-.284.088-1.458 1.855.664 3.15-.121.385-.161 1.002-.415 1.077-2.011.724-2.939 3.153-4.273 4.922-.297.393-.477 1.437-.715 1.338-.971-.519-3.361-.194-2.92 1.885l-3.422 1c-.686.35-.393 1.469-1.078 1.809-2.631 1.308-5.954 1.57-5.679.624-.471.067-1.28-.155-1.362.28-.343 1.413-.536 2.595-2.035.167-.28-.447-1.01-.402-1.517-.586-.464-.169-.917-.309-1.366-.485.272-.282.737-.447.792-.904.18-1.377-2.259-4.671-3.449-4.364-1.709.429-3.444-1.131-5.16-1.767-1.575-.595-3.064-.194-4.742-1.912-.947-.963-1.056-.383-1.423.473-.276.651-1.494.137-2.198.37-1.993.683-3.791-3.451-5.744-3.385-1.436-2.488-4.04-4.412-3.482-7.916.013-.139-.88-1.059-1.377-1.514-.47-.433-.991-.777-1.486-1.1-.847-.605-1.805-1.597-2.514-1.628-.984-.047-1.797.599-2.625 1.086-.124.086-.053.755.073 1.135.847 2.573.073 3.436-1.201 3.879-.209.056-.225.563-.352.85.413.091.818.118 1.24.272.269.085.54.303.814.486-.127.288-.188.647-.378.828-1.149.99-2.77-.553-4.137-.703-.474-.065-.846.36-1.272.575.404.361 1.103.83 1.14 1.081.088.796-.076 1.499-.129 2.255-.334-.324-.665-.683-1.003-.972-.377-.34-.802-.792-1.158-.874-.512-.114-.903.519-1.078-1.107-.193-1.751.374-5.026-2.502-3.734-.347.149-1.351-.657-1.773-1.311-1.297-2.08-2.707-3.713-4.34-4.95-.233-.168-.566-.992-.539-1.304.096-1.241-.398-1.897-1.26-2.663-1.28-1.121-2.605-1.59-3.854-3.557-.93-1.471-2.771-1.686-3.43-4.238-.067-.239-.645-.759-.781-.701-1.034.507-2.553-.545-2.796-1.742-.41-2.092-1.232-4.608-.203-6.214.435-.652.474-1.902.596-2.954.019-.208-.382-.771-.632-1.064-.066-.072-.42.145-.438.353-.145 1.629-.982.919-1.954.566-1.52-.552-1.285-3.852-2.885-3.67-1.92.185-1.792-2.403-2.562-3.708-.392-.667-.48-1.629-.684-2.442.47.6.921 1.24 1.41 1.799.105.122.5-.08.498-.212-.09-.796.898-1.45-.549-2.5-.383-.27-.953-2.027-.938-2.034 1.77-.955 2.068-1.848-.751-3.647-1.1-.697-1.037-2.725.054-3.389 1.075-.659 1.045-.646.086-2.604a8.634 8.634 0 01-.76-2.243c-.41-2.259-.298-4.34-1.447-6.784-.402-.862-.308-3.069.063-3.16 1.564-.267 1.323-2.298 1.742-3.743.207-.688 1.387-.891.417-2.078-.903-1.115-1.931-3.61-3.004-2.986-1.93 1.123-2.473-1.447-3.007-3.119-.453-1.44-.108-3.854-.524-4.244-1.582-1.492.038-2.716-1.11-3.86.363-.822.517-2.221 1.127-2.381.936-.232 2.181.304 3.297.661.127.046.566 1.326.49 1.692-.113.615-.54.997-.83 1.487.537.004 1.17.234 1.597.02.794-.439 1.477-1.097 2.16-1.755.336-.343.04-2.084-.495-3.089-.972-1.819-1.286-3.686-.478-4.597 1.427-1.675 3.318-2.681 3.454-6.006 3.244-1.683 3.974-6.294 4.956-10.646.14-.593.663-.916 1.13-1.116 1.487-.7 3.006-1.281 4.504-1.953.456-.228.84-.625 1.264-.972-.404-.528-1.163-1.304-1.154-1.575.065-1.061-.12-2.583 1.109-2.34.643.127 1.291.183 1.94.24-.403-.528-.834-1.078-1.19-1.66-.05-.078.19-.647.385-.73 1.079-.527 2.344-.7 2.257-2.996-.017-.626.494-1.144.92-1.359 1.018-.5 1.967-1.372 3.493-.222-.06-2.108 1.388-1.725 2.264-2.265.324-.205.758-.357 1.166-.197.802.291 1.965 1.429 2.358 1.095 1.3-1.054 2.576-2.332 3.357-4.098.567-1.309.392-1.467 1.527.316 2.092 3.275 4.284 2.807 6.358 2.69.57-.043 1.183.096 1.787.172-1.045-3.622.406-2.774 2.08-2.32 1.207.318 2.304-.583 3.28-1.266.293-.191-.021-1.557-.065-2.372.678.711 1.392 1.34 2.049 2.127 1.352 1.624 1.837.584 2.42-.266.97-1.412.8-4.907 3.646-2.92.096.059.378-.495.327-.573-1.567-3.132.99-1.822 1.13-3.082.09-.838-1.541-3.743.927-1.762.094.094.412-2.342.939-3.2.523-.823 1.685-.485 2.01-2.024.204-.987 1.541-.99 2.35-1.435.795-.44.847-.694.193-1.35-.467-.634-1.483-.967-1.495-.828-.194 2.182-1.956 1.4-2.853 2.183-.173.14-.532-.074-.83-.147-.011-.528-.188-1.32.008-1.57.978-1.35 2.072-2.55 3.113-3.794.762-.892-.327-1.06-.598-1.612-.27-.551-.323-1.596-.127-2.013.498-1.178.76.61 1.119.824.51.316 1.155.574 1.563.4 1.909-.714 3.772-1.575 5.672-2.351.619-.264 1.23-.591 1.894-.708.706-.1 1.648 1.732 1.679 3.018.017.627.166 1.73.395 1.932.524.477 1.527 1.95 1.542-.024-.005-.431.497-.678.844-.826 1.703-.693 3.2-1.998 5.495-.843.807-2.377 2.122-3.604 4.621-2.136-.042-3.783 2.847-.147 4.026-1.316 1.097-1.068 2.512-2.271 4.572-1.082.123.08.346.185.365.144.596-2.62 2.287-3.008 4.201-3.29 1.914-.284 3.612-1.24 5.267-2.213 1.103-.637 1.923-1.853 2.942-2.687.937-.733 1.918-1.152 2.669-2.405.941-1.601 2.973-2.068 4.766-2.132 1.021-.035 2.615 1.486 3.811 2.743 2.362 2.526 4.572 3.818 6.753 3.155.223-.062.29-.49.441-.722-.229-.202-.566-.658-.702-.6-1.613.654-1.369-.784-1.089-1.803.155-.6.611-.994 1.052-1.215 1.338-.67 2.716-1.291 4.138-1.764.958-.308 1.257-.903.509-2.617-.072-.17.414-.744.735-.914.151-.064.582.32.802.625.231.335.345.853.571 1.257.511.949 1.068 1.878 1.61 2.814.333-.642.775-1.197.975-1.983.286-1.088-.314-1.866-1.191-2.626-1.175-.999-1.565-2.166-.433-2.648.695-.297 1.54-.324 2.361-.24.359.047.829.647 1.275 1.023-.248.34-.52.622-.756.99-.27.414-.527.857-.781 1.266.464.335.919.774 1.377 1.012.389.201 5.249-1.504 5.647-1.573.867-.103 1.935.308 2.651-.063.761-.392 1.119-1.644 1.856-2.092.309-.198 1.191.659 1.752 1.22.132.144.04 1.016.037 1.551-.004.202-.022.41-.08.568-.355 1.051-.791 2.037-1.026 3.204-.054.29 3.977 1.205 3.975.406-.031-3.421 2.151-.984 3.292-1.07.643-.041 2.232.882 1.676 2.886 1.816.826 2.787 4.445 4.679 4.739h.008c.782.13 1.123.188.896 1.281-.353 1.684-.357 4.186-1.279 4.746-1.073.624-1.36 3.047-3.405 1.851-.733-.42-1.678.25-2.202.905-.541.698-2.2 1.538.42 3.455.232.168.587.917.565 1.16-.301 3.228.591 3.981 2.437 2.994.076-.032.479.663.711.997-1.812 2.24 1.196 4.858 1.738 7.26.03.154.968.387 1.484.634 1.342.595 2.201 1.562 2.037 3.565-.064.728-.05 1.556.141 2.34.126.547.629 1.1.96 1.625 1.139-2.186 5.057 4.912 5.256-.44 1.187 1.194 2.063.82 2.828.228.344-.28.451-.993.669-1.486-.503-.385-1.093-1.1-1.459-1.078-1.494.137-3.03-.075-4.679-1.473-.364-.31-.689-1.072-.887-1.621-.081-.232.291-.825.33-.774 1.823 1.723 1.724-1.735 3.243-.85.29.177.586-.05.882-.109-.313-.566-.605-1.376-.933-1.602-.537-.338-1.092-.301-1.647-.431.368-.391.686-.86 1.094-1.2.327-.24.74-.316 1.299-.554z" fill="#FFE68E"/><path d="M195.335 97.23H64.949c-5.33 0-7.356-6.98-2.86-9.848l13.954-8.895 2.13-1.358 49.109-31.309a5.304 5.304 0 015.717 0l22.901 14.6 36.714 23.407 5.578 3.555c4.499 2.867 2.473 9.847-2.857 9.847z" fill="#F9F3F1"/><path d="M92.658 107.337h76.604v67.307H92.658v-67.307z" fill="#CDBFBA"/><path d="M112.355 174.051v-32.658c0-4.728 2.94-8.557 6.563-8.557h22.63c3.623 0 6.562 3.829 6.562 8.557v32.658h-35.755z" fill="#F9F3F1"/><path d="M127.79 132.837c-3.623 0-6.563 3.828-6.563 8.557v32.657h-8.873v-32.657c0-4.729 2.94-8.557 6.563-8.557h8.873z" fill="#E1D3CE"/><path d="M193.729 97.147v8.612a1.866 1.866 0 01-1.861 1.866H69.456c-1.03 0-1.86-.837-1.86-1.866v-8.612h126.133zm.514 91.314H68.147a4.776 4.776 0 01-4.77-4.782v-5.439a4.776 4.776 0 014.77-4.782h126.096a4.776 4.776 0 014.77 4.782v5.439a4.776 4.776 0 01-4.77 4.782z" fill="#F9F3F1"/><path d="M131.122 88.684c7.521 0 13.619-6.112 13.619-13.653 0-7.54-6.098-13.653-13.619-13.653-7.522 0-13.619 6.113-13.619 13.653s6.097 13.653 13.619 13.653z" fill="#FAF8F8"/><path d="M74.312 107.625h18.766v57.531H74.312v-57.531zm94.474 0h18.767v57.235h-18.767v-57.235z" fill="#F9F3F1"/><path d="M69.588 170.099v-1.88c0-1.855 1.5-3.359 3.352-3.359h20.212a3.355 3.355 0 013.351 3.359v1.88c0 1.855-1.5 3.359-3.35 3.359H72.938a3.355 3.355 0 01-3.35-3.359zm94.646 0v-1.88a3.356 3.356 0 013.351-3.359h20.213a3.355 3.355 0 013.351 3.359v1.88c0 1.855-1.5 3.359-3.351 3.359h-20.213a3.355 3.355 0 01-3.351-3.359z" fill="#F9F3F1"/><path d="M181.576 84.5c11.494 0 20.812-9.394 20.812-20.98 0-11.588-9.318-20.98-20.812-20.98-11.495 0-20.813 9.392-20.813 20.98 0 11.586 9.318 20.98 20.813 20.98z" fill="#FFB600"/><path d="M181.673 76.048c6.835 0 12.375-5.586 12.375-12.476 0-6.89-5.54-12.475-12.375-12.475s-12.376 5.585-12.376 12.475 5.541 12.476 12.376 12.476z" fill="#FFB600"/><path d="M77.019 188.462h-8.873a4.776 4.776 0 01-4.768-4.783v-5.438a4.776 4.776 0 014.768-4.783h8.873a4.776 4.776 0 00-4.768 4.783v5.438a4.776 4.776 0 004.768 4.783zm4.794-15.004H72.94a3.354 3.354 0 01-3.351-3.359v-1.88c0-1.856 1.5-3.359 3.351-3.359h8.873a3.354 3.354 0 00-3.351 3.359v1.88c0 1.856 1.5 3.359 3.351 3.359z" fill="#E1D3CE"/><path d="M74.312 107.625h8.874v57.531h-8.874v-57.531zm4.018 0h-8.874c-1.03 0-1.86-.837-1.86-1.865v-8.611h8.873v8.611c0 1.028.831 1.865 1.86 1.865z" fill="#E1D3CE"/><path d="M135.557 87.942c-1.39.48-2.884.742-4.436.742-7.522 0-13.618-6.111-13.618-13.651s6.096-13.655 13.618-13.655c1.552 0 3.046.261 4.436.742a13.657 13.657 0 00-9.18 12.913 13.654 13.654 0 009.18 12.91z" fill="#F3EAE6"/><path d="M73.822 97.23h-8.873c-5.33 0-7.356-6.98-2.86-9.848l9.76-6.22-.887.871c-4.496 4.424-2.47 15.196 2.86 15.196z" fill="#E1D3CE"/><path d="M185.548 84.117a20.8 20.8 0 01-3.989.383c-11.495-.008-20.804-9.41-20.796-20.997.008-11.587 9.335-20.972 20.83-20.964 1.351 0 2.673.133 3.953.385-9.585 1.87-16.828 10.37-16.836 20.58-.007 10.221 7.238 18.743 16.838 20.613z" fill="#FFB600"/><path d="M168.787 107.625h8.873v57.235h-8.873v-57.235z" fill="#E1D3CE"/><path d="M176.459 173.458h-8.873a3.354 3.354 0 01-3.351-3.359v-1.88c0-1.856 1.5-3.359 3.351-3.359h8.873a3.354 3.354 0 00-3.351 3.359v1.88c0 1.856 1.5 3.359 3.351 3.359z" fill="#E1D3CE"/><path d="M199.437 85.687l-4.312-2.75C201.099 78.635 205 71.614 205 63.694 205 50.629 194.398 40 181.366 40c-11.554 0-21.191 8.356-23.23 19.356l-24.111-15.373a7.56 7.56 0 00-8.097 0L60.515 85.687c-2.903 1.85-4.157 5.186-3.196 8.497.957 3.299 3.783 5.433 7.205 5.449v6.412a4.094 4.094 0 004.085 4.095h2.65v51.982a5.082 5.082 0 00-4.366 5.025v4.427a7.01 7.01 0 00-6.06 6.943v5.477c0 3.863 3.136 7.006 6.99 7.006h102.962a2.221 2.221 0 002.218-2.224 2.221 2.221 0 00-2.218-2.224H67.822a2.558 2.558 0 01-2.552-2.558v-5.477a2.559 2.559 0 012.552-2.559h126.453a2.559 2.559 0 012.552 2.559v5.477a2.558 2.558 0 01-2.552 2.558h-13.434a2.221 2.221 0 00-2.218 2.224c0 1.228.993 2.224 2.218 2.224h13.434c3.853 0 6.989-3.143 6.989-7.006v-5.477c0-3.863-3.136-7.006-6.989-7.006h-.753v-4.364a5.085 5.085 0 00-4.547-5.053V110.14h2.369a4.095 4.095 0 004.085-4.095v-6.412c3.422-.016 6.248-2.15 7.205-5.45.961-3.31-.294-6.646-3.197-8.496zm-18.071-41.24c10.585 0 19.197 8.634 19.197 19.246 0 10.612-8.612 19.245-19.197 19.245-10.585 0-19.197-8.633-19.197-19.245 0-10.612 8.612-19.245 19.197-19.245zM89.893 110.14v51.926H75.696V110.14h14.197zm4.47 61.371H71.33v-4.364c0-.349.287-.633.64-.633h21.75c.354 0 .642.284.642.633v4.364zm51.552 0h-31.413v-30.138c0-3.391 1.997-6.255 4.361-6.255h22.69c2.364 0 4.362 2.865 4.362 6.255v30.138zm43.171 0h-23.032v-4.364c0-.349.287-.633.639-.633h21.754c.352 0 .639.284.639.633v4.364zm-4.548-9.445h-14.196V110.14h14.196v51.926zm13.836-69.124c-.315 1.085-1.264 2.245-2.984 2.245h-83.315a2.22 2.22 0 00-2.218 2.224 2.22 2.22 0 002.218 2.224h78.917v6.057h-34.995a2.22 2.22 0 00-2.218 2.224 2.22 2.22 0 002.218 2.224h9.908v51.994a5.082 5.082 0 00-4.287 5.013v4.364h-11.267v-30.138c0-5.902-3.947-10.703-8.798-10.703h-22.69c-4.851 0-8.798 4.801-8.798 10.703v30.138H98.799v-4.364a5.086 5.086 0 00-4.47-5.041V110.14h51.612a2.221 2.221 0 002.218-2.224 2.221 2.221 0 00-2.218-2.224h-76.98v-6.058h33.058a2.22 2.22 0 002.218-2.224 2.22 2.22 0 00-2.218-2.223H64.563c-1.72 0-2.669-1.16-2.984-2.246-.315-1.086-.135-2.576 1.317-3.501l65.412-41.703a3.114 3.114 0 013.336 0L157.75 64.38c.365 12.747 10.815 23.005 23.616 23.005 3.338 0 6.514-.7 9.396-1.958l6.294 4.013c1.453.925 1.633 2.416 1.318 3.502z" fill="#000"/><path d="M131.048 59.166c-8.752 0-15.873 7.138-15.873 15.913 0 8.774 7.121 15.912 15.873 15.912 8.753 0 15.874-7.138 15.874-15.912 0-8.775-7.121-15.913-15.874-15.913zm0 27.378c-6.306 0-11.436-5.143-11.436-11.465s5.13-11.465 11.436-11.465 11.437 5.143 11.437 11.465-5.131 11.465-11.437 11.465zm50.318-8.264c8.024 0 14.551-6.544 14.551-14.588 0-8.043-6.527-14.587-14.551-14.587-8.024 0-14.551 6.544-14.551 14.587 0 8.044 6.527 14.588 14.551 14.588zm0-24.727c5.577 0 10.115 4.548 10.115 10.14 0 5.591-4.538 10.14-10.115 10.14s-10.115-4.549-10.115-10.14c0-5.592 4.538-10.14 10.115-10.14z" fill="#000"/></svg>