<svg width="262" height="242" viewBox="0 0 262 242" fill="none" xmlns="http://www.w3.org/2000/svg">
<path d="M202.251 56.6909C203.362 56.4506 204.446 54.5552 206.239 57.9244L206.24 57.9243C207.248 57.5276 208.257 57.131 209.278 56.7625C210.585 56.2717 214.209 56.8604 215.482 57.7515C217.833 59.416 217.749 59.3853 218.514 63.3592C218.835 64.9895 219.583 66.7039 220.103 68.3826C220.418 69.415 221.124 71.1141 220.913 71.371C220.395 71.9581 219.725 72.3107 220.583 73.6118C221.892 75.5537 221.246 72.5291 221.655 72.9879C222.268 73.6808 222.774 74.7762 223.232 75.7685L223.25 75.8083C223.773 76.952 225.92 74.7034 225.32 78.3598C225.231 78.8642 226.876 80.6298 227.619 81.9131C228.504 83.4027 228.731 85.2731 230.253 86.4576C230.865 86.9302 229.96 89.7492 228.799 89.5777C226.677 89.2486 226.509 92.4539 224.755 92.735C224.667 92.739 224.591 93.1048 224.639 93.2176C227.407 98.3715 222.723 96.6347 223.047 99.5302C220.697 98.8318 219.818 100.873 218.888 102.836C216.428 101.418 216.915 104.278 216.604 105.977C216.577 106.122 216.727 106.391 216.796 106.595C217.159 107.74 218.424 109.368 217.011 109.57C216.628 109.634 215.809 108.216 215.167 107.756C214.881 107.545 214.319 107.818 214.198 108.203C213.676 109.826 216.5 110.422 215.788 112.226C216.119 112.418 216.641 112.929 216.768 112.808C217.805 111.599 220.081 113.462 220.742 111.247C220.811 111.03 221.329 113.514 221.761 115.036C221.967 114.99 222.17 115.007 222.36 115.124C222.38 116.821 222.097 116.219 221.761 115.036C221.312 115.137 220.851 115.54 220.495 115.852L220.493 115.853C219.514 116.738 220.128 119.143 221.59 120.353C222.036 120.729 222.521 121.156 222.968 121.366C224.729 122.148 224.401 123.388 224.173 124.653L224.164 124.703C224.107 125.018 224.039 125.397 224.104 125.748L224.138 125.932C224.449 127.605 224.458 127.652 224.053 127.47C223.745 127.335 223.42 126.907 223.149 126.856C221.61 126.678 219.947 126.087 218.75 127.131C218.484 127.344 217.957 127.069 217.552 127.041C217.571 126.667 217.617 126.314 217.605 125.952C217.487 124.502 218.717 123.411 217.453 121.783C215.537 119.3 216.146 123.574 214.719 122.949C214.188 122.708 213.689 123.254 213.215 123.523C212.055 124.151 209.115 124.037 207.809 123.361C207.405 123.166 206.862 123.064 206.62 123.334C206.043 123.947 207.001 126.405 205.565 126.051C204.002 125.65 204.621 127.687 204.531 128.691C204.353 130.868 205.245 129.487 205.743 129.775C206.672 130.279 207.342 131.727 206.747 132.214C205.493 133.249 205.887 134.048 207.327 135.334C207.475 135.471 207.646 136.331 207.528 136.515C206.777 137.935 205.92 139.234 205.169 140.654C205.084 140.79 205.397 141.69 205.626 141.893C207.485 143.7 207.66 144.026 207.319 145.405C207.277 145.556 207.231 145.742 207.137 145.815C206.624 146.201 205.612 146.466 207.295 147.482C207.901 147.857 208.863 147.98 209.078 147.522C209.363 146.934 209.069 145.659 209.026 144.677C209.002 144.287 208.994 143.891 208.97 143.501C209.236 143.788 209.564 144.014 209.766 144.362C210.091 144.957 210.337 145.618 210.599 146.273C211.564 148.662 212.823 149.692 214.062 148.831C215.226 148.001 216.656 148.425 218.098 148.71C218.355 148.768 218.638 149.014 218.915 149.162C218.803 149.443 218.748 149.9 218.552 149.984C217.815 150.265 217.014 150.939 216.239 150.503C214.978 149.807 214.905 150.138 215.558 151.627C216.186 153.059 216.637 154.2 215.42 154.486C215.317 154.496 215.512 155.747 215.776 156.201C216.005 156.57 216.635 156.834 216.934 156.74C218.112 156.405 219.161 155.725 220.383 155.537C220.812 155.454 221.574 156.363 222.201 156.829C221.98 157.19 221.823 157.657 221.526 157.883C220.197 158.783 218.831 159.599 217.49 160.471C217.32 160.576 217.111 160.965 217.072 160.915C214.756 158.202 214.097 160.383 212.942 161.442C212.277 162.059 210.703 161.297 210.243 162.06C209.229 163.826 208.525 166.026 207.987 168.322C207.664 169.659 206.378 170.241 207.276 172.725C207.531 173.45 207.334 174.034 208.142 174.59C208.471 174.816 209.057 175.9 209.006 176.155C208.787 177.148 208.091 177.778 208.071 178.82C208.044 180.598 207.306 179.913 206.428 179.654C205.988 179.542 205.885 181.185 205.357 181.411C204.028 181.977 202.626 182.541 201.099 182.392C200.004 182.293 199.159 182.153 198.842 183.588C198.73 184.036 198.213 184.623 198.119 184.529C195.733 181.946 196.026 185.522 195.008 186.022C193.736 186.598 192.975 188.622 191.623 188.632C190.241 188.655 189.617 189.787 188.548 190.21C187.149 190.739 185.772 191.36 184.398 191.945C183.144 192.48 181.939 193.127 180.625 193.52C179.399 193.91 177.37 192.374 177.118 195.049C175.633 193.615 175.235 196.451 173.741 194.955C173.07 197.274 171.114 197.208 169.742 198.26C167.173 200.188 163.694 199.437 160.78 200.346C159.808 200.661 158.213 199.807 156.971 198.903C155.605 197.919 155.396 200.108 154.178 199.094C152.816 201.508 151.09 202.777 148.007 200.358C147.763 200.162 147.382 201.824 146.927 201.718C145.66 201.425 144.324 200.761 143.021 200.05C141.664 199.295 137.805 198.239 136.727 198.599C135.725 198.926 134.879 199.454 133.477 198.551C132.542 197.949 131.281 197.754 130.682 198.276C129.691 199.132 129.117 200.676 127.762 201.054C127.478 201.142 126.304 202.909 128.426 204.204C128.305 204.589 128.265 205.206 128.011 205.281C126 206.005 125.072 208.434 123.738 210.203C123.441 210.596 123.261 211.64 123.023 211.541C122.052 211.022 119.662 211.347 120.103 213.426L116.681 214.426C115.995 214.776 116.288 215.895 115.603 216.235C112.972 217.543 109.649 217.805 109.924 216.859C109.453 216.926 108.644 216.704 108.562 217.139C108.219 218.552 108.026 219.734 106.527 217.306C106.247 216.859 105.517 216.904 105.01 216.72C104.546 216.551 104.093 216.411 103.644 216.235C103.916 215.953 104.381 215.788 104.436 215.331C104.616 213.954 102.177 210.66 100.987 210.967C99.2783 211.396 97.5425 209.836 95.8261 209.2C94.2516 208.605 92.7628 209.006 91.0846 207.288C90.1384 206.325 90.0288 206.905 89.6621 207.761C89.3864 208.412 88.1678 207.898 87.4642 208.131C85.4709 208.814 83.673 204.68 81.72 204.746C80.2845 202.258 77.6799 200.334 78.2382 196.83C78.2505 196.691 77.3587 195.771 76.8614 195.316C76.3913 194.883 75.8697 194.539 75.3753 194.216C74.5281 193.611 73.57 192.619 72.8607 192.588C71.8769 192.541 71.0638 193.187 70.236 193.674C70.1121 193.76 70.1834 194.429 70.3095 194.809C71.1563 197.382 70.3822 198.245 69.1077 198.688C68.8993 198.744 68.8834 199.251 68.7561 199.538C69.1695 199.629 69.5739 199.656 69.9962 199.81C70.2647 199.895 70.5359 200.113 70.8103 200.296C70.683 200.584 70.6221 200.943 70.4316 201.124C69.283 202.114 67.6617 200.571 66.2947 200.421C65.8209 200.356 65.449 200.781 65.023 200.996C65.4269 201.357 66.1263 201.826 66.1621 202.077C66.2513 202.873 66.0871 203.576 66.0345 204.332C65.7 204.008 65.3686 203.649 65.0311 203.36C64.6544 203.02 64.2295 202.568 63.8735 202.486C63.3606 202.372 62.9702 203.005 62.7948 201.379C62.6016 199.628 63.1686 196.353 60.2929 197.645C59.9456 197.794 58.9419 196.988 58.5204 196.334C57.223 194.254 55.8132 192.621 54.1794 191.384C53.9473 191.216 53.6136 190.392 53.6413 190.08C53.737 188.839 53.2431 188.183 52.3812 187.417C51.1003 186.296 49.776 185.827 48.5268 183.86C47.5966 182.389 45.7558 182.174 45.0961 179.622C45.0301 179.383 44.4515 178.863 44.3156 178.921C43.2824 179.428 41.763 178.376 41.5205 177.179C41.1106 175.087 40.2878 172.571 41.3168 170.965C41.7525 170.313 41.7909 169.063 41.9134 168.011C41.9318 167.803 41.5314 167.24 41.2813 166.947C41.2151 166.875 40.8615 167.092 40.8431 167.3C40.6985 168.929 39.8606 168.219 38.8893 167.866C37.369 167.314 37.604 164.014 36.0039 164.196C34.084 164.381 34.2121 161.793 33.4416 160.488C33.0504 159.821 32.9615 158.859 32.7576 158.046C33.2275 158.646 33.6791 159.286 34.1671 159.845C34.2726 159.967 34.6683 159.765 34.6655 159.633C34.5763 158.837 35.5644 158.183 34.1174 157.133C33.7345 156.863 33.164 155.106 33.1791 155.099C34.9495 154.144 35.2468 153.251 32.4277 151.452C31.3272 150.755 31.391 148.727 32.4818 148.063C33.5574 147.404 33.5272 147.417 32.5677 145.459C32.2217 144.773 31.9334 143.929 31.8079 143.216C31.3982 140.957 31.5104 138.876 30.3615 136.432C29.9585 135.57 30.0528 133.363 30.4242 133.272C31.9882 133.005 31.7471 130.974 32.1661 129.529C32.3725 128.841 33.553 128.638 32.5831 127.451C31.6795 126.336 30.6515 123.841 29.5789 124.465C27.6483 125.588 27.1064 123.018 26.5719 121.346C26.1186 119.906 26.4638 117.492 26.0479 117.102C24.4658 115.61 26.0857 114.386 24.9377 113.242C25.3013 112.42 25.4546 111.021 26.0645 110.861C27.0006 110.629 28.2463 111.165 29.3624 111.522C29.4891 111.568 29.9276 112.848 29.8516 113.214C29.7388 113.829 29.3126 114.211 29.022 114.701C29.5593 114.705 30.1927 114.935 30.6187 114.721C31.4132 114.282 32.0965 113.624 32.7797 112.966C33.1154 112.623 32.8195 110.882 32.2839 109.877C31.3121 108.058 30.9984 106.191 31.8058 105.28C33.2333 103.605 35.1244 102.599 35.2599 99.2743C38.5044 97.5912 39.2336 92.98 40.2159 88.6276C40.3557 88.0346 40.8785 87.7118 41.3466 87.5122C42.8328 86.812 44.352 86.231 45.8503 85.559C46.3064 85.3312 46.6904 84.9342 47.1136 84.5871C46.71 84.0591 45.9507 83.2827 45.9602 83.0119C46.0254 81.9507 45.8409 80.4293 47.0689 80.6725C47.7116 80.7986 48.3604 80.8553 49.0093 80.9121C48.6057 80.3841 48.175 79.8343 47.8199 79.2523C47.7687 79.1741 48.0081 78.6053 48.2044 78.5217C49.2828 77.9953 50.5478 77.8227 50.4612 75.5261C50.4441 74.9 50.9551 74.3822 51.381 74.1673C52.3991 73.6666 53.3483 72.7953 54.8736 73.9452C54.8138 71.8372 56.2619 72.22 57.1382 71.6798C57.4615 71.4753 57.8964 71.3232 58.3036 71.483C59.1059 71.7743 60.2691 72.912 60.662 72.5778C61.9617 71.5237 63.2376 70.2464 64.0193 68.4797C64.586 67.1714 64.4112 67.0126 65.546 68.7957C67.6382 72.0708 69.8303 71.6031 71.9041 71.4858C72.4746 71.4426 73.0871 71.5815 73.6906 71.6576C72.6464 68.0357 74.0968 68.8842 75.7712 69.3372C76.978 69.6562 78.0751 68.7551 79.0512 68.0724C79.3443 67.8807 79.0297 66.5147 78.9858 65.7C79.6637 66.4111 80.378 67.0401 81.0347 67.8269C82.3871 69.4505 82.8718 68.4105 83.4558 67.5615C84.4241 66.1487 84.2549 62.6538 87.1009 64.6409C87.1973 64.6998 87.479 64.1464 87.4278 64.0682C85.8606 60.936 88.4179 62.246 88.5589 60.9858C88.6478 60.1478 87.0168 57.2428 89.4855 59.224C89.5789 59.3176 89.8969 56.8818 90.4235 56.0239C90.9471 55.2007 92.1086 55.539 92.4342 54.0001C92.6381 53.0131 93.9752 53.0098 94.7848 52.5646C95.5794 52.1259 95.6311 51.8705 94.9773 51.2158C94.5105 50.5814 93.4939 50.248 93.4816 50.3866C93.2877 52.5694 91.5264 51.7868 90.6286 52.5696C90.4563 52.7097 90.0975 52.4959 89.7988 52.4232C89.7876 51.8946 89.6109 51.1032 89.8075 50.8527C90.7847 49.5028 91.8794 48.3027 92.9198 47.0591C93.6819 46.1675 92.5926 45.9985 92.3219 45.4472C92.0512 44.8959 91.9986 43.8515 92.1955 43.4342C92.6925 42.2556 92.9551 44.0439 93.3139 44.2576C93.8235 44.5738 94.469 44.832 94.8767 44.6581C96.7855 43.9445 98.6493 43.0833 100.549 42.3068C101.168 42.0428 101.779 41.716 102.443 41.5995C103.149 41.4984 104.091 43.3305 104.122 44.6174C104.139 45.2435 104.288 46.3467 104.517 46.5491C105.041 47.0256 106.044 48.4984 106.059 46.525C106.054 46.0939 106.556 45.8468 106.903 45.6987C108.606 45.0059 110.103 43.7013 112.398 44.8565C113.205 42.479 114.52 41.2517 117.019 42.7197C116.977 38.9372 119.866 42.573 121.045 41.4037C122.142 40.3358 123.557 39.1327 125.617 40.3216C125.74 40.4023 125.963 40.5071 125.982 40.466C126.578 37.8451 128.269 37.4577 130.183 37.1751C132.097 36.8925 133.795 35.9354 135.45 34.9629C136.553 34.3261 137.373 33.1098 138.392 32.2756C139.329 31.5428 140.31 31.1243 141.061 29.8709C142.002 28.2695 144.034 27.8033 145.827 27.739C146.848 27.7042 148.442 29.2248 149.638 30.4817C152 33.0084 154.21 34.2997 156.391 33.637C156.614 33.5751 156.681 33.1464 156.832 32.9152C156.603 32.7128 156.266 32.2566 156.13 32.3145C154.517 32.9687 154.761 31.5313 155.041 30.5121C155.196 29.9127 155.652 29.5181 156.093 29.2968C157.431 28.6263 158.809 28.0058 160.231 27.5328C161.189 27.2247 161.488 26.6302 160.74 24.9158C160.668 24.7465 161.154 24.1723 161.475 24.0024C161.626 23.938 162.057 24.3211 162.277 24.6274C162.508 24.9619 162.622 25.4801 162.848 25.8839C163.359 26.8327 163.916 27.7621 164.458 28.6979C164.791 28.0559 165.233 27.5009 165.433 26.7154C165.719 25.6269 165.119 24.8489 164.242 24.0894C163.067 23.0903 162.677 21.9233 163.809 21.4405C164.504 21.1443 165.349 21.1174 166.17 21.2009C166.529 21.2478 166.999 21.8476 167.445 22.2241C167.197 22.5632 166.925 22.8459 166.689 23.2132C166.419 23.6281 166.162 24.0711 165.908 24.4795C166.372 24.815 166.827 25.2544 167.285 25.4924C167.674 25.6932 172.534 23.9885 172.932 23.9186C173.799 23.8159 174.867 24.2275 175.583 23.8556C176.344 23.4644 176.702 22.2116 177.439 21.764C177.748 21.5659 178.63 22.423 179.191 22.9841C179.323 23.1277 179.231 24.0003 179.228 24.5353C179.224 24.7368 179.206 24.9447 179.148 25.1026C178.793 26.154 178.357 27.14 178.122 28.3067C178.068 28.5967 182.099 29.512 182.097 28.7126C182.066 25.292 184.248 27.7291 185.389 27.6427C186.032 27.602 187.621 28.5247 187.065 30.5285C188.881 31.3546 189.852 34.974 191.744 35.2676L191.752 35.2689C192.534 35.3989 192.875 35.4556 192.648 36.5493C192.295 38.2332 192.291 40.7353 191.369 41.2948C190.296 41.9187 190.009 44.3416 187.964 43.1462C187.231 42.7252 186.286 43.3951 185.762 44.0515C185.221 44.749 183.562 45.5894 186.182 47.5062C186.414 47.674 186.769 48.4228 186.747 48.6653C186.446 51.894 187.338 52.6471 189.184 51.6602C189.26 51.628 189.663 52.3229 189.895 52.6574C188.083 54.8965 191.091 57.5146 191.633 59.917C191.663 60.071 192.601 60.3044 193.117 60.5512C194.459 61.1459 195.318 62.1133 195.154 64.1164C195.09 64.844 195.104 65.6716 195.295 66.4566C195.421 67.003 195.924 67.5552 196.255 68.0808C197.394 65.8953 201.312 72.9926 201.511 67.6405C202.698 68.8346 203.574 68.4612 204.339 67.8686C204.683 67.5883 204.79 66.8761 205.008 66.383C204.505 65.9976 203.915 65.2825 203.549 65.3049C202.055 65.4418 200.519 65.2298 198.87 63.8325C198.506 63.5212 198.181 62.7595 197.983 62.2107C197.902 61.9786 198.274 61.3865 198.313 61.4365C200.136 63.1595 200.037 59.7018 201.556 60.5874C201.846 60.764 202.142 60.5378 202.438 60.4783C202.125 59.9116 201.833 59.1024 201.505 58.8758C200.968 58.5379 200.413 58.5746 199.858 58.4446C200.226 58.054 200.544 57.5852 200.952 57.2446C201.279 57.0054 201.692 56.9291 202.251 56.6909Z" fill="#FFE68E"/>
<path d="M195.335 97.2291H64.9487C59.619 97.2291 57.593 90.2493 62.0886 87.382L76.043 78.4868L78.1725 77.1288L127.282 45.8205C129.027 44.7056 131.254 44.7056 132.999 45.8205L155.9 60.4206L192.614 83.8269L198.192 87.382C202.691 90.2493 200.665 97.2291 195.335 97.2291Z" fill="#F9F3F1"/>
<path d="M92.6584 107.337H169.262V174.644H92.6584V107.337Z" fill="#CDBFBA"/>
<path d="M112.355 174.051V141.393C112.355 136.665 115.295 132.836 118.918 132.836H141.548C145.171 132.836 148.11 136.665 148.11 141.393V174.051H112.355Z" fill="#F9F3F1"/>
<path d="M127.79 132.837C124.167 132.837 121.227 136.665 121.227 141.394V174.051H112.354V141.394C112.354 136.665 115.294 132.837 118.917 132.837H127.79Z" fill="#E1D3CE"/>
<path d="M193.729 97.1475V105.759C193.729 106.788 192.894 107.625 191.868 107.625H184.385H165.619H97.9999H79.2346H69.4562C68.4266 107.625 67.5955 106.788 67.5955 105.759V97.1475H193.729Z" fill="#F9F3F1"/>
<path d="M194.243 188.461H68.1471C65.5127 188.461 63.377 186.32 63.377 183.679V178.24C63.377 175.599 65.5127 173.458 68.1471 173.458H194.243C196.877 173.458 199.013 175.599 199.013 178.24V183.679C199.013 186.32 196.877 188.461 194.243 188.461Z" fill="#F9F3F1"/>
<path d="M131.122 88.6843C138.643 88.6843 144.741 82.5717 144.741 75.0313C144.741 67.491 138.643 61.3783 131.122 61.3783C123.6 61.3783 117.503 67.491 117.503 75.0313C117.503 82.5717 123.6 88.6843 131.122 88.6843Z" fill="#FAF8F8"/>
<path d="M74.3118 107.625H93.0783V165.156H74.3118V107.625Z" fill="#F9F3F1"/>
<path d="M168.786 107.625H187.553V164.86H168.786V107.625Z" fill="#F9F3F1"/>
<path d="M69.5884 170.099V168.219C69.5884 166.364 71.0888 164.86 72.9395 164.86H93.1523C95.0029 164.86 96.5033 166.364 96.5033 168.219V170.099C96.5033 171.954 95.0029 173.458 93.1523 173.458H72.9395C71.0885 173.458 69.5884 171.954 69.5884 170.099V170.099Z" fill="#F9F3F1"/>
<path d="M164.234 170.099V168.219C164.234 166.364 165.735 164.86 167.585 164.86H187.798C189.649 164.86 191.149 166.364 191.149 168.219V170.099C191.149 171.954 189.649 173.458 187.798 173.458H167.585C165.734 173.458 164.234 171.954 164.234 170.099Z" fill="#F9F3F1"/>
<path d="M181.576 84.4995C193.07 84.4995 202.388 75.1064 202.388 63.5195C202.388 51.9325 193.07 42.5394 181.576 42.5394C170.081 42.5394 160.763 51.9325 160.763 63.5195C160.763 75.1064 170.081 84.4995 181.576 84.4995Z" fill="#FFB600"/>
<path d="M181.673 76.0476C188.508 76.0476 194.048 70.4623 194.048 63.5724C194.048 56.6824 188.508 51.0971 181.673 51.0971C174.838 51.0971 169.297 56.6824 169.297 63.5724C169.297 70.4623 174.838 76.0476 181.673 76.0476Z" fill="#FFB600"/>
<path d="M77.0187 188.462H68.1457C65.5133 188.462 63.3779 186.321 63.3779 183.679V178.241C63.3779 175.599 65.5133 173.458 68.1457 173.458H77.0187C74.3864 173.458 72.2509 175.599 72.2509 178.241V183.679C72.2509 186.321 74.3864 188.462 77.0187 188.462Z" fill="#E1D3CE"/>
<path d="M81.8131 173.458H72.94C71.0885 173.458 69.589 171.955 69.589 170.099V168.219C69.589 166.363 71.0885 164.86 72.94 164.86H81.8131C79.9616 164.86 78.462 166.363 78.462 168.219V170.099C78.462 171.955 79.9619 173.458 81.8131 173.458Z" fill="#E1D3CE"/>
<path d="M74.3124 107.625H83.1855V165.156H74.3124V107.625Z" fill="#E1D3CE"/>
<path d="M78.3293 107.625H69.4562C68.4269 107.625 67.5958 106.788 67.5958 105.76V97.149H76.4689V105.76C76.4686 106.788 77.3 107.625 78.3293 107.625Z" fill="#E1D3CE"/>
<path d="M135.557 87.9425C134.167 88.4228 132.673 88.6837 131.121 88.6837C123.599 88.6837 117.503 82.5727 117.503 75.0325C117.503 67.4923 123.599 61.3783 131.121 61.3783C132.673 61.3783 134.167 61.6392 135.557 62.1196C130.216 63.9638 126.377 69.049 126.377 75.0325C126.377 81.016 130.216 86.0982 135.557 87.9425Z" fill="#F3EAE6"/>
<path d="M73.8218 97.2291H64.9487C59.619 97.2291 57.593 90.2493 62.0886 87.3821L71.849 81.1613L70.9617 82.033C66.4657 86.4569 68.492 97.2291 73.8218 97.2291Z" fill="#E1D3CE"/>
<path d="M185.548 84.1172C184.258 84.3695 182.923 84.4997 181.559 84.4997C170.064 84.4917 160.755 75.0903 160.763 63.5034C160.771 51.9164 170.098 42.5311 181.593 42.5391C182.944 42.5391 184.266 42.6719 185.546 42.9242C175.961 44.794 168.718 53.2949 168.71 63.5037C168.703 73.7252 175.948 82.2474 185.548 84.1172V84.1172Z" fill="#FFB600"/>
<path d="M168.787 107.625H177.66V164.86H168.787V107.625Z" fill="#E1D3CE"/>
<path d="M176.459 173.458H167.586C165.735 173.458 164.235 171.955 164.235 170.099V168.219C164.235 166.363 165.735 164.86 167.586 164.86H176.459C174.608 164.86 173.108 166.363 173.108 168.219V170.099C173.108 171.955 174.608 173.458 176.459 173.458Z" fill="#E1D3CE"/>
<path d="M199.437 85.6869L195.125 82.9379C201.099 78.6338 205 71.6134 205 63.6928C205 50.6286 194.398 40 181.366 40C169.812 40 160.175 48.3565 158.136 59.3558L134.025 43.9827C131.566 42.4157 128.387 42.4157 125.928 43.983L60.5154 85.6869C57.6124 87.5374 56.3575 90.8725 57.3187 94.1839C58.2762 97.4825 61.1022 99.6168 64.5243 99.6328V106.045C64.5243 108.303 66.3565 110.14 68.6088 110.14H71.2589V162.122C68.796 162.469 66.8934 164.587 66.8934 167.147V171.574C63.4772 172.031 60.8331 174.969 60.8331 178.517V183.994C60.8331 187.857 63.9685 191 67.8221 191H170.785C172.01 191 173.003 190.004 173.003 188.776C173.003 187.548 172.01 186.552 170.785 186.552H67.8221C66.4145 186.552 65.2696 185.405 65.2696 183.994V178.517C65.2696 177.106 66.4145 175.958 67.8221 175.958H194.275C195.682 175.958 196.827 177.106 196.827 178.517V183.994C196.827 185.405 195.682 186.552 194.275 186.552H180.841C179.616 186.552 178.623 187.548 178.623 188.776C178.623 190.004 179.616 191 180.841 191H194.275C198.128 191 201.264 187.857 201.264 183.994V178.517C201.264 174.654 198.128 171.511 194.275 171.511H193.522V167.147C193.522 164.524 191.526 162.359 188.975 162.094V110.14H191.344C193.596 110.14 195.429 108.303 195.429 106.045V99.6328C198.851 99.6168 201.677 97.4825 202.634 94.1839C203.595 90.8725 202.34 87.5374 199.437 85.6869V85.6869ZM181.366 44.4476C191.951 44.4476 200.563 53.081 200.563 63.6928C200.563 74.3048 191.951 82.9379 181.366 82.9379C170.781 82.9379 162.169 74.3045 162.169 63.6928C162.169 53.081 170.781 44.4476 181.366 44.4476ZM89.8926 110.14V162.066H75.6957V110.14H89.8926ZM94.3622 171.511H71.3302V167.147C71.3302 166.798 71.6171 166.514 71.9696 166.514H93.7198C94.0739 166.514 94.3622 166.798 94.3622 167.147V171.511ZM145.915 171.511H114.502V141.373C114.502 137.982 116.499 135.118 118.863 135.118H141.553C143.917 135.118 145.915 137.983 145.915 141.373V171.511ZM189.086 171.511H166.054V167.147C166.054 166.798 166.341 166.514 166.693 166.514H188.447C188.799 166.514 189.086 166.798 189.086 167.147V171.511ZM184.538 162.066H170.342V110.14H184.538V162.066ZM198.374 92.9415C198.059 94.027 197.11 95.187 195.39 95.187H112.075C110.85 95.187 109.857 96.1826 109.857 97.4108C109.857 98.6389 110.85 99.6346 112.075 99.6346H190.992V105.692H155.997C154.771 105.692 153.779 106.688 153.779 107.916C153.779 109.144 154.771 110.14 155.997 110.14H165.905V162.134C163.48 162.515 161.618 164.615 161.618 167.147V171.511H150.351V141.373C150.351 135.471 146.404 130.67 141.553 130.67H118.863C114.012 130.67 110.065 135.471 110.065 141.373V171.511H98.7988V167.147C98.7988 164.552 96.8429 162.409 94.3291 162.106V110.14H145.941C147.166 110.14 148.159 109.144 148.159 107.916C148.159 106.688 147.166 105.692 145.941 105.692H68.9611V99.6343H102.019C103.244 99.6343 104.237 98.6386 104.237 97.4105C104.237 96.1823 103.244 95.1867 102.019 95.1867H64.563C62.8434 95.1867 61.894 94.0267 61.5787 92.9412C61.2637 91.8554 61.4441 90.3655 62.8961 89.4398L128.308 47.7365C129.322 47.0904 130.632 47.0907 131.644 47.7362L157.75 64.3804C158.115 77.127 168.565 87.3855 181.366 87.3855C184.704 87.3855 187.88 86.6843 190.762 85.4274L197.056 89.4404C198.509 90.3655 198.689 91.8557 198.374 92.9415V92.9415Z" fill="black"/>
<path d="M131.048 59.1659C122.296 59.1659 115.175 66.3043 115.175 75.0786C115.175 83.8529 122.296 90.9913 131.048 90.9913C139.801 90.9913 146.922 83.8529 146.922 75.0786C146.922 66.3043 139.801 59.1659 131.048 59.1659V59.1659ZM131.048 86.544C124.742 86.544 119.612 81.4007 119.612 75.0789C119.612 68.757 124.742 63.6138 131.048 63.6138C137.354 63.6138 142.485 68.757 142.485 75.0789C142.485 81.4007 137.354 86.544 131.048 86.544V86.544Z" fill="black"/>
<path d="M181.366 78.2803C189.39 78.2803 195.917 71.7364 195.917 63.6924C195.917 55.6487 189.39 49.1048 181.366 49.1048C173.342 49.1048 166.815 55.6487 166.815 63.6924C166.815 71.7364 173.342 78.2803 181.366 78.2803ZM181.366 53.5527C186.943 53.5527 191.481 58.1014 191.481 63.6927C191.481 69.284 186.943 73.833 181.366 73.833C175.789 73.833 171.251 69.2842 171.251 63.6927C171.251 58.1014 175.789 53.5527 181.366 53.5527V53.5527Z" fill="black"/>
</svg>
