<svg width="1365" height="549" viewBox="0 0 1365 549" fill="none" xmlns="http://www.w3.org/2000/svg">
<path d="M787.685 12.0609C791.517 11.7393 795.126 12.2218 797.443 16.9389C798.557 19.2439 800.25 18.9223 801.587 18.3862C806.132 16.6173 810.676 14.2587 815.177 12.1145C816.424 11.5249 817.627 10.6672 818.875 10.292C829.613 7.02215 840.128 8.73748 850.732 8.09423C859.154 7.55819 867.04 11.0425 875.461 10.6672C879.115 10.5064 882.857 13.7763 885.887 16.8853C890.833 21.8705 896.492 25.0868 901.215 30.7688C904.69 35.0035 909.725 36.3436 914.359 37.0405C922.423 38.2198 930.666 36.5581 938.686 31.0904C939.488 30.5544 940.959 31.2512 941.226 30.608C942.874 26.5877 945.682 27.6062 947.731 25.5156C948.177 25.0332 948.8 23.5858 948.756 23.425C947.82 21.8169 947.642 20.584 949.558 20.6912C957.222 21.1737 965.063 16.9925 972.683 18.6007C976.024 19.2975 979.321 20.316 982.708 20.5304C984.757 20.6912 986.896 21.7097 989.124 18.8687C989.926 17.8502 992.599 17.7966 992.911 18.7079C994.604 23.6931 998.035 17.6358 999.906 20.3696C1001.42 15.17 1003.65 22.889 1005.21 18.6543C1006.86 20.852 1008.73 15.0628 1010.33 18.011C1010.73 17.2605 1011.49 16.4029 1011.49 15.706C1011.54 14.7948 1012.87 11.9537 1010.42 13.2938C1009.53 13.7763 1008.37 12.8114 1007.35 12.3826C1007.08 12.2754 1006.95 11.5785 1006.72 11.1497C1007.12 10.8816 1007.53 10.5064 1007.93 10.3456C1008.77 10.0776 1009.75 10.2384 1010.47 9.59515C1011.58 8.57667 1012.92 7.18296 1011.22 5.19961C1010.78 4.66356 1010.38 2.62661 1010.56 2.46579C1011.4 1.44731 1012.43 0.750459 1013.41 0C1014.03 3.37706 1016.53 -0.750459 1017.73 1.92975C1019.11 5.0924 1022.54 0.64325 1024.41 3.53788C1025.66 1.50092 1026.86 1.2329 1027.62 3.48427C1028.82 6.96854 1032.79 5.41402 1033.15 10.292C1036.71 10.9889 1040.32 13.0794 1043.79 12.0073C1049.14 10.3456 1054.44 11.8465 1059.52 9.91677C1067.05 7.12936 1074.05 8.84469 1081.31 8.25504C1088.57 7.6654 1095.7 8.52307 1103.1 6.3789C1109.92 4.39554 1116.24 8.84469 1123.15 8.46946C1129.74 8.09423 1136.43 4.71717 1142.93 6.11088C1145.83 6.75413 1148.86 5.57484 1151.71 7.93342C1153.54 9.43434 1156.52 8.73748 1158.97 8.04063C1160.75 7.55819 1162.49 5.41402 1164.27 4.07392C1166.01 2.73381 1167.26 7.55819 1169.22 4.07392C1174.66 4.93159 1180.14 2.78742 1185.62 2.14417C1187.67 1.87615 1189.8 1.3401 1191.81 3.59148C1193.41 5.46763 1196.35 -0.64325 1198.76 3.8059C1199.79 5.73565 1203.26 1.87615 1205.53 3.53788C1205.76 3.69869 1206.87 3.21625 1207.85 3.59148C1211.99 5.25321 1216.36 5.68204 1220.41 8.04063C1221.84 8.84469 1223.85 8.84469 1225.32 6.27169C1226.12 8.8983 1228.03 7.50459 1229.28 8.30865C1234.76 11.7393 1241.31 9.97038 1246.7 14.0979C1248.17 15.2236 1251.16 12.5434 1253.43 11.5785C1254.46 11.1497 1255.97 9.86317 1256.46 10.3992C1259.45 13.7227 1263.19 11.8465 1266.53 12.2754C1269.07 12.597 1271.57 12.2218 1273.93 14.2051C1275.8 15.8132 1278.74 12.9722 1280.7 16.0813C1281.37 17.1533 1283.24 16.4029 1284.53 16.4029C1286.98 16.4565 1289.48 16.1349 1291.88 16.5101C1293.49 16.7245 1295.4 17.1533 1296.38 18.7079C1297.14 19.8872 1296.74 22.9426 1296.69 25.194C1296.61 28.7854 1298.12 30.0719 1300.3 28.035C1300.88 27.4989 1301.33 26.4269 1301.95 25.8908C1305.7 22.6746 1309.39 20.048 1313.76 20.3696C1317.1 20.6376 1320.58 21.9777 1324.14 18.6007C1324.99 17.7966 1326.37 18.3326 1327.44 18.547C1328.51 18.7615 1329.71 20.1016 1330.56 19.5655C1331.67 18.8687 1332.52 17.7966 1333.36 19.4047C1334.17 20.9056 1335.01 21.0128 1336.17 19.5655C1336.44 19.2439 1337.42 19.5655 1337.42 19.7263C1337.42 24.1755 1339.29 25.1404 1341.7 24.6579C1343.61 24.2827 1344.9 29.4287 1347.4 24.8187C1348.07 23.5858 1349.81 23.5858 1351.05 23.0498C1352.61 22.3529 1354.53 21.7633 1354.93 24.4971C1355.46 27.9278 1357.6 28.571 1358.67 30.9296C1359.52 32.8058 1359.74 34.3603 1357.6 35.1643C1356.58 35.5396 1355.64 36.7189 1354.62 37.1477C1353.01 37.791 1353.9 38.4342 1354.08 39.6671C1354.48 42.2937 1353.19 45.1347 1351.54 45.4563C1350.21 45.7244 1348.87 45.2419 1347.53 45.6172C1346.95 45.778 1346.15 47.0645 1345.88 48.0293C1345.08 50.8168 1346.37 52.2105 1347.44 53.7114C1347.71 53.1217 1348.02 52.6393 1348.16 51.9961C1348.42 50.8704 1348.34 49.1014 1349.63 50.6024C1350.38 51.5136 1351.28 52.1033 1352.12 52.8537C1351.19 53.8722 1350.34 55.2123 1349.32 55.8556C1346.24 57.6781 1346.29 57.5709 1345.84 63.9498C1345.71 65.7187 1343.03 67.8093 1346.29 69.0958C1347.67 69.6318 1346.11 75.5283 1344.24 78.7446C1342.99 80.9423 1342.01 83.7297 1341.38 86.4099C1340.81 89.0366 1340.81 91.9312 1340.63 94.665C1340.49 96.5947 1340.32 98.0421 1342.19 95.9515C1344.15 93.7001 1346.91 93.8609 1348.34 89.4654C1349.18 86.7316 1351.19 86.1955 1352.97 87.482C1355.29 89.1974 1357.51 91.2879 1360.41 91.1271C1360.99 91.0735 1360.72 91.1271 1360.19 93.3785C1359.83 94.8794 1360.05 96.9164 1360.54 98.2565C1360.94 99.3822 1362.06 99.811 1362.91 100.561C1361.84 100.883 1360.63 100.776 1359.74 101.58C1358.49 102.759 1356.27 104.314 1357.38 106.887C1358.98 110.478 1356.22 111.711 1355.73 111.604C1352.66 111.014 1351.14 114.767 1349.36 117.34C1346.37 121.574 1347.09 126.399 1350.74 128.436C1351.5 128.864 1352.21 129.4 1352.79 130.151C1353.1 130.526 1353.24 131.92 1353.06 132.242C1351.9 134.064 1350.56 135.672 1349.36 137.441C1348.78 138.299 1348.38 139.371 1347.89 140.336C1348.69 141.193 1349.54 142.909 1350.34 142.748C1353.1 142.158 1355.2 144.463 1357.65 144.946C1359.65 145.375 1359.43 146.822 1358.32 148.966C1357.65 150.306 1357.07 151.753 1356.53 153.254C1356.31 153.898 1356.22 155.077 1356.44 155.399C1358.67 158.668 1358.18 159.901 1354.97 159.58C1354.66 159.526 1353.9 160.92 1353.86 161.617C1353.77 162.957 1354.48 164.618 1354.13 165.476C1352.7 168.853 1354.93 167.084 1355.24 167.835C1355.6 168.692 1355.73 170.569 1355.33 171.212C1352.52 175.875 1354.48 176.036 1356.85 176.09C1357.2 176.09 1357.51 176.679 1357.83 177.055C1357.25 177.43 1356.67 177.751 1356.09 178.127C1354.62 179.092 1354.44 180.7 1355.33 181.986C1356.93 184.291 1358.67 186.382 1360.41 188.419C1360.86 188.955 1361.75 188.74 1362.06 189.384C1363.22 191.903 1365.04 194.476 1365 197.317C1364.95 200.212 1362.28 201.659 1360.37 203.428C1358.05 205.518 1355.51 207.877 1353.9 211.79C1352.97 214.042 1351.63 214.095 1350.7 211.951C1349.85 209.968 1349.09 208.627 1347.36 211.522C1346.33 213.237 1344.77 214.149 1343.43 215.435C1342.5 212.165 1341.03 215.382 1339.83 215.435C1339.16 215.435 1338.04 215.167 1337.91 215.596C1337.37 217.043 1336.97 218.759 1336.93 220.313C1336.93 220.796 1338.31 221.707 1338.84 221.385C1343.35 218.651 1347.49 217.472 1351.5 221.546C1353.15 223.208 1352.97 224.602 1351.68 225.834C1349.36 228.086 1347.04 231.892 1344.06 228.997C1343.7 228.675 1342.72 229.908 1342.14 229.801C1340.32 229.372 1338.8 231.409 1337.15 231.945C1333.72 233.071 1330.29 230.123 1326.86 233.982C1326.24 231.838 1324.9 231.892 1323.52 232.053C1320.67 232.321 1317.77 229.319 1314.83 233.875C1314.61 234.197 1313.23 232.16 1312.29 232.213C1311.35 232.267 1310.24 234.089 1309.35 234.036C1303.51 233.607 1302.53 233.768 1296.29 237.413C1295.27 238.003 1294.16 238.163 1293.09 238.271C1291.53 238.378 1290.19 238.378 1291.88 241.165C1291.93 241.219 1291.35 242.398 1291.17 242.345C1287.69 241.648 1284.17 244.113 1280.83 244.221C1276.6 244.382 1272.28 243.47 1268.36 241.648C1266.71 240.897 1266.08 241.058 1264.48 242.077C1261.9 243.685 1259.94 240.147 1257.49 239.557C1257.84 238.592 1258.6 237.359 1258.47 236.662C1257.26 230.766 1252.94 232.803 1250.27 230.659C1248.4 233.339 1246.39 231.945 1244.47 231.999C1239.71 232.106 1235.07 231.945 1230.35 235.644C1228.66 236.931 1226.39 236.287 1224.42 236.234C1219.03 236.019 1213.51 237.145 1208.43 240.629C1201.3 245.561 1193.95 244.596 1186.82 248.455C1184.15 249.903 1180.85 249.527 1178.18 248.455C1175.77 247.491 1173.23 251.993 1171.18 248.777C1168.46 252.744 1165.61 250.224 1162.8 250.653C1161.65 250.814 1160.58 249.259 1159.37 249.206C1157.72 249.045 1155.85 248.831 1154.38 249.956C1151.44 252.208 1148.59 253.333 1145.52 252.905C1144 252.69 1142.62 252.797 1141.15 254.834C1139.46 257.139 1139.19 250.224 1136.69 253.655C1135.18 255.692 1133.8 252.958 1132.42 252.583C1130.81 252.1 1129.43 256.764 1127.87 253.226C1127.43 252.208 1124.62 252.529 1123.55 253.709C1121.41 256.067 1119.36 255.37 1117.76 254.727C1116.15 254.084 1115.04 254.084 1113.39 254.888C1111.92 255.585 1110.27 255.049 1108.71 255.049C1106.93 255.049 1105.01 254.352 1103.37 255.156C1095.21 259.23 1087.5 256.067 1079.57 257.086C1071.29 252.958 1062.2 255.049 1053.42 255.317C1046.91 255.531 1040.05 255.746 1033.72 260.784C1031.41 262.661 1030.47 259.015 1028.07 260.516C1024.46 262.714 1020.36 262.821 1016.48 263.197C1014.43 263.411 1012.16 264.269 1010.33 261.535C1009.53 260.356 1007.35 261.32 1005.79 261.213C1004.58 261.16 1003.2 264.644 1002.22 261.374C999.372 263.679 996.476 258.587 993.535 263.197C993.446 263.357 992.287 261.32 991.619 261.428C988.411 261.91 985.426 260.088 981.906 263.089C978.386 266.038 972.148 265.609 967.336 265.502C961.722 265.394 956.019 264.001 950.271 267.539C948.622 268.557 947.419 269.039 945.949 267.592C944.835 266.52 943.498 268.825 942.34 269.307C941.137 269.79 938.954 267.324 938.597 267.967C936.859 270.916 936.503 267.27 935.478 267.485C935.077 267.592 934.587 267.699 934.231 268.075C931.825 270.648 929.597 269.843 927.369 268.879C926.923 268.664 926.433 268.503 925.988 268.289C924.829 274.453 923.493 271.612 922.2 269.2C921.309 267.539 920.596 266.788 918.948 268.557C917.21 270.433 915.383 270.272 912.22 269.575C911.774 269.468 911.329 269.415 910.883 269.575C904.155 272.256 897.516 273.113 891.234 269.897C887.001 273.757 882.947 270.648 878.803 271.559C878.357 271.666 877.867 270.808 877.422 270.433C878.045 270.165 878.714 270.004 879.248 269.522C879.828 269.039 880.451 268.289 880.852 267.485C881.075 267.002 881.12 265.609 880.941 265.502C879.204 264.697 877.466 263.786 875.639 263.411C873.813 263.089 873.01 264.805 874.035 267.002C874.659 268.45 874.659 269.147 873.634 270.004C872.877 270.648 872.03 271.076 871.228 271.612C871.139 270.487 870.649 268.771 871.005 268.289C872.609 265.93 873.233 263.518 871.897 261.213C871.184 259.927 872.298 256.282 870.159 257.3C869.09 257.783 868.154 259.873 867.352 261.428C866.995 262.178 867.307 263.625 866.951 264.376C866.639 265.019 865.391 265.609 865.258 265.341C863.475 261.696 861.025 260.57 857.951 261.213C856.703 261.481 856.837 260.731 857.505 259.015C858.485 256.282 857.728 252.797 856.302 253.173C852.737 254.084 849.93 250.385 845.92 252.637C842.534 254.513 838.747 252.851 834.915 254.834C832.643 256.014 830.147 254.888 828.142 258.694C827.741 259.498 825.335 259.444 825.202 258.855C824.623 256.335 824.222 254.459 821.86 254.942C820.078 255.263 818.474 255.585 816.87 257.139C816.558 257.461 815.979 257.246 815.533 257.193C814.82 257.032 813.706 257.461 814.731 255.156C815.578 253.226 816.068 250.975 816.736 248.884C816.87 248.402 817.048 247.919 817.182 247.437C816.781 247.276 816.335 246.74 816.068 246.954C812.949 249.42 813.484 239.986 809.607 243.685C807.602 245.614 804.528 248.402 802.701 243.309C802.478 242.72 801.542 242.827 800.919 242.72C795.527 242.13 794.324 241.648 789.913 237.091C788.398 235.483 787.507 238.431 786.572 238.217C785.012 237.842 783.274 236.984 782.294 235.322C780.779 232.749 779.309 237.038 778.507 235.805C777.081 233.553 775.165 235.054 773.606 234.358C772.848 234.036 772.314 232.964 771.601 232.428C771.467 232.321 770.621 233.768 770.665 233.875C772.225 237.252 769.685 238.217 768.749 238.378C766.299 238.914 763.803 238.753 761.397 238.485C760.417 238.378 759.571 236.555 758.724 236.823C757.788 237.091 757.031 239.289 756.051 239.932C755.07 240.576 753.422 241.112 752.976 240.361C751.996 238.699 750.882 238.431 749.545 238.539C747.451 238.699 745.357 237.788 743.352 240.254C744.065 234.679 740.1 237.842 739.164 235.269C738.451 233.339 736.936 238.271 736.312 235.001C736.223 234.411 735.51 233.929 735.555 233.553C735.778 232.267 738.362 230.498 735.332 230.176C734.352 230.069 733.193 229.426 732.659 228.354C730.297 223.476 726.465 221.707 723.168 219.08C721.609 217.847 719.336 218.598 717.599 217.794C714.836 216.507 712.386 215.435 709.49 219.134C708.643 220.206 706.95 219.831 705.658 219.938C699.019 220.528 692.692 224.066 686.32 228.086C684.805 229.051 684.805 230.069 684.538 231.677C684.003 234.572 682.89 236.502 680.751 236.555C677.543 236.609 674.914 237.681 672.553 240.576C671.216 242.184 670.681 242.613 669.523 240.79C668.988 239.932 667.295 240.2 666.27 240.736C660.3 243.845 654.685 243.953 649.205 240.79C647.868 240.04 646.086 240.736 644.527 240.683C642.165 240.629 639.759 241.219 638.111 237.627C637.487 236.287 634.992 237.038 633.343 237.199C632.318 237.306 630.803 239.021 630.358 238.485C627.996 235.483 625.813 237.895 623.496 239.557C620.511 241.701 620.555 241.54 619.62 236.555C619.442 235.644 618.684 234.786 618.06 234.626C617.036 234.304 616.234 234.358 615.565 236.823C613.159 245.454 609.238 248.402 604.159 245.99L599.079 245.507C597.03 248.938 595.426 245.186 593.421 245.775C591.594 246.311 589.5 245.722 587.807 244.757C585.668 243.577 587.762 250.707 585 247.866C584.064 246.901 582.282 247.759 581.391 246.847C578.985 244.328 576.133 245.025 573.326 244.864C572.524 244.81 571.544 244.757 570.965 244.113C569.138 241.969 567.623 242.559 565.751 245.132C563.078 248.723 559.113 249.581 556.395 246.686C554.969 245.186 554.211 244.167 552.563 246.579C551.805 247.705 550.647 248.241 549.667 249.045C549.488 244.703 545.3 249.42 545.033 244.489C544.899 242.023 543.696 238.592 540.845 242.237C540.444 242.72 538.439 241.058 539.552 238.967C540.8 236.662 540.444 235.644 539.642 233.821C538.617 231.463 537.547 234.733 537.236 234.25C535.899 232.267 533.983 231.195 533.493 227.925C532.602 222.243 531.042 219.509 527.032 218.169C524.938 217.472 529.082 212.862 525.829 213.881C523.2 214.685 521.329 210.504 518.121 213.613C516.027 215.65 512.908 214.524 510.636 216.293C509.076 217.526 507.739 217.955 506.224 218.008C504.665 218.062 501.635 215.167 502.036 215.006C503.284 214.363 504.576 214.095 505.868 213.934C508.096 213.666 507.784 213.345 509.789 210.021C512.462 205.518 512.106 199.944 513.754 195.173C514.022 194.476 513.665 193.082 513.309 192.332C512.462 190.509 511.571 188.633 510.413 187.239C509.388 186.007 510.814 181.665 508.051 182.897C507.606 180.539 507.116 178.234 506.804 175.822C506.715 175.018 506.893 173.624 507.294 173.142C507.695 172.659 508.898 172.498 509.032 172.874C510.502 177.215 512.462 172.177 514.111 172.498C514.334 172.552 514.69 171.748 514.957 171.319C514.601 171.051 514.289 170.676 513.888 170.515C511.348 169.228 509.611 165.851 510.858 162.957C511.794 160.813 510.101 158.615 512.106 156.631C512.819 155.935 513.398 151.432 511.883 149.234C511.794 149.127 512.061 148.055 512.284 147.84C513.309 146.929 515.002 149.288 515.403 146.339C515.537 145.482 513.175 144.785 512.73 143.338C512.418 142.266 513.086 139.317 513.844 138.62C515.492 137.066 517.408 136.101 519.235 135.404C520.527 134.922 521.953 135.672 523.245 135.19C524.225 134.868 525.874 133.528 525.963 132.563C526.275 129.883 524.537 131.491 523.69 131.223C522.086 130.741 522.265 129.186 523.067 127.632C523.601 126.559 524.492 125.273 525.25 125.112C526.809 124.737 528.369 125.005 529.928 125.005C531.666 124.951 530.641 120.073 533.092 120.77C535.765 121.521 535.364 119.591 534.339 117.34C534.161 116.964 534.518 115.517 534.651 115.517C537.458 114.82 539.196 109.299 542.493 110.425C544.365 111.014 546.548 110.21 548.508 110.639C550.157 110.961 552.073 107.262 553.499 110.478C553.588 110.693 554.612 109.781 555.236 109.353C559.246 106.726 562.633 100.99 567.311 102.009C568.38 96.5947 570.965 98.2565 573.192 98.0957C573.638 98.0421 574.128 98.0957 574.44 97.7204C575.153 96.8628 575.732 95.7907 576.4 94.8258C575.821 94.5578 575.242 93.8609 574.707 94.0217C572.524 94.7722 570.786 90.9663 568.38 93.8609C568.247 94.0217 567.445 92.9497 566.954 92.36C566.643 91.9312 566.375 91.3951 566.108 90.9127C566.464 90.5375 566.865 89.8406 567.133 89.8406C570.875 90.4303 574.262 86.9996 577.782 85.5523C578.183 85.3915 578.717 83.8905 578.717 83.1401C578.717 82.4968 578.049 81.8 577.559 81.532C576.4 80.8351 574.574 82.8721 573.95 80.0311C577.069 75.4211 572.034 78.7446 572.613 76.3324C572.747 75.7963 571.499 74.4562 571.633 74.2418C572.212 73.1161 572.925 71.8296 573.727 71.3472C574.529 70.8647 575.465 71.1328 576.356 71.1328C578.361 71.1328 580.366 71.1864 582.415 71.0791C583.574 71.0255 585.445 72.0976 585.356 68.6134C585.267 65.5579 583.262 66.8444 582.193 67.1124C579.876 67.7021 577.559 70.0071 575.197 68.9886C574.529 68.7206 573.95 67.9165 573.504 67.1124C573.415 66.9516 574.262 64.9683 574.529 65.0219C578.316 65.1291 578.272 57.3029 581.613 56.5524C581.703 56.5524 582.014 54.8907 581.792 54.6227C581.257 53.765 580.589 52.9073 579.831 52.5857C578.405 52.0497 578.806 51.2456 579.698 50.1735C580.232 49.5303 580.811 48.9406 581.391 48.4046C581.925 47.9221 582.505 47.6005 583.039 47.2253C582.46 46.9037 581.703 46.8501 581.391 46.2068C581.034 45.3491 581.034 44.0626 580.901 42.937C581.346 43.1514 581.792 43.3658 582.282 43.5266C582.594 43.5802 583.084 43.6874 583.217 43.4194C584.376 40.7928 585.222 37.791 586.292 37.4157C588.119 36.8261 590.124 37.5765 591.95 38.2734C593.688 38.9702 595.248 40.3103 596.941 41.2752C597.787 41.7577 598.678 42.1329 599.525 42.5617C598.099 43.741 597.431 47.0645 595.381 46.582C594.936 46.4748 594.446 46.5284 594 46.4748C594.267 47.4933 594.446 48.6726 594.847 49.5303C595.159 50.1199 595.738 50.3343 596.228 50.7632C595.827 51.0848 595.47 51.4064 595.025 51.6208C594.802 51.728 594.579 51.5672 594.356 51.6744C593.153 52.1033 591.549 50.3879 590.792 53.1217C589.723 56.9276 592.708 55.3195 593.421 57.1421C594.178 59.0718 597.342 56.4988 597.208 61.484C597.164 64.1106 598.99 64.1642 600.372 61.5912C600.995 60.4119 601.664 59.5006 602.287 61.3232L608.213 64.1642C611.912 63.5746 615.476 65.6651 619.263 62.2345C620.333 61.2696 621.937 61.9128 622.561 64.057C623.585 62.3953 624.788 62.1273 626.17 62.02C627.595 61.8592 629.021 60.5727 630.492 60.0903C631.962 59.6079 631.427 59.1254 631.16 57.6781C630.67 55.0515 631.962 52.1033 633.521 51.8352C634.813 51.6208 636.106 52.0497 637.353 52.3177C637.843 52.4249 638.512 53.3362 638.645 53.1754C642.21 48.083 645.284 51.3528 647.156 54.1402C649.963 58.2677 649.428 51.2992 651.121 51.6744C653.794 52.2105 656.913 50.1735 657.983 46.6892C659.052 43.2586 660.077 43.9554 661.503 43.473C662.706 43.0978 663.998 42.1865 665.067 41.0072C666.582 39.3455 667.74 38.0054 666.448 34.4139C665.067 30.608 667.384 26.3197 669.166 22.6746C669.567 21.8705 670.236 20.9592 670.815 20.852C674.023 19.9944 677.365 18.7079 680.483 18.9223C683.335 19.0831 685.964 20.9592 688.726 22.0849C689.306 22.2993 690.197 23.1034 690.419 22.7818C694.385 17.0997 695.187 22.5674 696.167 25.8908C697.237 29.5895 699.598 27.4453 701.291 28.1958C702.316 28.6246 704.276 26.5341 704.856 27.2845C705.791 28.4638 706.059 30.9832 706.415 33.0738C706.772 35.1107 704.945 38.1126 706.905 39.3455C708.554 40.364 710.381 41.2752 712.207 41.3824C715.326 41.4896 718.445 42.3473 721.698 40.1495C721.965 39.9351 722.544 42.5081 723.346 39.8815C723.658 38.9166 724.371 37.6301 724.951 37.4157C727.713 36.5045 730.698 36.8261 733.238 35.0035C735.911 33.0738 737.293 36.0756 739.387 35.9148C739.654 35.9148 742.728 38.595 738.763 39.6135C737.515 39.9351 736.134 42.4545 736.223 45.3491C736.312 47.8149 736 50.2271 733.684 49.9591C733.55 51.1384 733.104 52.6929 733.372 53.4434C734.352 55.9628 737.293 56.6596 739.075 55.4803C740.946 54.2474 740.634 48.7262 743.219 49.8519C745.981 51.0848 745.045 44.8131 747.763 45.0275C749.011 45.1347 748.699 40.2031 746.56 39.3455C745.981 39.1311 745.446 38.7022 744.912 38.3806C745.491 38.0054 746.159 37.8446 746.649 37.2549C748.031 35.8076 749.367 34.8427 750.971 35.1643C753.021 35.6468 754.625 35.1643 755.561 31.144C756.496 26.9629 758.412 24.0147 761.576 24.6579C767.546 18.1182 774.853 19.3511 780.958 13.1866C782.784 11.4177 785.458 12.329 787.685 12.0609ZM589.322 91.0199C589.678 90.8055 590.747 90.4839 591.639 89.6262C592.084 89.1974 592.129 87.2676 592.485 87.1068C594.356 86.3027 596.451 88.1253 598.099 84.8018C598.5 88.2861 600.416 84.4802 601.396 85.7131C601.931 86.3563 603.179 86.8924 603.535 86.4099C607.768 80.6207 612.491 80.5671 617.258 80.6207C618.328 80.6207 619.887 80.7815 620.377 79.8166C622.65 75.6355 625.368 76.1716 627.863 76.6004C632.14 77.3508 635.259 74.617 637.799 69.0422C638.2 68.1845 638.734 66.7372 638.556 66.2012C638.2 65.2363 637.264 63.9498 636.685 64.1642C634.011 65.2363 631.383 67.3805 628.709 68.0237C625.635 68.7742 628.085 70.2751 627.907 71.4544C627.729 72.9017 625.724 73.5985 624.967 73.0089C624.209 72.4193 624.075 69.0422 622.828 71.3472C620.956 74.885 619.575 68.0237 618.016 72.2048C616.902 68.5061 613.917 71.5616 612.313 69.5782C612.001 69.1494 611.332 68.8278 610.976 69.0958C607.59 71.6688 607.456 71.9904 605.54 70.1679C604.07 68.7742 602.911 68.7206 601.218 70.1679C599.926 71.2936 598.367 71.8832 596.941 72.2584C595.604 72.5801 594.267 72.3657 592.931 72.312C589.634 72.2048 594.802 77.2972 591.728 76.2788C588.698 75.2603 587.673 81.2639 585.089 80.6207C585.044 81.3712 584.821 82.3896 585.044 82.7649C585.579 83.6225 586.47 83.9442 586.96 84.8018C587.406 85.5523 587.94 87.482 587.807 87.6964C585.044 91.2879 587.005 90.9663 589.322 91.0199ZM916.319 196.995C917.388 196.352 917.789 196.084 918.19 195.87C917.834 195.441 917.567 194.744 917.121 194.583C916.809 194.476 916.364 194.958 915.963 195.226C916.141 195.977 916.275 196.674 916.319 196.995Z" fill="#FFE68E"/>
<path d="M314.817 210.697C319.039 210.278 323.016 210.906 325.57 217.046C326.797 220.045 328.663 219.627 330.136 218.929C335.144 216.627 340.152 213.557 345.111 210.767C346.486 209.999 347.812 208.883 349.186 208.395C361.019 204.139 372.607 206.372 384.293 205.534C393.572 204.837 402.263 209.371 411.543 208.883C415.569 208.674 419.693 212.929 423.032 216.976C428.482 223.464 434.718 227.65 439.922 235.045C443.752 240.556 449.3 242.3 454.407 243.207C463.294 244.742 472.377 242.579 481.215 235.463C482.099 234.766 483.719 235.673 484.014 234.835C485.83 229.603 488.924 230.929 491.182 228.208C491.673 227.58 492.361 225.696 492.312 225.487C491.28 223.394 491.084 221.789 493.195 221.929C501.64 222.557 510.282 217.115 518.678 219.208C522.36 220.115 525.994 221.441 529.725 221.72C531.984 221.929 534.341 223.255 536.796 219.557C537.679 218.232 540.625 218.162 540.969 219.348C542.835 225.836 546.616 217.952 548.678 221.51C550.347 214.743 552.802 224.789 554.521 219.278C556.337 222.138 558.399 214.604 560.167 218.441C560.609 217.464 561.444 216.348 561.444 215.441C561.493 214.255 562.966 210.557 560.265 212.302C559.283 212.929 558.007 211.674 556.877 211.116C556.583 210.976 556.435 210.069 556.19 209.511C556.632 209.162 557.074 208.674 557.516 208.465C558.449 208.116 559.529 208.325 560.314 207.488C561.542 206.162 563.015 204.348 561.149 201.767C560.658 201.069 560.216 198.418 560.413 198.209C561.345 196.884 562.475 195.977 563.555 195C564.242 199.395 566.992 194.023 568.318 197.512C569.84 201.628 573.62 195.837 575.682 199.604C577.057 196.953 578.383 196.605 579.218 199.535C580.543 204.069 584.913 202.046 585.306 208.395C589.234 209.302 593.211 212.022 597.041 210.627C602.933 208.465 608.776 210.418 614.373 207.906C622.671 204.279 630.379 206.511 638.383 205.744C646.386 204.976 654.242 206.093 662.392 203.302C669.904 200.721 676.877 206.511 684.487 206.023C691.754 205.534 699.119 201.139 706.287 202.953C709.479 203.79 712.817 202.255 715.96 205.325C717.973 207.279 721.263 206.372 723.963 205.465C725.927 204.837 727.842 202.046 729.806 200.302C731.721 198.558 733.096 204.837 735.256 200.302C741.246 201.418 747.285 198.628 753.325 197.791C755.583 197.442 757.94 196.744 760.149 199.674C761.917 202.116 765.158 194.163 767.809 199.953C768.938 202.465 772.768 197.442 775.272 199.604C775.518 199.814 776.745 199.186 777.825 199.674C782.391 201.837 787.203 202.395 791.671 205.465C793.242 206.511 795.452 206.511 797.072 203.162C797.956 206.581 800.067 204.767 801.442 205.813C807.481 210.278 814.699 207.976 820.64 213.348C822.26 214.813 825.55 211.325 828.054 210.069C829.183 209.511 830.853 207.837 831.393 208.534C834.682 212.86 838.807 210.418 842.489 210.976C845.288 211.395 848.037 210.906 850.64 213.488C852.702 215.58 855.943 211.883 858.103 215.929C858.839 217.325 860.902 216.348 862.325 216.348C865.026 216.418 867.775 215.999 870.427 216.487C872.194 216.766 874.306 217.325 875.386 219.348C876.221 220.883 875.779 224.859 875.73 227.789C875.631 232.463 877.301 234.138 879.707 231.487C880.345 230.789 880.836 229.394 881.523 228.696C885.648 224.51 889.723 221.092 894.535 221.51C898.217 221.859 902.047 223.603 905.975 219.208C906.908 218.162 908.43 218.859 909.608 219.138C910.787 219.417 912.112 221.162 913.045 220.464C914.273 219.557 915.206 218.162 916.139 220.255C917.022 222.208 917.955 222.348 919.232 220.464C919.526 220.045 920.607 220.464 920.607 220.673C920.607 226.464 922.669 227.719 925.32 227.092C927.431 226.603 928.855 233.301 931.605 227.301C932.341 225.696 934.256 225.696 935.631 224.999C937.35 224.092 939.461 223.324 939.903 226.882C940.492 231.347 942.849 232.184 944.027 235.254C944.96 237.696 945.205 239.719 942.849 240.765C941.719 241.254 940.688 242.789 939.559 243.347C937.791 244.184 938.773 245.021 938.97 246.626C939.412 250.044 937.988 253.742 936.171 254.16C934.698 254.509 933.225 253.881 931.752 254.369C931.114 254.579 930.23 256.253 929.935 257.509C929.052 261.137 930.476 262.95 931.654 264.904C931.949 264.136 932.292 263.509 932.44 262.671C932.734 261.206 932.636 258.904 934.06 260.857C934.895 262.043 935.877 262.811 936.809 263.788C935.778 265.113 934.845 266.857 933.716 267.694C930.328 270.066 930.377 269.927 929.886 278.229C929.739 280.531 926.793 283.252 930.377 284.926C931.899 285.624 930.181 293.298 928.119 297.484C926.744 300.344 925.664 303.972 924.976 307.46C924.338 310.878 924.338 314.646 924.142 318.204C923.994 320.715 923.798 322.599 925.86 319.878C928.021 316.948 931.065 317.157 932.636 311.437C933.569 307.879 935.778 307.181 937.742 308.855C940.295 311.088 942.75 313.809 945.942 313.599C946.58 313.529 946.286 313.599 945.696 316.529C945.304 318.483 945.549 321.134 946.089 322.878C946.531 324.343 947.759 324.901 948.691 325.878C947.513 326.296 946.187 326.157 945.205 327.203C943.831 328.738 941.376 330.761 942.603 334.11C944.371 338.784 941.327 340.389 940.786 340.249C937.399 339.482 935.729 344.365 933.765 347.714C930.476 353.225 931.261 359.504 935.287 362.155C936.122 362.713 936.908 363.411 937.546 364.388C937.89 364.876 938.037 366.69 937.841 367.108C936.564 369.48 935.091 371.573 933.765 373.876C933.127 374.992 932.685 376.387 932.145 377.643C933.029 378.759 933.962 380.992 934.845 380.782C937.89 380.015 940.197 383.015 942.898 383.643C945.107 384.201 944.862 386.084 943.634 388.875C942.898 390.619 942.259 392.503 941.67 394.456C941.425 395.293 941.327 396.828 941.572 397.247C944.027 401.502 943.487 403.107 939.952 402.688C939.608 402.618 938.773 404.432 938.724 405.339C938.626 407.083 939.412 409.246 939.019 410.362C937.448 414.757 939.903 412.455 940.246 413.432C940.639 414.548 940.786 416.99 940.345 417.827C937.251 423.897 939.412 424.106 942.014 424.176C942.407 424.176 942.75 424.943 943.094 425.431C942.456 425.92 941.818 426.338 941.179 426.827C939.559 428.082 939.363 430.175 940.345 431.85C942.112 434.85 944.027 437.57 945.942 440.221C946.433 440.919 947.415 440.64 947.759 441.477C949.035 444.756 951.048 448.105 950.999 451.802C950.95 455.57 948.004 457.453 945.893 459.755C943.34 462.476 940.541 465.546 938.773 470.639C937.742 473.569 936.269 473.638 935.238 470.848C934.305 468.267 933.471 466.523 931.556 470.29C930.427 472.522 928.708 473.708 927.235 475.383C926.204 471.127 924.584 475.313 923.258 475.383C922.521 475.383 921.294 475.034 921.147 475.592C920.557 477.476 920.116 479.708 920.066 481.731C920.066 482.359 921.589 483.545 922.178 483.126C927.137 479.568 931.703 478.034 936.122 483.336C937.939 485.498 937.742 487.312 936.318 488.917C933.765 491.847 931.212 496.8 927.922 493.033C927.53 492.614 926.449 494.219 925.811 494.079C923.798 493.521 922.129 496.172 920.312 496.87C916.531 498.335 912.751 494.498 908.97 499.521C908.283 496.73 906.81 496.8 905.288 497.01C902.145 497.358 898.954 493.452 895.713 499.382C895.468 499.8 893.945 497.149 892.914 497.219C891.883 497.289 890.656 499.661 889.674 499.591C883.242 499.033 882.162 499.242 875.288 503.986C874.158 504.753 872.931 504.963 871.753 505.102C870.034 505.242 868.561 505.242 870.427 508.869C870.476 508.939 869.838 510.474 869.641 510.404C865.812 509.497 861.933 512.707 858.25 512.846C853.586 513.055 848.823 511.869 844.502 509.497C842.686 508.521 841.998 508.73 840.231 510.055C837.383 512.148 835.223 507.544 832.522 506.777C832.915 505.521 833.75 503.916 833.602 503.009C832.277 495.335 827.514 497.986 824.568 495.196C822.506 498.684 820.296 496.87 818.185 496.94C812.931 497.079 807.825 496.87 802.62 501.684C800.755 503.358 798.251 502.521 796.09 502.451C790.149 502.172 784.061 503.637 778.464 508.172C770.608 514.59 762.506 513.334 754.65 518.357C751.704 520.241 748.071 519.753 745.125 518.357C742.474 517.102 739.675 522.962 737.416 518.776C734.421 523.939 731.279 520.66 728.186 521.218C726.909 521.427 725.731 519.404 724.405 519.334C722.588 519.125 720.526 518.846 718.906 520.311C715.665 523.241 712.523 524.706 709.135 524.148C707.466 523.869 705.944 524.008 704.323 526.659C702.458 529.659 702.163 520.66 699.413 525.125C697.744 527.776 696.222 524.218 694.7 523.729C692.932 523.101 691.41 529.171 689.692 524.566C689.201 523.241 686.107 523.659 684.929 525.194C682.572 528.264 680.314 527.357 678.546 526.52C676.778 525.683 675.551 525.683 673.734 526.729C672.114 527.636 670.297 526.938 668.579 526.938C666.615 526.938 664.504 526.031 662.687 527.078C653.702 532.38 645.207 528.264 636.468 529.589C627.335 524.218 617.319 526.938 607.646 527.287C600.478 527.566 592.916 527.845 585.944 534.403C583.391 536.845 582.36 532.101 579.709 534.054C575.732 536.915 571.214 537.054 566.943 537.543C564.684 537.822 562.18 538.938 560.167 535.38C559.283 533.845 556.877 535.101 555.159 534.961C553.833 534.892 552.311 539.426 551.231 535.171C548.089 538.17 544.897 531.543 541.657 537.543C541.558 537.752 540.282 535.101 539.545 535.24C536.01 535.868 532.72 533.496 528.842 537.403C524.963 541.24 518.089 540.682 512.786 540.542C506.599 540.403 500.315 538.589 493.981 543.193C492.164 544.519 490.839 545.147 489.218 543.263C487.991 541.868 486.518 544.868 485.241 545.496C483.915 546.124 481.51 542.914 481.117 543.752C479.202 547.589 478.809 542.845 477.68 543.124C477.238 543.263 476.698 543.403 476.305 543.891C473.654 547.24 471.199 546.193 468.744 544.938C468.253 544.659 467.713 544.449 467.222 544.17C465.945 552.193 464.472 548.496 463.048 545.356C462.066 543.193 461.281 542.217 459.464 544.519C457.549 546.961 455.536 546.751 452.05 545.845C451.559 545.705 451.068 545.635 450.577 545.845C443.163 549.333 435.847 550.449 428.924 546.263C424.26 551.286 419.792 547.24 415.225 548.426C414.734 548.565 414.194 547.449 413.703 546.961C414.391 546.612 415.127 546.403 415.716 545.775C416.355 545.147 417.042 544.17 417.484 543.124C417.729 542.496 417.778 540.682 417.582 540.542C415.667 539.496 413.752 538.31 411.739 537.822C409.726 537.403 408.842 539.635 409.972 542.496C410.659 544.379 410.659 545.286 409.53 546.403C408.695 547.24 407.762 547.798 406.878 548.496C406.78 547.03 406.24 544.798 406.633 544.17C408.4 541.101 409.088 537.961 407.615 534.961C406.829 533.287 408.057 528.543 405.7 529.868C404.522 530.496 403.491 533.217 402.607 535.24C402.214 536.217 402.558 538.101 402.165 539.077C401.821 539.915 400.446 540.682 400.299 540.333C398.335 535.589 395.635 534.124 392.247 534.961C390.872 535.31 391.019 534.333 391.756 532.101C392.836 528.543 392.001 524.008 390.43 524.497C386.502 525.683 383.409 520.869 378.99 523.799C375.258 526.241 371.085 524.078 366.862 526.659C364.358 528.194 361.609 526.729 359.399 531.682C358.957 532.729 356.306 532.659 356.159 531.892C355.52 528.613 355.078 526.171 352.476 526.799C350.512 527.217 348.745 527.636 346.977 529.659C346.633 530.078 345.995 529.799 345.504 529.729C344.718 529.52 343.491 530.078 344.62 527.078C345.553 524.566 346.093 521.636 346.83 518.915C346.977 518.288 347.173 517.66 347.321 517.032C346.879 516.823 346.388 516.125 346.093 516.404C342.656 519.613 343.245 507.335 338.974 512.148C336.764 514.66 333.376 518.288 331.363 511.66C331.118 510.893 330.087 511.032 329.399 510.893C323.458 510.125 322.133 509.497 317.272 503.567C315.602 501.474 314.62 505.311 313.589 505.032C311.871 504.544 309.956 503.428 308.876 501.265C307.206 497.916 305.586 503.498 304.702 501.893C303.131 498.963 301.02 500.916 299.301 500.009C298.467 499.591 297.878 498.196 297.092 497.498C296.945 497.358 296.012 499.242 296.061 499.382C297.779 503.777 294.981 505.032 293.95 505.242C291.249 505.939 288.499 505.73 285.848 505.381C284.768 505.242 283.835 502.87 282.902 503.219C281.871 503.567 281.036 506.428 279.956 507.265C278.876 508.102 277.059 508.8 276.568 507.823C275.488 505.66 274.261 505.311 272.788 505.451C270.48 505.66 268.172 504.474 265.963 507.683C266.748 500.428 262.379 504.544 261.347 501.195C260.562 498.684 258.892 505.102 258.205 500.847C258.107 500.079 257.321 499.451 257.37 498.963C257.616 497.289 260.464 494.986 257.125 494.568C256.045 494.428 254.768 493.591 254.179 492.196C251.577 485.847 247.354 483.545 243.721 480.127C242.002 478.522 239.498 479.499 237.583 478.452C234.539 476.778 231.839 475.383 228.647 480.196C227.714 481.592 225.849 481.103 224.425 481.243C217.109 482.01 210.137 486.615 203.115 491.847C201.446 493.103 201.446 494.428 201.151 496.521C200.562 500.288 199.335 502.8 196.978 502.87C193.443 502.939 190.546 504.335 187.944 508.102C186.471 510.195 185.882 510.753 184.605 508.381C184.016 507.265 182.15 507.614 181.021 508.311C174.441 512.358 168.255 512.497 162.216 508.381C160.743 507.404 158.779 508.311 157.06 508.242C154.458 508.172 151.806 508.939 149.99 504.265C149.302 502.521 146.553 503.498 144.736 503.707C143.607 503.846 141.937 506.079 141.446 505.381C138.844 501.474 136.438 504.614 133.885 506.777C130.595 509.567 130.645 509.358 129.613 502.87C129.417 501.684 128.582 500.568 127.895 500.358C126.766 499.94 125.882 500.009 125.145 503.219C122.494 514.451 118.173 518.288 112.576 515.148L106.979 514.52C104.72 518.985 102.952 514.102 100.743 514.869C98.7299 515.567 96.4222 514.799 94.5564 513.544C92.1997 512.009 94.5073 521.287 91.4632 517.59C90.4321 516.334 88.4681 517.45 87.4861 516.264C84.8347 512.986 81.6924 513.892 78.5991 513.683C77.7153 513.613 76.6351 513.544 75.9968 512.706C73.9837 509.916 72.3144 510.683 70.2522 514.032C67.3062 518.706 62.9364 519.822 59.9413 516.055C58.3701 514.102 57.5354 512.776 55.7187 515.916C54.884 517.381 53.6075 518.078 52.5273 519.125C52.3309 513.474 47.7155 519.613 47.4209 513.195C47.2736 509.986 45.9479 505.521 42.8056 510.265C42.3637 510.893 40.1542 508.73 41.3817 506.009C42.7565 503.009 42.3637 501.684 41.4799 499.312C40.3506 496.242 39.1722 500.498 38.8285 499.87C37.3555 497.289 35.2442 495.893 34.7041 491.638C33.7222 484.243 32.0037 480.685 27.5847 478.941C25.277 478.034 29.8433 472.034 26.259 473.359C23.3622 474.406 21.3 468.964 17.7648 473.011C15.4571 475.662 12.0202 474.197 9.5161 476.499C7.79761 478.103 6.32463 478.661 4.65524 478.731C2.93676 478.801 -0.402006 475.034 0.0398894 474.824C1.41468 473.987 2.83856 473.638 4.26245 473.429C6.71742 473.08 6.37373 472.662 8.5832 468.336C11.5292 462.476 11.1364 455.221 12.9531 449.012C13.2477 448.105 12.8549 446.291 12.4621 445.314C11.5292 442.942 10.5472 440.5 9.2706 438.687C8.14131 437.082 9.71249 431.431 6.66832 433.036C6.17733 429.966 5.63723 426.966 5.29354 423.827C5.19534 422.78 5.39174 420.966 5.83363 420.339C6.27553 419.711 7.60121 419.501 7.74851 419.99C9.3688 425.641 11.5292 419.083 13.3459 419.501C13.5914 419.571 13.9841 418.525 14.2787 417.967C13.886 417.618 13.5423 417.129 13.1004 416.92C10.3017 415.246 8.38681 410.851 9.76159 407.083C10.7927 404.293 8.9269 401.432 11.1364 398.851C11.922 397.944 12.5603 392.084 10.8909 389.224C10.7927 389.084 11.0873 387.689 11.3328 387.41C12.4621 386.224 14.3278 389.293 14.7697 385.456C14.917 384.34 12.3148 383.433 11.8238 381.55C11.4801 380.154 12.2166 376.317 13.0513 375.41C14.8679 373.387 16.9792 372.131 18.9923 371.225C20.4162 370.597 21.9874 371.573 23.4113 370.945C24.4914 370.527 26.3081 368.783 26.4063 367.527C26.75 364.039 24.8351 366.132 23.9023 365.783C22.1347 365.155 22.3311 363.132 23.2149 361.109C23.8041 359.713 24.786 358.039 25.6207 357.83C27.3392 357.341 29.0577 357.69 30.7762 357.69C32.6911 357.621 31.5618 351.272 34.2622 352.179C37.2082 353.156 36.7663 350.644 35.637 347.714C35.4406 347.226 35.8334 345.342 35.9807 345.342C39.074 344.435 40.9889 337.249 44.6222 338.714C46.6844 339.482 49.0903 338.435 51.2507 338.993C53.0674 339.412 55.1786 334.598 56.7498 338.784C56.848 339.063 57.9773 337.877 58.6647 337.319C63.0837 333.901 66.8152 326.436 71.9707 327.761C73.1491 320.715 75.9968 322.878 78.4518 322.669C78.9428 322.599 79.4829 322.669 79.8266 322.18C80.6122 321.064 81.2505 319.669 81.987 318.413C81.3487 318.064 80.7104 317.157 80.1212 317.367C77.7153 318.343 75.8004 313.39 73.1491 317.157C73.0018 317.367 72.118 315.971 71.5779 315.204C71.2342 314.646 70.9396 313.948 70.645 313.32C71.0378 312.832 71.4797 311.925 71.7743 311.925C75.8986 312.692 79.6302 308.227 83.5091 306.344C83.951 306.134 84.5401 304.181 84.5401 303.204C84.5401 302.367 83.8036 301.46 83.2636 301.111C81.987 300.205 79.9739 302.856 79.2865 299.158C82.7235 293.158 77.1752 297.484 77.8135 294.344C77.9608 293.647 76.586 291.903 76.7333 291.624C77.3716 290.158 78.1572 288.484 79.041 287.856C79.9248 287.228 80.9559 287.577 81.9379 287.577C84.1474 287.577 86.3568 287.647 88.6154 287.507C89.892 287.438 91.9542 288.833 91.856 284.298C91.7578 280.322 89.5483 281.996 88.3699 282.345C85.8167 283.112 83.2636 286.112 80.6613 284.787C79.9248 284.438 79.2865 283.391 78.7955 282.345C78.6973 282.136 79.6302 279.554 79.9248 279.624C84.0983 279.764 84.0491 269.578 87.7316 268.601C87.8298 268.601 88.1735 266.439 87.928 266.09C87.3388 264.974 86.6023 263.857 85.7676 263.439C84.1964 262.741 84.6383 261.695 85.6203 260.299C86.2095 259.462 86.8478 258.695 87.4861 257.997C88.0753 257.369 88.7136 256.951 89.3028 256.462C88.6645 256.044 87.8298 255.974 87.4861 255.137C87.0933 254.021 87.0933 252.346 86.946 250.881C87.437 251.16 87.928 251.439 88.4681 251.649C88.8118 251.718 89.3519 251.858 89.4992 251.509C90.7758 248.091 91.7087 244.184 92.8871 243.695C94.9001 242.928 97.1096 243.905 99.1227 244.812C101.038 245.719 102.756 247.463 104.622 248.718C105.555 249.346 106.537 249.835 107.47 250.393C105.898 251.928 105.162 256.253 102.903 255.625C102.412 255.486 101.872 255.555 101.381 255.486C101.676 256.811 101.872 258.346 102.314 259.462C102.658 260.23 103.296 260.509 103.836 261.067C103.394 261.485 103.002 261.904 102.511 262.183C102.265 262.323 102.02 262.113 101.774 262.253C100.448 262.811 98.6808 260.578 97.8461 264.136C96.6677 269.09 99.9574 266.997 100.743 269.369C101.578 271.88 105.064 268.532 104.916 275.02C104.867 278.438 106.88 278.508 108.403 275.159C109.09 273.624 109.826 272.438 110.514 274.81L117.044 278.508C121.119 277.74 125.047 280.461 129.221 275.996C130.399 274.741 132.167 275.578 132.854 278.368C133.983 276.206 135.309 275.857 136.831 275.717C138.402 275.508 139.973 273.834 141.594 273.206C143.214 272.578 142.625 271.95 142.33 270.066C141.79 266.648 143.214 262.811 144.933 262.462C146.356 262.183 147.78 262.741 149.155 263.09C149.695 263.229 150.432 264.415 150.579 264.206C154.507 257.579 157.895 261.834 159.957 265.462C163.05 270.834 162.461 261.764 164.327 262.253C167.273 262.95 170.71 260.299 171.888 255.765C173.067 251.3 174.196 252.207 175.767 251.579C177.093 251.09 178.517 249.904 179.695 248.37C181.364 246.207 182.641 244.463 181.217 239.789C179.695 234.835 182.248 229.254 184.212 224.51C184.654 223.464 185.391 222.278 186.029 222.138C189.564 221.022 193.246 219.348 196.683 219.627C199.826 219.836 202.723 222.278 205.767 223.743C206.405 224.022 207.387 225.068 207.633 224.65C212.002 217.255 212.886 224.371 213.966 228.696C215.145 233.51 217.747 230.719 219.613 231.696C220.742 232.254 222.903 229.533 223.541 230.51C224.572 232.045 224.867 235.324 225.259 238.045C225.652 240.696 223.639 244.602 225.799 246.207C227.616 247.532 229.629 248.718 231.642 248.858C235.079 248.998 238.516 250.114 242.1 247.253C242.395 246.974 243.033 250.323 243.917 246.905C244.261 245.649 245.046 243.975 245.685 243.695C248.729 242.509 252.019 242.928 254.817 240.556C257.763 238.045 259.285 241.951 261.593 241.742C261.888 241.742 265.275 245.23 260.906 246.556C259.531 246.974 258.009 250.253 258.107 254.021C258.205 257.23 257.861 260.369 255.308 260.02C255.161 261.555 254.67 263.578 254.965 264.555C256.045 267.834 259.285 268.741 261.249 267.206C263.311 265.601 262.968 258.416 265.816 259.881C268.86 261.485 267.829 253.323 270.824 253.602C272.198 253.742 271.855 247.323 269.498 246.207C268.86 245.928 268.271 245.37 267.681 244.951C268.32 244.463 269.056 244.254 269.596 243.486C271.118 241.603 272.591 240.347 274.359 240.765C276.617 241.393 278.385 240.765 279.416 235.533C280.447 230.091 282.558 226.254 286.045 227.092C292.624 218.58 300.676 220.185 307.403 212.162C309.416 209.86 312.362 211.046 314.817 210.697ZM96.2258 313.46C96.6186 313.181 97.797 312.762 98.779 311.646C99.27 311.088 99.3191 308.576 99.7119 308.367C101.774 307.32 104.082 309.692 105.898 305.367C106.34 309.902 108.452 304.948 109.532 306.553C110.121 307.39 111.496 308.088 111.889 307.46C116.553 299.925 121.758 299.856 127.011 299.925C128.19 299.925 129.908 300.135 130.448 298.879C132.952 293.437 135.947 294.135 138.697 294.693C143.41 295.67 146.847 292.112 149.646 284.856C150.088 283.74 150.677 281.857 150.481 281.159C150.088 279.903 149.057 278.229 148.419 278.508C145.473 279.903 142.576 282.694 139.63 283.531C136.242 284.508 138.942 286.461 138.746 287.996C138.55 289.879 136.34 290.786 135.505 290.019C134.671 289.252 134.523 284.856 133.149 287.856C131.086 292.461 129.564 283.531 127.846 288.972C126.618 284.159 123.329 288.135 121.561 285.554C121.217 284.996 120.481 284.577 120.088 284.926C116.357 288.275 116.209 288.693 114.098 286.321C112.478 284.508 111.201 284.438 109.335 286.321C107.912 287.786 106.193 288.554 104.622 289.042C103.149 289.461 101.676 289.182 100.203 289.112C96.5695 288.972 102.265 295.6 98.8772 294.275C95.5384 292.949 94.4091 300.763 91.5614 299.925C91.5123 300.902 91.2668 302.228 91.5123 302.716C92.1015 303.832 93.0835 304.251 93.6236 305.367C94.1145 306.344 94.7037 308.855 94.5564 309.134C91.5123 313.809 93.6727 313.39 96.2258 313.46ZM456.567 451.384C457.745 450.547 458.187 450.198 458.629 449.919C458.236 449.361 457.942 448.454 457.451 448.244C457.107 448.105 456.616 448.733 456.174 449.081C456.371 450.058 456.518 450.965 456.567 451.384Z" fill="#FFE68E"/>
</svg>
