<svg width="1365" height="549" fill="none" xmlns="http://www.w3.org/2000/svg"><path d="M787.685 12.06c3.832-.32 7.441.162 9.758 4.879 1.114 2.305 2.807 1.983 4.144 1.447 4.545-1.769 9.089-4.127 13.59-6.271 1.247-.59 2.45-1.448 3.698-1.823 10.738-3.27 21.253-1.555 31.857-2.198 8.422-.536 16.308 2.949 24.729 2.573 3.654-.16 7.396 3.11 10.426 6.218 4.946 4.985 10.605 8.202 15.328 13.884 3.475 4.235 8.51 5.575 13.144 6.272 8.064 1.179 16.307-.483 24.327-5.95.802-.537 2.273.16 2.54-.483 1.648-4.02 4.456-3.002 6.505-5.092.446-.483 1.069-1.93 1.025-2.091-.936-1.608-1.114-2.841.802-2.734 7.664.483 15.505-3.698 23.125-2.09 3.341.697 6.638 1.715 10.025 1.93 2.049.16 4.188 1.179 6.416-1.662.802-1.019 3.475-1.072 3.787-.161 1.693 4.985 5.124-1.072 6.995 1.662 1.514-5.2 3.744 2.519 5.304-1.716 1.65 2.198 3.52-3.591 5.12-.643.4-.75 1.16-1.608 1.16-2.305.05-.911 1.38-3.752-1.07-2.412-.89.482-2.05-.483-3.07-.911-.27-.108-.4-.804-.63-1.233.4-.268.81-.644 1.21-.804.84-.268 1.82-.108 2.54-.75 1.11-1.02 2.45-2.413.75-4.396-.44-.536-.84-2.573-.66-2.734.84-1.019 1.87-1.716 2.85-2.466.62 3.377 3.12-.75 4.32 1.93 1.38 3.162 4.81-1.287 6.68 1.608 1.25-2.037 2.45-2.305 3.21-.054 1.2 3.485 5.17 1.93 5.53 6.808 3.56.697 7.17 2.787 10.64 1.715 5.35-1.661 10.65-.16 15.73-2.09 7.53-2.788 14.53-1.072 21.79-1.662 7.26-.59 14.39.268 21.79-1.876 6.82-1.983 13.14 2.466 20.05 2.09 6.59-.375 13.28-3.752 19.78-2.358 2.9.643 5.93-.536 8.78 1.822 1.83 1.501 4.81.804 7.26.108 1.78-.483 3.52-2.627 5.3-3.967 1.74-1.34 2.99 3.484 4.95 0 5.44.858 10.92-1.287 16.4-1.93 2.05-.268 4.18-.804 6.19 1.447 1.6 1.877 4.54-4.234 6.95.215 1.03 1.93 4.5-1.93 6.77-.268.23.16 1.34-.322 2.32.053 4.14 1.662 8.51 2.091 12.56 4.45 1.43.804 3.44.804 4.91-1.77.8 2.627 2.71 1.234 3.96 2.038 5.48 3.43 12.03 1.661 17.42 5.789 1.47 1.126 4.46-1.555 6.73-2.52 1.03-.428 2.54-1.715 3.03-1.179 2.99 3.324 6.73 1.448 10.07 1.876 2.54.322 5.04-.053 7.4 1.93 1.87 1.608 4.81-1.233 6.77 1.876.67 1.072 2.54.322 3.83.322 2.45.053 4.95-.268 7.35.107 1.61.214 3.52.643 4.5 2.198.76 1.18.36 4.235.31 6.486-.08 3.591 1.43 4.878 3.61 2.841.58-.536 1.03-1.608 1.65-2.144 3.75-3.216 7.44-5.843 11.81-5.521 3.34.268 6.82 1.608 10.38-1.77.85-.803 2.23-.267 3.3-.053 1.07.215 2.27 1.555 3.12 1.018 1.11-.696 1.96-1.768 2.8-.16.81 1.5 1.65 1.608 2.81.16.27-.321 1.25 0 1.25.161 0 4.45 1.87 5.414 4.28 4.932 1.91-.375 3.2 4.77 5.7.16.67-1.232 2.41-1.232 3.65-1.768 1.56-.697 3.48-1.287 3.88 1.447.53 3.43 2.67 4.074 3.74 6.433.85 1.876 1.07 3.43-1.07 4.234-1.02.376-1.96 1.555-2.98 1.984-1.61.643-.72 1.286-.54 2.52.4 2.626-.89 5.467-2.54 5.788-1.33.268-2.67-.214-4.01.161-.58.161-1.38 1.448-1.65 2.412-.8 2.788.49 4.181 1.56 5.682.27-.59.58-1.072.72-1.715.26-1.126.18-2.895 1.47-1.394.75.912 1.65 1.501 2.49 2.252-.93 1.018-1.78 2.358-2.8 3.002-3.08 1.822-3.03 1.715-3.48 8.094-.13 1.769-2.81 3.86.45 5.146 1.38.536-.18 6.432-2.05 9.649-1.25 2.197-2.23 4.985-2.86 7.665-.57 2.627-.57 5.521-.75 8.255-.14 1.93-.31 3.377 1.56 1.286 1.96-2.25 4.72-2.09 6.15-6.486.84-2.733 2.85-3.27 4.63-1.983 2.32 1.715 4.54 3.806 7.44 3.645.58-.053.31 0-.22 2.252-.36 1.5-.14 3.537.35 4.877.4 1.126 1.52 1.555 2.37 2.305-1.07.322-2.28.215-3.17 1.019-1.25 1.179-3.47 2.734-2.36 5.307 1.6 3.591-1.16 4.824-1.65 4.717-3.07-.59-4.59 3.163-6.37 5.736-2.99 4.234-2.27 9.059 1.38 11.096.76.428 1.47.964 2.05 1.715.31.375.45 1.769.27 2.091-1.16 1.822-2.5 3.43-3.7 5.199-.58.858-.98 1.93-1.47 2.895.8.857 1.65 2.573 2.45 2.412 2.76-.59 4.86 1.715 7.31 2.198 2 .429 1.78 1.876.67 4.02-.67 1.34-1.25 2.787-1.79 4.288-.22.644-.31 1.823-.09 2.145 2.23 3.269 1.74 4.502-1.47 4.181-.31-.054-1.07 1.34-1.11 2.037-.09 1.34.62 3.001.27 3.859-1.43 3.377.8 1.608 1.11 2.359.36.857.49 2.734.09 3.377-2.81 4.663-.85 4.824 1.52 4.878.35 0 .66.589.98.965-.58.375-1.16.696-1.74 1.072-1.47.965-1.65 2.573-.76 3.859 1.6 2.305 3.34 4.396 5.08 6.433.45.536 1.34.321 1.65.965 1.16 2.519 2.98 5.092 2.94 7.933-.05 2.895-2.72 4.342-4.63 6.111-2.32 2.09-4.86 4.449-6.47 8.362-.93 2.252-2.27 2.305-3.2.161-.85-1.983-1.61-3.324-3.34-.429-1.03 1.715-2.59 2.627-3.93 3.913-.93-3.27-2.4-.053-3.6 0-.67 0-1.79-.268-1.92.161-.54 1.447-.94 3.163-.98 4.717 0 .483 1.38 1.394 1.91 1.072 4.51-2.734 8.65-3.913 12.66.161 1.65 1.662 1.47 3.056.18 4.288-2.32 2.252-4.64 6.058-7.62 3.163-.36-.322-1.34.911-1.92.804-1.82-.429-3.34 1.608-4.99 2.144-3.43 1.126-6.86-1.822-10.29 2.037-.62-2.144-1.96-2.09-3.34-1.929-2.85.268-5.75-2.734-8.69 1.822-.22.322-1.6-1.715-2.54-1.662-.94.054-2.05 1.876-2.94 1.823-5.84-.429-6.82-.268-13.06 3.377-1.02.59-2.13.75-3.2.858-1.56.107-2.9.107-1.21 2.894.05.054-.53 1.233-.71 1.18-3.48-.697-7 1.768-10.34 1.876-4.23.161-8.55-.751-12.47-2.573-1.65-.751-2.28-.59-3.88.429-2.58 1.608-4.54-1.93-6.99-2.52.35-.965 1.11-2.198.98-2.895-1.21-5.896-5.53-3.859-8.2-6.003-1.87 2.68-3.88 1.286-5.8 1.34-4.76.107-9.4-.054-14.12 3.645-1.69 1.287-3.96.643-5.93.59-5.39-.215-10.91.911-15.99 4.395-7.13 4.932-14.48 3.967-21.61 7.826-2.67 1.448-5.97 1.072-8.64 0-2.41-.964-4.95 3.538-7 .322-2.72 3.967-5.57 1.447-8.38 1.876-1.15.161-2.22-1.394-3.43-1.447-1.65-.161-3.52-.375-4.99.75-2.94 2.252-5.79 3.377-8.86 2.949-1.52-.215-2.9-.108-4.37 1.929-1.69 2.305-1.96-4.61-4.46-1.179-1.51 2.037-2.89-.697-4.27-1.072-1.61-.483-2.99 4.181-4.55.643-.44-1.018-3.25-.697-4.32.483-2.14 2.358-4.19 1.661-5.79 1.018-1.61-.643-2.72-.643-4.37.161-1.47.697-3.12.161-4.68.161-1.78 0-3.7-.697-5.34.107-8.16 4.074-15.87.911-23.8 1.93-8.28-4.128-17.37-2.037-26.15-1.769-6.51.214-13.37.429-19.7 5.467-2.31 1.877-3.25-1.769-5.65-.268-3.61 2.198-7.71 2.305-11.59 2.681-2.05.214-4.32 1.072-6.15-1.662-.8-1.179-2.98-.215-4.54-.322-1.21-.053-2.59 3.431-3.57.161-2.848 2.305-5.744-2.787-8.685 1.823-.089.16-1.248-1.877-1.916-1.769-3.208.482-6.193-1.34-9.713 1.661-3.52 2.949-9.758 2.52-14.57 2.413-5.614-.108-11.317-1.501-17.065 2.037-1.649 1.018-2.852 1.5-4.322.053-1.114-1.072-2.451 1.233-3.609 1.715-1.203.483-3.386-1.983-3.743-1.34-1.738 2.949-2.094-.697-3.119-.482-.401.107-.891.214-1.247.59-2.406 2.573-4.634 1.768-6.862.804-.446-.215-.936-.376-1.381-.59-1.159 6.164-2.495 3.323-3.788.911-.891-1.661-1.604-2.412-3.252-.643-1.738 1.876-3.565 1.715-6.728 1.018-.446-.107-.891-.16-1.337 0-6.728 2.681-13.367 3.538-19.649.322-4.233 3.86-8.287.751-12.431 1.662-.446.107-.936-.751-1.381-1.126.623-.268 1.292-.429 1.826-.911a6.658 6.658 0 001.604-2.037c.223-.483.268-1.876.089-1.983-1.737-.805-3.475-1.716-5.302-2.091-1.826-.322-2.629 1.394-1.604 3.591.624 1.448.624 2.145-.401 3.002-.757.644-1.604 1.072-2.406 1.608-.089-1.125-.579-2.841-.223-3.323 1.604-2.359 2.228-4.771.892-7.076-.713-1.286.401-4.931-1.738-3.913-1.069.483-2.005 2.573-2.807 4.128-.357.75-.045 2.197-.401 2.948-.312.643-1.56 1.233-1.693.965-1.783-3.645-4.233-4.771-7.307-4.128-1.248.268-1.114-.482-.446-2.198.98-2.733.223-6.218-1.203-5.842-3.565.911-6.372-2.788-10.382-.536-3.386 1.876-7.173.214-11.005 2.197-2.272 1.18-4.768.054-6.773 3.86-.401.804-2.807.75-2.94.161-.579-2.52-.98-4.396-3.342-3.913-1.782.321-3.386.643-4.99 2.197-.312.322-.891.107-1.337.054-.713-.161-1.827.268-.802-2.037.847-1.93 1.337-4.181 2.005-6.272.134-.482.312-.965.446-1.447-.401-.161-.847-.697-1.114-.483-3.119 2.466-2.584-6.968-6.461-3.269-2.005 1.929-5.079 4.717-6.906-.376-.223-.589-1.159-.482-1.782-.589-5.392-.59-6.595-1.072-11.006-5.629-1.515-1.608-2.406 1.34-3.341 1.126-1.56-.375-3.298-1.233-4.278-2.895-1.515-2.573-2.985 1.716-3.787.483-1.426-2.252-3.342-.751-4.901-1.447-.758-.322-1.292-1.394-2.005-1.93-.134-.107-.98 1.34-.936 1.447 1.56 3.377-.98 4.342-1.916 4.503-2.45.536-4.946.375-7.352.107-.98-.107-1.826-1.93-2.673-1.662-.936.268-1.693 2.466-2.673 3.109-.981.644-2.629 1.18-3.075.429-.98-1.662-2.094-1.93-3.431-1.822-2.094.16-4.188-.751-6.193 1.715.713-5.575-3.252-2.412-4.188-4.985-.713-1.93-2.228 3.002-2.852-.268-.089-.59-.802-1.072-.757-1.448.223-1.286 2.807-3.055-.223-3.377-.98-.107-2.139-.75-2.673-1.822-2.362-4.878-6.194-6.647-9.491-9.274-1.559-1.233-3.832-.482-5.569-1.286-2.763-1.287-5.213-2.359-8.109 1.34-.847 1.072-2.54.697-3.832.804-6.639.59-12.966 4.128-19.338 8.148-1.515.965-1.515 1.983-1.782 3.591-.535 2.895-1.648 4.825-3.787 4.878-3.208.054-5.837 1.126-8.198 4.021-1.337 1.608-1.872 2.037-3.03.214-.535-.858-2.228-.59-3.253-.054-5.97 3.109-11.585 3.217-17.065.054-1.337-.75-3.119-.054-4.678-.107-2.362-.054-4.768.536-6.416-3.056-.624-1.34-3.119-.589-4.768-.428-1.025.107-2.54 1.822-2.985 1.286-2.362-3.002-4.545-.59-6.862 1.072-2.985 2.144-2.941 1.983-3.876-3.002-.178-.911-.936-1.769-1.56-1.929-1.024-.322-1.826-.268-2.495 2.197-2.406 8.631-6.327 11.579-11.406 9.167l-5.08-.483c-2.049 3.431-3.653-.321-5.658.268-1.827.536-3.921-.053-5.614-1.018-2.139-1.18-.045 5.95-2.807 3.109-.936-.965-2.718-.107-3.609-1.019-2.406-2.519-5.258-1.822-8.065-1.983-.802-.054-1.782-.107-2.361-.751-1.827-2.144-3.342-1.554-5.214 1.019-2.673 3.591-6.638 4.449-9.356 1.554-1.426-1.5-2.184-2.519-3.832-.107-.758 1.126-1.916 1.662-2.896 2.466-.179-4.342-4.367.375-4.634-4.556-.134-2.466-1.337-5.897-4.188-2.252-.401.483-2.406-1.179-1.293-3.27 1.248-2.305.892-3.323.09-5.146-1.025-2.358-2.095.912-2.406.429-1.337-1.983-3.253-3.055-3.743-6.325-.891-5.682-2.451-8.416-6.461-9.756-2.094-.697 2.05-5.307-1.203-4.288-2.629.804-4.5-3.377-7.708-.268-2.094 2.037-5.213.911-7.485 2.68-1.56 1.233-2.897 1.662-4.412 1.715-1.559.054-4.589-2.841-4.188-3.002 1.248-.643 2.54-.911 3.832-1.072 2.228-.268 1.916-.589 3.921-3.913 2.673-4.503 2.317-10.077 3.965-14.848.268-.697-.089-2.091-.445-2.841-.847-1.823-1.738-3.699-2.896-5.093-1.025-1.232.401-5.574-2.362-4.342-.445-2.358-.935-4.663-1.247-7.075-.089-.804.089-2.198.49-2.68.401-.483 1.604-.644 1.738-.268 1.47 4.341 3.43-.697 5.079-.376.223.054.579-.75.846-1.179-.356-.268-.668-.643-1.069-.804-2.54-1.287-4.277-4.664-3.03-7.558.936-2.144-.757-4.342 1.248-6.326.713-.696 1.292-5.199-.223-7.397-.089-.107.178-1.179.401-1.394 1.025-.911 2.718 1.448 3.119-1.501.134-.857-2.228-1.554-2.673-3.001-.312-1.072.356-4.021 1.114-4.718 1.648-1.554 3.564-2.519 5.391-3.216 1.292-.482 2.718.268 4.01-.214.98-.322 2.629-1.662 2.718-2.627.312-2.68-1.426-1.072-2.273-1.34-1.604-.482-1.425-2.037-.623-3.591.534-1.073 1.425-2.359 2.183-2.52 1.559-.375 3.119-.107 4.678-.107 1.738-.054.713-4.932 3.164-4.235 2.673.751 2.272-1.179 1.247-3.43-.178-.376.179-1.823.312-1.823 2.807-.697 4.545-6.218 7.842-5.092 1.872.589 4.055-.215 6.015.214 1.649.322 3.565-3.377 4.991-.161.089.215 1.113-.697 1.737-1.125 4.01-2.627 7.397-8.363 12.075-7.344 1.069-5.414 3.654-3.752 5.881-3.913.446-.054.936 0 1.248-.376.713-.857 1.292-1.93 1.96-2.894-.579-.268-1.158-.965-1.693-.804-2.183.75-3.921-3.056-6.327-.161-.133.16-.935-.911-1.426-1.501-.311-.429-.579-.965-.846-1.447.356-.376.757-1.072 1.025-1.072 3.742.59 7.129-2.841 10.649-4.289.401-.16.935-1.662.935-2.412 0-.643-.668-1.34-1.158-1.608-1.159-.697-2.985 1.34-3.609-1.5 3.119-4.61-1.916-1.287-1.337-3.7.134-.536-1.114-1.876-.98-2.09.579-1.126 1.292-2.412 2.094-2.895.802-.482 1.738-.214 2.629-.214 2.005 0 4.01.053 6.059-.054 1.159-.053 3.03 1.019 2.941-2.466-.089-3.055-2.094-1.769-3.163-1.5-2.317.59-4.634 2.894-6.996 1.876-.668-.268-1.247-1.073-1.693-1.877-.089-.16.758-2.144 1.025-2.09 3.787.107 3.743-7.72 7.084-8.47.09 0 .401-1.661.179-1.93-.535-.857-1.203-1.715-1.961-2.036-1.426-.536-1.025-1.34-.133-2.413a18.632 18.632 0 011.693-1.768c.534-.483 1.114-.805 1.648-1.18-.579-.321-1.336-.375-1.648-1.018-.357-.858-.357-2.144-.49-3.27.445.214.891.429 1.381.59.312.053.802.16.935-.108 1.159-2.626 2.005-5.628 3.075-6.003 1.827-.59 3.832.16 5.658.857 1.738.697 3.298 2.037 4.991 3.002.846.483 1.737.858 2.584 1.287-1.426 1.179-2.094 4.503-4.144 4.02-.445-.107-.935-.054-1.381-.107.267 1.018.446 2.198.847 3.055.312.59.891.804 1.381 1.233-.401.322-.758.643-1.203.858-.223.107-.446-.054-.669.053-1.203.43-2.807-1.286-3.564 1.448-1.069 3.806 1.916 2.197 2.629 4.02.757 1.93 3.921-.643 3.787 4.342-.044 2.627 1.782 2.68 3.164.107.623-1.18 1.292-2.09 1.915-.268l5.926 2.841c3.699-.59 7.263 1.501 11.05-1.93 1.07-.964 2.674-.321 3.298 1.823 1.024-1.662 2.227-1.93 3.609-2.037 1.425-.16 2.851-1.447 4.322-1.93 1.47-.482.935-.965.668-2.412-.49-2.627.802-5.575 2.361-5.843 1.292-.214 2.585.215 3.832.483.49.107 1.159 1.018 1.292.857 3.565-5.092 6.639-1.822 8.511.965 2.807 4.128 2.272-2.84 3.965-2.466 2.673.537 5.792-1.5 6.862-4.985 1.069-3.43 2.094-2.734 3.52-3.216 1.203-.375 2.495-1.286 3.564-2.466 1.515-1.661 2.673-3.002 1.381-6.593-1.381-3.806.936-8.094 2.718-11.74.401-.803 1.07-1.715 1.649-1.822 3.208-.858 6.55-2.144 9.668-1.93 2.852.161 5.481 2.037 8.243 3.163.58.214 1.471 1.018 1.693.697 3.966-5.682 4.768-.215 5.748 3.109 1.07 3.699 3.431 1.554 5.124 2.305 1.025.429 2.985-1.662 3.565-.912.935 1.18 1.203 3.7 1.559 5.79.357 2.037-1.47 5.039.49 6.272 1.649 1.018 3.476 1.93 5.302 2.036 3.119.108 6.238.965 9.491-1.232.267-.215.846 2.358 1.648-.268.312-.965 1.025-2.252 1.605-2.466 2.762-.911 5.747-.59 8.287-2.412 2.673-1.93 4.055 1.072 6.149.91.267 0 3.341 2.681-.624 3.7-1.248.321-2.629 2.84-2.54 5.735.089 2.466-.223 4.878-2.539 4.61-.134 1.18-.58 2.734-.312 3.484.98 2.52 3.921 3.217 5.703 2.037 1.871-1.233 1.559-6.754 4.144-5.628 2.762 1.233 1.826-5.039 4.544-4.824 1.248.107.936-4.825-1.203-5.682-.579-.215-1.114-.644-1.648-.965.579-.376 1.247-.536 1.737-1.126 1.382-1.447 2.718-2.412 4.322-2.09 2.05.482 3.654 0 4.59-4.021.935-4.181 2.851-7.13 6.015-6.486 5.97-6.54 13.277-5.307 19.382-11.471 1.826-1.77 4.5-.858 6.727-1.126zM589.322 91.02c.356-.215 1.425-.536 2.317-1.394.445-.429.49-2.358.846-2.52 1.871-.803 3.966 1.02 5.614-2.304.401 3.484 2.317-.322 3.297.911.535.643 1.783 1.18 2.139.697 4.233-5.79 8.956-5.843 13.723-5.79 1.07 0 2.629.161 3.119-.803 2.273-4.181 4.991-3.645 7.486-3.217 4.277.75 7.396-1.983 9.936-7.558.401-.858.935-2.305.757-2.84-.356-.966-1.292-2.252-1.871-2.038-2.674 1.072-5.302 3.216-7.976 3.86-3.074.75-.624 2.251-.802 3.43-.178 1.448-2.183 2.145-2.94 1.555-.758-.59-.892-3.967-2.139-1.662-1.872 3.538-3.253-3.323-4.812.858-1.114-3.699-4.099-.643-5.703-2.627-.312-.429-.981-.75-1.337-.482-3.386 2.573-3.52 2.894-5.436 1.072-1.47-1.394-2.629-1.447-4.322 0-1.292 1.126-2.851 1.715-4.277 2.09-1.337.322-2.674.108-4.01.054-3.297-.107 1.871 4.985-1.203 3.967-3.03-1.019-4.055 4.985-6.639 4.342-.045.75-.268 1.769-.045 2.144.535.858 1.426 1.18 1.916 2.037.446.75.98 2.68.847 2.894-2.763 3.592-.802 3.27 1.515 3.324zm326.997 105.975c1.069-.643 1.47-.911 1.871-1.125-.356-.429-.623-1.126-1.069-1.287-.312-.107-.757.375-1.158.643.178.751.312 1.448.356 1.769z" fill="#FFE68E"/><path d="M314.817 210.697c4.222-.419 8.199.209 10.753 6.349 1.227 2.999 3.093 2.581 4.566 1.883 5.008-2.302 10.016-5.372 14.975-8.162 1.375-.768 2.701-1.884 4.075-2.372 11.833-4.256 23.421-2.023 35.107-2.861 9.279-.697 17.97 3.837 27.25 3.349 4.026-.209 8.15 4.046 11.489 8.093 5.45 6.488 11.686 10.674 16.89 18.069 3.83 5.511 9.378 7.255 14.485 8.162 8.887 1.535 17.97-.628 26.808-7.744.884-.697 2.504.21 2.799-.628 1.816-5.232 4.91-3.906 7.168-6.627.491-.628 1.179-2.512 1.13-2.721-1.032-2.093-1.228-3.698.883-3.558 8.445.628 17.087-4.814 25.483-2.721 3.682.907 7.316 2.233 11.047 2.512 2.259.209 4.616 1.535 7.071-2.163.883-1.325 3.829-1.395 4.173-.209 1.866 6.488 5.647-1.396 7.709 2.162 1.669-6.767 4.124 3.279 5.843-2.232 1.816 2.86 3.878-4.674 5.646-.837.442-.977 1.277-2.093 1.277-3 .049-1.186 1.522-4.884-1.179-3.139-.982.627-2.258-.628-3.388-1.186-.294-.14-.442-1.047-.687-1.605.442-.349.884-.837 1.326-1.046.933-.349 2.013-.14 2.798-.977 1.228-1.326 2.701-3.14.835-5.721-.491-.698-.933-3.349-.736-3.558.932-1.325 2.062-2.232 3.142-3.209.687 4.395 3.437-.977 4.763 2.512 1.522 4.116 5.302-1.675 7.364 2.092 1.375-2.651 2.701-2.999 3.536-.069 1.325 4.534 5.695 2.511 6.088 8.86 3.928.907 7.905 3.627 11.735 2.232 5.892-2.162 11.735-.209 17.332-2.721 8.298-3.627 16.006-1.395 24.01-2.162 8.003-.768 15.859.349 24.009-2.442 7.512-2.581 14.485 3.209 22.095 2.721 7.267-.489 14.632-4.884 21.8-3.07 3.192.837 6.53-.698 9.673 2.372 2.013 1.954 5.303 1.047 8.003.14 1.964-.628 3.879-3.419 5.843-5.163 1.915-1.744 3.29 4.535 5.45 0 5.99 1.116 12.029-1.674 18.069-2.511 2.258-.349 4.615-1.047 6.824 1.883 1.768 2.442 5.009-5.511 7.66.279 1.129 2.512 4.959-2.511 7.463-.349.246.21 1.473-.418 2.553.07 4.566 2.163 9.378 2.721 13.846 5.791 1.571 1.046 3.781 1.046 5.401-2.303.884 3.419 2.995 1.605 4.37 2.651 6.039 4.465 13.257 2.163 19.198 7.535 1.62 1.465 4.91-2.023 7.414-3.279 1.129-.558 2.799-2.232 3.339-1.535 3.289 4.326 7.414 1.884 11.096 2.442 2.799.419 5.548-.07 8.151 2.512 2.062 2.092 5.303-1.605 7.463 2.441.736 1.396 2.799.419 4.222.419 2.701.07 5.45-.349 8.102.139 1.767.279 3.879.838 4.959 2.861.835 1.535.393 5.511.344 8.441-.099 4.674 1.571 6.349 3.977 3.698.638-.698 1.129-2.093 1.816-2.791 4.125-4.186 8.2-7.604 13.012-7.186 3.682.349 7.512 2.093 11.44-2.302.933-1.046 2.455-.349 3.633-.07 1.179.279 2.504 2.024 3.437 1.326 1.228-.907 2.161-2.302 3.094-.209.883 1.953 1.816 2.093 3.093.209.294-.419 1.375 0 1.375.209 0 5.791 2.062 7.046 4.713 6.419 2.111-.489 3.535 6.209 6.285.209.736-1.605 2.651-1.605 4.026-2.302 1.719-.907 3.83-1.675 4.272 1.883.589 4.465 2.946 5.302 4.124 8.372.933 2.442 1.178 4.465-1.178 5.511-1.13.489-2.161 2.024-3.29 2.582-1.768.837-.786 1.674-.589 3.279.442 3.418-.982 7.116-2.799 7.534-1.473.349-2.946-.279-4.419.209-.638.21-1.522 1.884-1.817 3.14-.883 3.628.541 5.441 1.719 7.395.295-.768.638-1.395.786-2.233.294-1.465.196-3.767 1.62-1.814.835 1.186 1.817 1.954 2.749 2.931-1.031 1.325-1.964 3.069-3.093 3.906-3.388 2.372-3.339 2.233-3.83 10.535-.147 2.302-3.093 5.023.491 6.697 1.522.698-.196 8.372-2.258 12.558-1.375 2.86-2.455 6.488-3.143 9.976-.638 3.418-.638 7.186-.834 10.744-.148 2.511-.344 4.395 1.718 1.674 2.161-2.93 5.205-2.721 6.776-8.441.933-3.558 3.142-4.256 5.106-2.582 2.553 2.233 5.008 4.954 8.2 4.744.638-.07.344 0-.246 2.93-.392 1.954-.147 4.605.393 6.349.442 1.465 1.67 2.023 2.602 3-1.178.418-2.504.279-3.486 1.325-1.374 1.535-3.829 3.558-2.602 6.907 1.768 4.674-1.276 6.279-1.817 6.139-3.387-.767-5.057 4.116-7.021 7.465-3.289 5.511-2.504 11.79 1.522 14.441.835.558 1.621 1.256 2.259 2.233.344.488.491 2.302.295 2.72-1.277 2.372-2.75 4.465-4.076 6.768-.638 1.116-1.08 2.511-1.62 3.767.884 1.116 1.817 3.349 2.7 3.139 3.045-.767 5.352 2.233 8.053 2.861 2.209.558 1.964 2.441.736 5.232-.736 1.744-1.375 3.628-1.964 5.581-.245.837-.343 2.372-.098 2.791 2.455 4.255 1.915 5.86-1.62 5.441-.344-.07-1.179 1.744-1.228 2.651-.098 1.744.688 3.907.295 5.023-1.571 4.395.884 2.093 1.227 3.07.393 1.116.54 3.558.099 4.395-3.094 6.07-.933 6.279 1.669 6.349.393 0 .736.767 1.08 1.255-.638.489-1.276.907-1.915 1.396-1.62 1.255-1.816 3.348-.834 5.023 1.767 3 3.682 5.72 5.597 8.371.491.698 1.473.419 1.817 1.256 1.276 3.279 3.289 6.628 3.24 10.325-.049 3.768-2.995 5.651-5.106 7.953-2.553 2.721-5.352 5.791-7.12 10.884-1.031 2.93-2.504 2.999-3.535.209-.933-2.581-1.767-4.325-3.682-.558-1.129 2.232-2.848 3.418-4.321 5.093-1.031-4.256-2.651-.07-3.977 0-.737 0-1.964-.349-2.111.209-.59 1.884-1.031 4.116-1.081 6.139 0 .628 1.523 1.814 2.112 1.395 4.959-3.558 9.525-5.092 13.944.21 1.817 2.162 1.62 3.976.196 5.581-2.553 2.93-5.106 7.883-8.396 4.116-.392-.419-1.473 1.186-2.111 1.046-2.013-.558-3.682 2.093-5.499 2.791-3.781 1.465-7.561-2.372-11.342 2.651-.687-2.791-2.16-2.721-3.682-2.511-3.143.348-6.334-3.558-9.575 2.372-.245.418-1.768-2.233-2.799-2.163-1.031.07-2.258 2.442-3.24 2.372-6.432-.558-7.512-.349-14.386 4.395-1.13.767-2.357.977-3.535 1.116-1.719.14-3.192.14-1.326 3.767.049.07-.589 1.605-.786 1.535-3.829-.907-7.708 2.303-11.391 2.442-4.664.209-9.427-.977-13.748-3.349-1.816-.976-2.504-.767-4.271.558-2.848 2.093-5.008-2.511-7.709-3.278.393-1.256 1.228-2.861 1.08-3.768-1.325-7.674-6.088-5.023-9.034-7.813-2.062 3.488-4.272 1.674-6.383 1.744-5.254.139-10.36-.07-15.565 4.744-1.865 1.674-4.369.837-6.53.767-5.941-.279-12.029 1.186-17.626 5.721-7.856 6.418-15.958 5.162-23.814 10.185-2.946 1.884-6.579 1.396-9.525 0-2.651-1.255-5.45 4.605-7.709.419-2.995 5.163-6.137 1.884-9.23 2.442-1.277.209-2.455-1.814-3.781-1.884-1.817-.209-3.879-.488-5.499.977-3.241 2.93-6.383 4.395-9.771 3.837-1.669-.279-3.191-.14-4.812 2.511-1.865 3-2.16-5.999-4.91-1.534-1.669 2.651-3.191-.907-4.713-1.396-1.768-.628-3.29 5.442-5.008.837-.491-1.325-3.585-.907-4.763.628-2.357 3.07-4.615 2.163-6.383 1.326-1.768-.837-2.995-.837-4.812.209-1.62.907-3.437.209-5.155.209-1.964 0-4.075-.907-5.892.14-8.985 5.302-17.48 1.186-26.219 2.511-9.133-5.371-19.149-2.651-28.822-2.302-7.168.279-14.73.558-21.702 7.116-2.553 2.442-3.584-2.302-6.235-.349-3.977 2.861-8.495 3-12.766 3.489-2.259.279-4.763 1.395-6.776-2.163-.884-1.535-3.29-.279-5.008-.419-1.326-.069-2.848 4.465-3.928.21-3.142 2.999-6.334-3.628-9.574 2.372-.099.209-1.375-2.442-2.112-2.303-3.535.628-6.825-1.744-10.703 2.163-3.879 3.837-10.753 3.279-16.056 3.139-6.187-.139-12.471-1.953-18.805 2.651-1.817 1.326-3.142 1.954-4.763.07-1.227-1.395-2.7 1.605-3.977 2.233-1.326.628-3.731-2.582-4.124-1.744-1.915 3.837-2.308-.907-3.437-.628-.442.139-.982.279-1.375.767-2.651 3.349-5.106 2.302-7.561 1.047-.491-.279-1.031-.489-1.522-.768-1.277 8.023-2.75 4.326-4.174 1.186-.982-2.163-1.767-3.139-3.584-.837-1.915 2.442-3.928 2.232-7.414 1.326-.491-.14-.982-.21-1.473 0-7.414 3.488-14.73 4.604-21.653.418-4.664 5.023-9.132.977-13.699 2.163-.491.139-1.031-.977-1.522-1.465.688-.349 1.424-.558 2.013-1.186.639-.628 1.326-1.605 1.768-2.651.245-.628.294-2.442.098-2.582-1.915-1.046-3.83-2.232-5.843-2.72-2.013-.419-2.897 1.813-1.767 4.674.687 1.883.687 2.79-.442 3.907-.835.837-1.768 1.395-2.652 2.093-.098-1.466-.638-3.698-.245-4.326 1.767-3.069 2.455-6.209.982-9.209-.786-1.674.442-6.418-1.915-5.093-1.178.628-2.209 3.349-3.093 5.372-.393.977-.049 2.861-.442 3.837-.344.838-1.719 1.605-1.866 1.256-1.964-4.744-4.664-6.209-8.052-5.372-1.375.349-1.228-.628-.491-2.86 1.08-3.558.245-8.093-1.326-7.604-3.928 1.186-7.021-3.628-11.44-.698-3.732 2.442-7.905.279-12.128 2.86-2.504 1.535-5.253.07-7.463 5.023-.442 1.047-3.093.977-3.24.21-.639-3.279-1.081-5.721-3.683-5.093-1.964.418-3.731.837-5.499 2.86-.344.419-.982.14-1.473.07-.786-.209-2.013.349-.884-2.651.933-2.512 1.473-5.442 2.21-8.163.147-.627.343-1.255.491-1.883-.442-.209-.933-.907-1.228-.628-3.437 3.209-2.848-9.069-7.119-4.256-2.21 2.512-5.598 6.14-7.611-.488-.245-.767-1.276-.628-1.964-.767-5.941-.768-7.266-1.396-12.127-7.326-1.67-2.093-2.652 1.744-3.683 1.465-1.718-.488-3.633-1.604-4.713-3.767-1.67-3.349-3.29 2.233-4.174.628-1.571-2.93-3.682-.977-5.401-1.884-.834-.418-1.423-1.813-2.209-2.511-.147-.14-1.08 1.744-1.031 1.884 1.718 4.395-1.08 5.65-2.111 5.86-2.701.697-5.451.488-8.102.139-1.08-.139-2.013-2.511-2.946-2.162-1.031.348-1.866 3.209-2.946 4.046-1.08.837-2.897 1.535-3.388.558-1.08-2.163-2.307-2.512-3.78-2.372-2.308.209-4.616-.977-6.825 2.232.785-7.255-3.584-3.139-4.616-6.488-.785-2.511-2.455 3.907-3.142-.348-.098-.768-.884-1.396-.835-1.884.246-1.674 3.094-3.977-.245-4.395-1.08-.14-2.357-.977-2.946-2.372-2.602-6.349-6.825-8.651-10.458-12.069-1.719-1.605-4.223-.628-6.138-1.675-3.044-1.674-5.744-3.069-8.936 1.744-.933 1.396-2.798.907-4.222 1.047-7.316.767-14.288 5.372-21.31 10.604-1.669 1.256-1.669 2.581-1.964 4.674-.589 3.767-1.816 6.279-4.173 6.349-3.535.069-6.432 1.465-9.034 5.232-1.473 2.093-2.062 2.651-3.339.279-.589-1.116-2.455-.767-3.584-.07-6.58 4.047-12.766 4.186-18.805.07-1.473-.977-3.437-.07-5.156-.139-2.602-.07-5.254.697-7.07-3.977-.688-1.744-3.437-.767-5.254-.558-1.129.139-2.799 2.372-3.29 1.674-2.602-3.907-5.008-.767-7.561 1.396-3.29 2.79-3.24 2.581-4.272-3.907-.196-1.186-1.031-2.302-1.718-2.512-1.129-.418-2.013-.349-2.75 2.861-2.651 11.232-6.972 15.069-12.569 11.929l-5.597-.628c-2.259 4.465-4.027-.418-6.236.349-2.013.698-4.32-.07-6.187-1.325-2.356-1.535-.049 7.743-3.093 4.046-1.03-1.256-2.995-.14-3.977-1.326-2.651-3.278-5.794-2.372-8.887-2.581-.884-.07-1.964-.139-2.602-.977-2.013-2.79-3.683-2.023-5.745 1.326-2.946 4.674-7.316 5.79-10.31 2.023-1.572-1.953-2.407-3.279-4.223-.139-.835 1.465-2.111 2.162-3.192 3.209-.196-5.651-4.812.488-5.106-5.93-.147-3.209-1.473-7.674-4.615-2.93-.442.628-2.652-1.535-1.424-4.256 1.375-3 .982-4.325.098-6.697-1.13-3.07-2.308 1.186-2.651.558-1.474-2.581-3.585-3.977-4.125-8.232-.982-7.395-2.7-10.953-7.12-12.697-2.307-.907 2.26-6.907-1.325-5.582-2.897 1.047-4.959-4.395-8.494-.348-2.308 2.651-5.745 1.186-8.249 3.488-1.718 1.604-3.191 2.162-4.86 2.232-1.72.07-5.058-3.697-4.616-3.907 1.375-.837 2.799-1.186 4.222-1.395 2.455-.349 2.112-.767 4.321-5.093 2.946-5.86 2.553-13.115 4.37-19.324.295-.907-.098-2.721-.49-3.698-.934-2.372-1.916-4.814-3.192-6.627-1.13-1.605.441-7.256-2.603-5.651-.49-3.07-1.03-6.07-1.374-9.209-.099-1.047.098-2.861.54-3.488.442-.628 1.767-.838 1.915-.349 1.62 5.651 3.78-.907 5.597-.489.245.07.638-.976.933-1.534-.393-.349-.737-.838-1.179-1.047-2.798-1.674-4.713-6.069-3.338-9.837 1.03-2.79-.835-5.651 1.374-8.232.786-.907 1.424-6.767-.245-9.627-.098-.14.196-1.535.442-1.814 1.13-1.186 2.995 1.883 3.437-1.954.147-1.116-2.455-2.023-2.946-3.906-.344-1.396.393-5.233 1.227-6.14 1.817-2.023 3.928-3.279 5.941-4.185 1.424-.628 2.995.348 4.42-.28 1.08-.418 2.896-2.162 2.994-3.418.344-3.488-1.57-1.395-2.504-1.744-1.767-.628-1.57-2.651-.687-4.674.59-1.396 1.571-3.07 2.406-3.279 1.718-.489 3.437-.14 5.155-.14 1.915-.069.786-6.418 3.486-5.511 2.946.977 2.504-1.535 1.375-4.465-.196-.488.196-2.372.344-2.372 3.093-.907 5.008-8.093 8.641-6.628 2.062.768 4.468-.279 6.629.279 1.816.419 3.928-4.395 5.499-.209.098.279 1.227-.907 1.915-1.465 4.419-3.418 8.15-10.883 13.306-9.558 1.178-7.046 4.026-4.883 6.48-5.092.492-.07 1.032 0 1.376-.489.785-1.116 1.424-2.511 2.16-3.767-.638-.349-1.277-1.256-1.866-1.046-2.406.976-4.32-3.977-6.972-.21-.147.21-1.031-1.186-1.571-1.953-.344-.558-.638-1.256-.933-1.884.393-.488.835-1.395 1.13-1.395 4.124.767 7.855-3.698 11.734-5.581.442-.21 1.031-2.163 1.031-3.14 0-.837-.736-1.744-1.276-2.093-1.277-.906-3.29 1.745-3.977-1.953 3.436-6-2.112-1.674-1.474-4.814.148-.697-1.227-2.441-1.08-2.72.639-1.466 1.424-3.14 2.308-3.768.884-.628 1.915-.279 2.897-.279 2.21 0 4.419.07 6.677-.07 1.277-.069 3.34 1.326 3.241-3.209-.098-3.976-2.308-2.302-3.486-1.953-2.553.767-5.106 3.767-7.709 2.442-.736-.349-1.374-1.396-1.865-2.442-.099-.209.834-2.791 1.129-2.721 4.173.14 4.124-10.046 7.807-11.023.098 0 .442-2.162.196-2.511-.59-1.116-1.326-2.233-2.16-2.651-1.572-.698-1.13-1.744-.148-3.14a23.305 23.305 0 011.866-2.302c.59-.628 1.228-1.046 1.817-1.535-.638-.418-1.473-.488-1.817-1.325-.393-1.116-.393-2.791-.54-4.256.491.279.982.558 1.522.768.344.069.884.209 1.031-.14 1.277-3.418 2.21-7.325 3.388-7.814 2.013-.767 4.223.21 6.236 1.117 1.915.907 3.633 2.651 5.499 3.906.933.628 1.915 1.117 2.848 1.675-1.572 1.535-2.308 5.86-4.567 5.232-.491-.139-1.031-.07-1.522-.139.295 1.325.491 2.86.933 3.976.344.768.982 1.047 1.522 1.605-.442.418-.834.837-1.325 1.116-.246.14-.491-.07-.737.07-1.326.558-3.093-1.675-3.928 1.883-1.178 4.954 2.111 2.861 2.897 5.233.835 2.511 4.321-.837 4.173 5.651-.049 3.418 1.964 3.488 3.487.139.687-1.535 1.423-2.721 2.111-.349l6.53 3.698c4.075-.768 8.003 1.953 12.177-2.512 1.178-1.255 2.946-.418 3.633 2.372 1.129-2.162 2.455-2.511 3.977-2.651 1.571-.209 3.142-1.883 4.763-2.511 1.62-.628 1.031-1.256.736-3.14-.54-3.418.884-7.255 2.603-7.604 1.423-.279 2.847.279 4.222.628.54.139 1.277 1.325 1.424 1.116 3.928-6.627 7.316-2.372 9.378 1.256 3.093 5.372 2.504-3.698 4.37-3.209 2.946.697 6.383-1.954 7.561-6.488 1.179-4.465 2.308-3.558 3.879-4.186 1.326-.489 2.75-1.675 3.928-3.209 1.669-2.163 2.946-3.907 1.522-8.581-1.522-4.954 1.031-10.535 2.995-15.279.442-1.046 1.179-2.232 1.817-2.372 3.535-1.116 7.217-2.79 10.654-2.511 3.143.209 6.04 2.651 9.084 4.116.638.279 1.62 1.325 1.866.907 4.369-7.395 5.253-.279 6.333 4.046 1.179 4.814 3.781 2.023 5.647 3 1.129.558 3.29-2.163 3.928-1.186 1.031 1.535 1.326 4.814 1.718 7.535.393 2.651-1.62 6.557.54 8.162 1.817 1.325 3.83 2.511 5.843 2.651 3.437.14 6.874 1.256 10.458-1.605.295-.279.933 3.07 1.817-.348.344-1.256 1.129-2.93 1.768-3.21 3.044-1.186 6.334-.767 9.132-3.139 2.946-2.511 4.468 1.395 6.776 1.186.295 0 3.682 3.488-.687 4.814-1.375.418-2.897 3.697-2.799 7.465.098 3.209-.246 6.348-2.799 5.999-.147 1.535-.638 3.558-.343 4.535 1.08 3.279 4.32 4.186 6.284 2.651 2.062-1.605 1.719-8.79 4.567-7.325 3.044 1.604 2.013-6.558 5.008-6.279 1.374.14 1.031-6.279-1.326-7.395-.638-.279-1.227-.837-1.817-1.256.639-.488 1.375-.697 1.915-1.465 1.522-1.883 2.995-3.139 4.763-2.721 2.258.628 4.026 0 5.057-5.232 1.031-5.442 3.142-9.279 6.629-8.441 6.579-8.512 14.631-6.907 21.358-14.93 2.013-2.302 4.959-1.116 7.414-1.465zM96.226 313.46c.393-.279 1.571-.698 2.553-1.814.491-.558.54-3.07.933-3.279 2.062-1.047 4.37 1.325 6.186-3 .442 4.535 2.554-.419 3.634 1.186.589.837 1.964 1.535 2.357.907 4.664-7.535 9.869-7.604 15.122-7.535 1.179 0 2.897.21 3.437-1.046 2.504-5.442 5.499-4.744 8.249-4.186 4.713.977 8.15-2.581 10.949-9.837.442-1.116 1.031-2.999.835-3.697-.393-1.256-1.424-2.93-2.062-2.651-2.946 1.395-5.843 4.186-8.789 5.023-3.388.977-.688 2.93-.884 4.465-.196 1.883-2.406 2.79-3.241 2.023-.834-.767-.982-5.163-2.356-2.163-2.063 4.605-3.585-4.325-5.303 1.116-1.228-4.813-4.517-.837-6.285-3.418-.344-.558-1.08-.977-1.473-.628-3.731 3.349-3.879 3.767-5.99 1.395-1.62-1.813-2.897-1.883-4.763 0-1.423 1.465-3.142 2.233-4.713 2.721-1.473.419-2.946.14-4.419.07-3.633-.14 2.062 6.488-1.326 5.163-3.339-1.326-4.468 6.488-7.316 5.65-.049.977-.294 2.303-.049 2.791.59 1.116 1.572 1.535 2.112 2.651.49.977 1.08 3.488.932 3.767-3.044 4.675-.883 4.256 1.67 4.326zm360.341 137.924c1.178-.837 1.62-1.186 2.062-1.465-.393-.558-.687-1.465-1.178-1.675-.344-.139-.835.489-1.277.837.197.977.344 1.884.393 2.303z" fill="#FFE68E"/></svg>