<svg width="111" height="380" fill="none" xmlns="http://www.w3.org/2000/svg"><path d="M77.645 197.565c-.286-.471-.405-.647-.5-.824-.191.157-.501.275-.573.471-.047.137.167.334.286.51.334-.078.644-.137.787-.157z" fill="#FFE68E"/><path fill-rule="evenodd" clip-rule="evenodd" d="M0 6.141c-.31-.687-.313-1.53.904-1.707C2.43 4.2 2.716 3.257 3.765 2.786c.835-.373 1.527-.47 1.884.471.167.451.692.863.883 1.315.286.706.572.314 1.12.235 1.169-.177 2.433.392 2.576 1.118.12.589-.095 1.178.072 1.766.071.255.643.608 1.073.726 1.24.353 1.86-.216 2.528-.687-.263-.117-.477-.255-.764-.314-.5-.117-1.287-.078-.62-.647.406-.334.668-.726 1.002-1.099.453.412 1.05.785 1.335 1.236.811 1.354.764 1.334 3.602 1.53.787.06 1.716 1.237 2.289-.196.238-.608 2.862.079 4.292.903.978.55 2.218.98 3.41 1.255 1.17.256 2.457.255 3.673.334l.107.008c.803.056 1.357.095.466-.695-1.002-.863-.93-2.08-2.886-2.707-1.216-.373-1.455-1.256-.882-2.04.763-1.02 1.693-2.002 1.621-3.277-.024-.255 0-.137 1.002.098.668.157 1.574.06 2.17-.157.5-.176.692-.667 1.025-1.04.143.471.096 1.001.453 1.393.525.55 1.217 1.53 2.361 1.04 1.598-.706 2.147.51 2.1.726-.263 1.354 1.406 2.02 2.55 2.806 1.885 1.314 4.031 1 4.937-.609.191-.333.43-.647.763-.902.167-.137.787-.196.93-.118.811.51 1.527 1.099 2.314 1.629.381.255.858.431 1.287.647.382-.353 1.145-.726 1.073-1.079-.262-1.216.764-2.138.978-3.217.191-.883.835-.785 1.789-.295.596.295 1.24.55 1.908.785.286.098.81.137.954.04 1.454-.982 2.003-.766 1.86.647-.024.137.596.47.906.49.596.04 1.335-.275 1.717-.118 1.502.628.715-.353 1.05-.49.38-.157 1.215-.216 1.502-.04 2.074 1.237 2.146.373 2.17-.666 0-.157.262-.295.429-.432.167.255.31.51.477.765.43.648 1.145.726 1.717.334 1.025-.707 1.956-1.472 2.862-2.237.238-.196.143-.588.429-.726 1.12-.51 2.266-1.314 3.53-1.295 1.287.02 1.931 1.197 2.718 2.04.93 1.02 1.98 2.14 3.72 2.846 1.002.412 1.026 1 .072 1.412-.883.373-1.479.706-.191 1.471.763.452 1.169 1.138 1.74 1.727-1.454.412-.023 1.06 0 1.59 0 .293-.118.784.073.843.643.235 1.406.412 2.098.431.215 0 .62-.608.477-.843-1.216-1.982-1.74-3.806.072-5.572.739-.726 1.359-.647 1.907-.079 1.002 1.02 2.695 2.04 1.407 3.355-.143.157.406.589.358.844-.19.804.716 1.471.954 2.197.5 1.511-.81 3.022.906 4.532-.954.275-.93.864-.858 1.472.119 1.255-1.217 2.53.81 3.826.144.098-.763.706-.739 1.118.024.412.835.902.811 1.295-.19 2.57-.12 3.001 1.502 5.748.263.451.334.942.382 1.413l.004.061c.045.66.08 1.192 1.284.468.024-.02.548.236.524.314-.31 1.53.787 3.08.835 4.552.072 1.864-.334 3.767-1.145 5.493-.333.726-.262 1 .191 1.707.716 1.138-.858 2.001-1.12 3.08-.43-.157-.978-.49-1.288-.431-2.624.53-1.717 2.433-2.671 3.61 1.192.824.572 1.706.596 2.55.047 2.1-.024 4.14 1.621 6.22.573.745.287 1.745.263 2.609-.096 2.374-1.813 5.618-.263 7.854 2.195 3.14 3.983 5.565 5.7 8.704.644 1.178.477 2.63 0 3.806-.429 1.06 1.574 2.178.143 3.08 1.765 1.197.644 2.453.835 3.689.071.51-.62.981-.644 1.51l-.005.053c-.071.713-3.816 4.554-3.327 5.186 1.002 1.295 3.189.208 2.998 1.561-.095.668 1.932.578 2.838 1.225 1.025.745-2.051.863-.525 1.962.907.667-.31 1.275-.477 1.883-.214.707 1.86 1.315.287 2.001-.454.197-.311 1.433.214 1.904 1.049.941.739 1.844.453 2.55-.286.706-.286 1.197.072 1.923.31.647.071 1.373.071 2.06 0 .784-.31 1.628.048 2.354 1.812 3.59.405 6.984.859 10.477-1.837 3.649-.907 7.651-.787 11.516v.021c.095 2.858.196 5.872 2.432 8.651.835 1.02-3.762 2.469-3.094 3.528.978 1.589 4 2.357 4.167 4.064.096.903.477 1.903-.739 2.708-.525.353-.095 1.314-.143 2.001-.024.53 1.526 1.138.071 1.569 1.026 1.256-1.24 2.531.811 3.826.072.039-5.93 1.969-2.55 1.969.215 1.413-4.03 2.615-2.695 4.165 1.312 1.55 6.318 3.283 6.271 5.402-.048 2.472-.668 4.984.906 7.514.453.726.668 1.256.024 1.903-.477.491.548 1.08.763 1.59.214.529-.883 1.491-.596 1.648 1.311.765-.31.922-.215 1.373.048.177-.951-1.373-2.303-1.211 1.145 1.059.047.779-.383 1.76-1.012.609-5.006-.199-1.233 2.404 2.742.51.534.657-.539 1.226-.739.392-4.56 3.178-3.772 3.904.834.765 9.47.765 9.16 2.158-.048.196-.071.393 0 .589 1.192 2.962 1.574 5.885.143 8.652 1.717 1.864.334 3.649.739 5.474.048.196-.333.412-.5.608-.12-.275-.191-.569-.406-.805a2.954 2.954 0 00-.906-.706c-.215-.098-.835-.118-.882-.039-.358.765-.763 1.53-.93 2.334-.144.805.62 1.158 1.597.707.644-.275.954-.275 1.336.176.286.334.477.707.715 1.06-.501.039-1.264.255-1.478.098-1.05-.706-2.123-.981-3.148-.392-.573.313-2.194-.177-1.741.765.215.47 1.145.882 1.836 1.236.334.157.978.019 1.312.176.286.138.548.687.429.746-1.622.785-2.122 1.864-1.836 3.217.119.55-.215.491-.978.196-1.216-.431-2.766-.098-2.599.53.405 1.57-1.24 2.806-.239 4.571.835 1.492.096 3.159.978 4.846.525 1.001.024 2.1 1.717 2.983.358.176.334 1.236.072 1.294l-.041.01c-1.1.25-1.912.434-1.7 1.462.143.785.286 1.491.977 2.197.143.137.048.393.024.589-.071.314.119.804-.906.353-.858-.373-1.86-.589-2.79-.883-.215-.059-.429-.137-.644-.196-.072.176-.31.373-.215.49 1.097 1.374-3.1 1.138-1.454 2.845.858.883 2.098 2.237-.167 3.041-.263.098-.215.51-.263.785-.262 2.374-.477 2.903-2.504 4.846-.715.667.597 1.059.501 1.471-.167.687-.548 1.452-1.288 1.884-1.144.667.764 1.314.215 1.667-1.002.628-.334 1.472-.644 2.158-.143.334-.62.569-.858.883-.048.059.596.432.643.412 1.503-.686 1.932.432 2.004.844.238 1.079.167 2.178.047 3.237-.047.432-.858.804-.739 1.177.12.412 1.097.746 1.383 1.177.287.432.525 1.158.191 1.354-.74.432-.858.922-.81 1.511.07.922-.335 1.844.762 2.727-2.48-.314-1.073 1.432-2.218 1.844-.858.314 4.863 1.086 3.408 1.361-.262.039 1.245.54 1.078.52-.573-.098 2.299.748 2.155 2.082-.047.432-.6 3.409-1.077 3.644-2.17 1.04.637 4.007-.532 5.459-.548.687 4.531 11.392-5.15 2.87-.573 1.216-2.43 1.848-.785 3.123.477.373-2.203.472-2.156 1.041.263 2.923-1.925.363-.136 3.168.43.667.882.667 1.598.785 1.287.235 2.146.726 2.17 1.668.024 1.412.5 2.57 1.788 3.61.716.588.907.824.096 1.334-.382.235-.263.981-.024 1.432 1.383 2.629 1.43 5.101.024 7.514-.334.589-.024 1.373-.048 2.06-.024 1.04.239 2.099-1.36 2.825-.595.275-.261 1.374-.19 2.099.048.452.81 1.119.572 1.315-1.335 1.04-.262 2.001.477 3.021.954 1.315.883 1.295-1.335 1.707-.406.079-.787.412-.859.687-.143.451-.119.804.978 1.098 3.84 1.06 5.151 2.786 4.078 5.023l-.215 2.237c1.527.902-.143 1.608.12 2.491.238.805-.024 1.727-.453 2.472-.525.942 2.647.02 1.383 1.236-.43.412-.048 1.197-.453 1.589-1.121 1.06-.811 2.315-.883 3.551l-.001.02c-.024.35-.052.77-.333 1.02-.954.805-.691 1.472.454 2.296 1.597 1.177 1.979 2.923.691 4.12-.668.628-1.12.961-.048 1.687.501.333.74.844 1.097 1.275-1.931.079.167 1.923-2.027 2.041-1.097.058-2.623.588-1.001 1.844.214.176-.525 1.059-1.455.569-1.025-.55-1.478-.393-2.29-.04-1.049.452.406.923.191 1.06-.882.589-1.359 1.432-2.814 1.648-2.527.392-3.744 1.079-4.34 2.845-.31.922-2.36-.903-1.908.529.358 1.158-1.502 1.982-.119 3.395.906.922.406 2.295 1.193 3.296.548.686.739 1.275.763 1.942.023.687-1.264 2.021-1.336 1.844-.286-.549-.405-1.118-.477-1.687-.119-.981-.262-.844-1.74-1.727-2.004-1.177-4.484-1.02-6.606-1.746-.31-.117-.93.039-1.264.196-.811.373-1.646.766-2.266 1.276-.548.451-2.48-.177-1.932 1.039-1.049.197-2.074.412-3.148.55-.357.039-.977-.039-1.192-.216-.215-.177-.286-.706-.12-.765 1.933-.648-.31-1.511-.166-2.237.024-.098-.334-.255-.525-.372-.119.156-.286.294-.357.47-.573 1.119-2.075 1.884-3.363 1.334-.954-.412-1.932.334-2.814-.549-.31-.314-2.313-.569-3.29.098-.049.039-.526-.078-.62-.176-.406-.452.643-1.197-.669-1.374-.381-.059-.691.981-1.335 1.177-.477.138-1.789-.156-2.099-.49-.691-.726-4.56-.227-4.87-1.032-2.822 1.688-4.724-.282-4.94-.851-9.517 0-9.448-1.192-9.877-1.231-1.193-.137 3.977-3.463-4.94 1.562-5.556 0-4.247-.469-4.939-.822-.477-.235 1.235 1.687-5.556.491-8.644 0-11.113-1.766-11.113-2.453-2.988-.682-5.44-2.747-5.44-2.747V6.142zm77.145 190.6c.095.177.214.353.5.824-.143.02-.453.079-.787.157-.119-.176-.334-.373-.286-.51.072-.196.382-.314.573-.471z" fill="#FFE68E"/></svg>