<svg width="675" height="558" fill="none" xmlns="http://www.w3.org/2000/svg"><path d="M0 376.692l95.638-129.811h54.106v129.811h18.172v31.06h-18.172v44.153H95.618v-44.153H0v-31.06zm95.618 0v-64.028l-44.69 64.028h44.69zm410.394 0l95.618-129.811h54.107v129.811h19.264v31.06h-19.264v44.153H601.63v-44.153h-95.618v-31.06zm95.618 0v-64.028l-44.69 64.028h44.69z" fill="#75D1F9"/><path d="M339.721 555.418c104.258-1.406 187.632-87.157 186.222-191.529-1.41-104.373-87.07-187.843-191.328-186.436-104.258 1.407-187.632 87.157-186.222 191.53 1.41 104.372 87.071 187.842 191.328 186.435z" fill="#75D1F9"/><path d="M425.015 414.283c33.556-25.148 66.722-16.375 84.778-7.993 1.852-13.198 16.436-173.03-170.998-173.03h-.195c-185.25 0-172.869 159.832-171.016 173.03 18.055-8.382 51.221-17.155 84.777 7.993 33.751 25.303 32.815 63.024 28.72 84.682 18.582 3.334 38.099 4.854 57.519 4.952h.195c19.401-.098 38.938-1.618 57.519-4.952-4.094-21.658-5.05-59.398 28.701-84.682zm-86.064-15.635c-3.86 0-10.236-5.672-10.957-10.877-.956-6.141 7.097-6.628 11.601-6.862 19.147-.039 5.674 17.739-.644 17.739z" fill="#fff"/><path d="M339.575 380.909c-4.504.234-12.537.701-11.601 6.862.701 5.204 7.097 10.877 10.957 10.877 6.337 0 19.81-17.778.644-17.739z" fill="#333"/><path d="M252.361 414.283c-33.556-25.148-66.722-16.375-84.777-7.993 7.721 54.954 56.076 82.402 113.498 92.675 4.094-21.658 5.03-59.398-28.721-84.682zm257.431-7.993c-18.055-8.382-51.221-17.155-84.777 7.993-33.751 25.303-32.815 63.024-28.72 84.682 57.421-10.293 105.796-37.74 113.497-92.675z" fill="#fff"/><path d="M213.153 249.83c-11.699 5.185-12.284 21.346-1.696 28.091l22.812-17.252c-4.523-12.496-15.286-13.334-21.116-10.839z" fill="#FFC1C2"/><path d="M199.814 221.856c-33.439 14.815-35.115 61.016-4.835 80.277l65.201-49.321c-12.927-35.674-43.695-38.052-60.366-30.956zm11.641 56.045c-10.588-6.745-10.003-22.905 1.696-28.091 5.83-2.476 16.593-1.657 21.116 10.819l-22.812 17.272z" fill="#333"/><path d="M464.382 249.83c-5.83-2.476-16.593-1.657-21.116 10.819l22.812 17.253c10.588-6.726 10.003-22.887-1.696-28.072z" fill="#FFC1C2"/><path d="M477.719 221.856c-16.67-7.096-47.438-4.718-60.346 30.937l65.182 49.32c30.28-19.241 28.584-65.422-4.836-80.257zm-11.64 56.045l-22.813-17.252c4.524-12.476 15.287-13.314 21.117-10.819 11.698 5.185 12.283 21.346 1.696 28.071z" fill="#333"/><path d="M309.57 463.252c3.023 10.663 14.916 18.636 29.13 18.636 9.593 0 18.114-3.626 23.573-9.24-14.058-11.599-37.67-16.005-52.703-9.396z" fill="#FF7979"/><path d="M509.792 406.29c-18.055-8.382-51.221-17.155-84.777 7.993-33.751 25.303-32.815 63.024-28.72 84.682 57.421-10.293 105.796-37.74 113.497-92.675z" fill="#FFDBDB"/><path d="M368.57 457.93c0-13.237-13.376-23.958-29.871-23.958-16.495 0-29.871 10.721-29.871 23.958 0 1.832.273 3.606.741 5.322 15.052-6.609 38.664-2.203 52.703 9.396 3.939-4.055 6.298-9.162 6.298-14.718z" fill="#333"/><path d="M252.361 414.283c-33.556-25.148-66.722-16.375-84.777-7.993 7.721 54.954 56.076 82.402 113.498 92.675 4.094-21.658 5.03-59.398-28.721-84.682z" fill="#FFDBDB"/><path d="M313.312 333.811c11.503 16.102-.371 44.29-26.518 62.946-26.146 18.656-56.661 20.742-68.165 4.64-11.484-16.102.371-44.291 26.537-62.947 26.147-18.656 56.661-20.741 68.146-4.639zm50.754 0c-11.504 16.102.37 44.29 26.517 62.946s56.661 20.742 68.165 4.64c11.504-16.102-.371-44.291-26.517-62.947-26.167-18.656-56.681-20.741-68.165-4.639z" fill="#333"/><path d="M396.022 355.391c-6.181 0-11.192 5.01-11.192 11.209 0 6.18 5.011 11.209 11.192 11.209s11.211-5.01 11.211-11.209c0-6.18-5.03-11.209-11.211-11.209zm0 14.172a2.962 2.962 0 110-5.926 2.962 2.962 0 110 5.926zm-114.666-14.172c-6.181 0-11.211 5.01-11.211 11.209 0 6.18 5.011 11.209 11.211 11.209 6.181 0 11.192-5.01 11.192-11.209.019-6.18-4.992-11.209-11.192-11.209zm0 14.172a2.962 2.962 0 110-5.926 2.962 2.962 0 110 5.926z" fill="#fff"/><path d="M472.416 228.191c13.005 3.568 22.774 16.395 22.754 29.398 0 7.173-6.746 10.741-15.325-8.812-6.415-14.62-23.339-14.367-21.233-18.363 1.677-3.217 8.988-3.548 13.804-2.223zm-267.299 0c-13.005 3.568-22.773 16.395-22.773 29.398 0 7.173 6.746 10.741 15.325-8.812 6.415-14.62 23.339-14.367 21.233-18.363-1.676-3.217-8.988-3.548-13.785-2.223z" fill="#4D4D4D"/><path d="M338.074 218.639c9.359-78.659 100.278-62.206 169.652-63.629 56.076-1.15 86.025-7.115 82.126-67.488-1.365-21.288 17.782-96.399-95.326-86.379-113.108 10.02-232.357-3.06-304.383-.897-72.025 2.164-98.074 17.194-99.44 82.285-1.364 65.091 8.502 77.119 113.927 71.349 137.208-7.506 133.444 64.759 133.444 64.759z" fill="#333"/><path d="M228.526 69.1c0 5.133-.466 10.033-1.4 14.7-.866 4.6-2.533 8.667-5 12.2-2.466 3.467-5.833 6.267-10.1 8.4-4.266 2.067-9.8 3.1-16.6 3.1-6.8 0-12.333-1.033-16.6-3.1-4.266-2.133-7.633-4.967-10.1-8.5-2.4-3.533-4.066-7.6-5-12.2-.866-4.667-1.3-9.533-1.3-14.6 0-4.6.434-9.1 1.3-13.5.934-4.4 2.6-8.333 5-11.8 2.467-3.467 5.834-6.233 10.1-8.3 4.334-2.133 9.867-3.2 16.6-3.2 6.734 0 12.234 1.067 16.5 3.2 4.334 2.067 7.7 4.833 10.1 8.3 2.467 3.467 4.167 7.4 5.1 11.8.934 4.4 1.4 8.9 1.4 13.5zm-18.4 0c0-3.933-.266-7.267-.8-10-.466-2.8-1.3-5.067-2.5-6.8-1.133-1.733-2.633-3-4.5-3.8-1.866-.8-4.166-1.2-6.9-1.2-2.733 0-5.033.4-6.9 1.2-1.866.733-3.366 1.967-4.5 3.7-1.133 1.733-1.933 4-2.4 6.8-.466 2.733-.7 6.1-.7 10.1 0 4.467.234 8.2.7 11.2.534 3 1.367 5.433 2.5 7.3 1.134 1.8 2.6 3.1 4.4 3.9 1.867.733 4.167 1.1 6.9 1.1 2.734 0 5.034-.4 6.9-1.2 1.867-.8 3.367-2.1 4.5-3.9 1.2-1.867 2.034-4.3 2.5-7.3.534-3 .8-6.7.8-11.1zm81.638 9.9c0 4.2-.534 8.033-1.6 11.5-1 3.467-2.634 6.467-4.9 9-2.2 2.533-5.1 4.5-8.7 5.9-3.6 1.4-8 2.1-13.2 2.1-5.2 0-9.6-.7-13.2-2.1-3.534-1.4-6.434-3.333-8.7-5.8-2.267-2.533-3.9-5.533-4.9-9-1-3.467-1.5-7.3-1.5-11.5s.5-8.033 1.5-11.5c1-3.467 2.633-6.433 4.9-8.9 2.266-2.533 5.166-4.5 8.7-5.9 3.6-1.4 8-2.1 13.2-2.1 5.2 0 9.6.7 13.2 2.1 3.6 1.333 6.5 3.267 8.7 5.8 2.266 2.467 3.9 5.433 4.9 8.9 1.066 3.467 1.6 7.3 1.6 11.5zm-18.3 0c0-3.067-.2-5.567-.6-7.5-.4-1.933-1.034-3.467-1.9-4.6-.867-1.133-1.934-1.9-3.2-2.3-1.267-.467-2.734-.7-4.4-.7-1.734 0-3.234.233-4.5.7-1.2.4-2.234 1.167-3.1 2.3-.867 1.133-1.5 2.7-1.9 4.7-.4 1.933-.6 4.433-.6 7.5s.2 5.6.6 7.6c.4 1.933 1.033 3.5 1.9 4.7.866 1.133 1.9 1.933 3.1 2.4 1.266.4 2.766.6 4.5.6 1.666 0 3.133-.233 4.4-.7 1.266-.467 2.333-1.267 3.2-2.4.866-1.2 1.5-2.767 1.9-4.7.4-2 .6-4.533.6-7.6zm80.604 0c0 4.2-.533 8.033-1.6 11.5-1 3.467-2.633 6.467-4.9 9-2.2 2.533-5.1 4.5-8.7 5.9-3.6 1.4-8 2.1-13.2 2.1-5.2 0-9.6-.7-13.2-2.1-3.533-1.4-6.433-3.333-8.7-5.8-2.266-2.533-3.9-5.533-4.9-9-1-3.467-1.5-7.3-1.5-11.5s.5-8.033 1.5-11.5c1-3.467 2.634-6.433 4.9-8.9 2.267-2.533 5.167-4.5 8.7-5.9 3.6-1.4 8-2.1 13.2-2.1 5.2 0 9.6.7 13.2 2.1 3.6 1.333 6.5 3.267 8.7 5.8 2.267 2.467 3.9 5.433 4.9 8.9 1.067 3.467 1.6 7.3 1.6 11.5zm-18.3 0c0-3.067-.2-5.567-.6-7.5-.4-1.933-1.033-3.467-1.9-4.6-.866-1.133-1.933-1.9-3.2-2.3-1.266-.467-2.733-.7-4.4-.7-1.733 0-3.233.233-4.5.7-1.2.4-2.233 1.167-3.1 2.3-.866 1.133-1.5 2.7-1.9 4.7-.4 1.933-.6 4.433-.6 7.5s.2 5.6.6 7.6c.4 1.933 1.034 3.5 1.9 4.7.867 1.133 1.9 1.933 3.1 2.4 1.267.4 2.767.6 4.5.6 1.667 0 3.134-.233 4.4-.7 1.267-.467 2.334-1.267 3.2-2.4.867-1.2 1.5-2.767 1.9-4.7.4-2 .6-4.533.6-7.6zm80.905-.2c0 4.4-.567 8.367-1.7 11.9-1.133 3.533-2.833 6.567-5.1 9.1-2.267 2.467-5.167 4.367-8.7 5.7-3.467 1.333-7.533 2-12.2 2-1.4 0-2.967-.167-4.7-.5-1.667-.267-3.333-.8-5-1.6.4.933.667 1.6.8 2 .2.4.3.867.3 1.4v21.5h-18.1v-78h13.5l1.5 3.8c2.067-1.867 4.3-3.233 6.7-4.1 2.4-.867 4.867-1.3 7.4-1.3 3.667 0 7.033.567 10.1 1.7 3.133 1.133 5.833 2.867 8.1 5.2 2.267 2.333 4 5.267 5.2 8.8 1.267 3.467 1.9 7.6 1.9 12.4zm-18.1 0c0-5.333-.8-9.333-2.4-12-1.533-2.667-4.133-4-7.8-4-1.133 0-2.367.233-3.7.7-1.267.4-2.7 1.067-4.3 2v28.3c1.533.733 2.9 1.2 4.1 1.4 1.2.133 2.4.2 3.6.2 3.733 0 6.4-1.333 8-4 1.667-2.667 2.5-6.867 2.5-12.6zm73.298 9.9c0 3.2-.634 5.967-1.9 8.3-1.2 2.333-2.9 4.3-5.1 5.9-2.2 1.533-4.834 2.667-7.9 3.4-3.067.8-6.434 1.2-10.1 1.2-6.8 0-12.2-1.2-16.2-3.6-4-2.4-6.934-5.5-8.8-9.3l12.7-4.8c1.4 2.133 3.066 3.633 5 4.5 2 .867 4.433 1.3 7.3 1.3.933 0 1.866-.067 2.8-.2.933-.133 1.766-.367 2.5-.7a4.372 4.372 0 001.8-1.5c.466-.667.7-1.5.7-2.5 0-1.067-.234-1.967-.7-2.7-.467-.8-1.567-1.367-3.3-1.7l-12.8-2.1c-2.067-.333-4-.9-5.8-1.7-1.8-.8-3.4-1.867-4.8-3.2-1.334-1.4-2.4-3.1-3.2-5.1-.734-2-1.1-4.333-1.1-7 0-3 .633-5.533 1.9-7.6a14.943 14.943 0 015.3-5.1c2.2-1.333 4.766-2.3 7.7-2.9 2.933-.6 6.033-.9 9.3-.9 5.666 0 10.4.933 14.2 2.8 3.8 1.867 6.866 4.5 9.2 7.9l-11.8 6.2a14.236 14.236 0 00-4.8-3.6c-1.867-.867-4.134-1.3-6.8-1.3-1.8 0-3.434.267-4.9.8-1.4.533-2.1 1.667-2.1 3.4 0 2.067 1.1 3.3 3.3 3.7l11.3 1.9c2.6.4 4.933 1 7 1.8 2.133.733 3.933 1.733 5.4 3a12.274 12.274 0 013.5 4.7c.8 1.867 1.2 4.1 1.2 6.7zm23.383-5.4h-13.3l-2.3-18.2v-37h17.7v37.1l-2.1 18.1zm2.2 21.6c0 .733-.334 1.1-1 1.1h-15.8c-.667 0-1-.367-1-1.1V89.4c0-.533.066-.867.2-1 .133-.133.4-.2.8-.2h15.8c.4 0 .666.067.8.2.133.133.2.467.2 1v15.5z" fill="#fff"/></svg>