<svg width="1908" height="340" fill="none" xmlns="http://www.w3.org/2000/svg"><path d="M1905.35 151.938c-1.61-1.528-1.06-3.542-1.23-5.355-.64-9.423.36-19.02-2.25-28.316-2.72-9.468-9.25-18.568-13.51-27.924-2.02-4.564-2.09-9.372-4.32-13.929-1.9-3.923-2.8-8.82-14.31-9.592-30.16-1.999-60.43-4.17-91.44-.801-16.17 1.737-32.26 3.002-47.94 1.085-5.2-.64-7.67-.437-13.02.278-12.35 1.662-25.91 1.255-38.93 1.768-4.85.169-10.23.063-14.44 1.031-10.15 2.29-17.9 2.384-26.31-1.312-14.71-6.41-34.03-9.021-54.73-9.59-8.6-.228-17.57.495-26.06.087-9.53-.43-18.78-1.75-28.12-2.54-7.15-.63-17.13 3.883-21.68-1.942-.11-.172-5.05.469-7.62.852-3.81.543-7.8 1.68-11.52 1.634-19.56-.433-39.52-.324-58.4-2.012-23.96-2.098-49.61.79-72.62-3.57-.93-.202-2.86.863-4.41.976-5.46.542-11.12 1.326-16.6 1.341-10.44.012-22.2-2.1-31.04-.443-28.04 5.26-55.73 2.94-83.53 3.382-10.65.195-21.3.097-31.95.116-8.28.054-18.26 1.4-24.31-.208-8.46-2.17-13.56-3.282-20.13 1.17-.9.62-6.58.934-7.01.539-8.62-6.798-23.37-2.999-34.84-2.657-5.89.146-8.84 1.422-13.28-1.356-3.71-2.335-11.52-6.756-16.11.855-.39.6-4.18 1.436-5.84 1.26-11.84-1.289-23.48-2.82-35.31-4.167-3.53-.404-7.36-.33-10.98-.497-.05 7.218-10.68 5.066-19.56 5.317-3.517.064-7.166 2.127-10.747 3.19-2.355.67-5.822 2.022-7.074 1.714-2.504-.617-4.106-2.028-5.598-3.266-2.463-2.378.069-6.75-10.327-5.39-10.6 1.426-20.859 3.72-31.579 4.68-9.69.866-19.83.691-29.661.506-7.554-.147-18.701-5.332-18.062 3.857.053 1.464-6.594 3.573-9.46 4.377-23.961 6.644-48.535 7.677-72.539 1.532-1.775-.466-5.617-.919-6.325-.483-7.311 3.775-16.041 2.554-24.324 2.256-8.596-.346-9.134 1.96-7.079 4.47 6.707 8.273 6.81 8.27-9.701 12.13-1.541.29-2.864.863-4.19 1.379-2.245.84-4.385 1.737-6.628 2.636-1.905-1.224-5.049-2.405-5.097-3.753-.028-.761 4.572-2.271 7.354-2.544 9.479-.976 12.519-2.725 6.898-6.635-1.271-.836-.398-2.45-.235-3.688.929-5.84-6.712-8.39-19.358-6.365-4.935.817-9.855 2.045-14.806 2.394-2.167.134-4.607-1.6-6.913-2.458 2.03-1.068 3.727-2.77 5.993-3.025 4.429-.507 9.304-.09 13.949-.31 2.273-.08 4.524-.745 6.786-1.117-1.788-.818-3.393-2.346-5.255-2.34-15.926-.03-31.949.117-47.858.554-2.273.08-4.585 1.92-6.925 3 2.498.44 4.902 1.178 7.385 1.209 4.037.093 8.149-.578 12.185-.484 11.283.31 7.507 4.608 6.775 7.273-1.464 5.331-14.454 3.555-16.239 2.796-7.035-2.982 4.315-.796 4.159-2.257-.02-.586-.777-1.499-1.711-1.583-4.259-.556-8.843-1.51-13.072-1.187-11.55.872-18.781 6.873-31.719 6.562-.828-.03-1.92 1.24-2.829 1.858 2.085.456 4.076 1.207 6.355 1.304 9.738.482 20.487.342 19.173 6.958-.351 1.772-.908 3.552-1.361 5.328-3.454-1.17-7.115-2.334-10.469-3.566-2.619-.965-4.931-1.999-7.347-3.03-2.021 1.303-4.148 2.55-5.961 3.905-.907.676-1.29 1.511-2.091 2.243l-3.296 3.283c-2.31-.975-6.795-2.051-6.516-2.94 2.28-8.528-10.876-12.059-22.609-16.284-4.923-1.765-8.32-4.228-16.311-2.13-1.537.405-5.316-1.164-8.131-1.829 2.441-1.141 4.553-2.799 7.428-3.368 3.699-.657 8.376.001 11.97-.71 2.053-.424 2.705-2.442 4.002-3.778-1.971-.166-4.058-.68-6.227-.604-7.746.27-15.496.423-23.019 1.155-2.472.262-6.536 2.28-6.294 3.27 1.35 5.937-8.938 4.535-15.323 5.286-2.059.248-4.683-.834-6.974-1.282 1.307-1.043 2.72-2.031 3.923-3.07 1.805-1.589 3.401-3.228 5.205-4.816-6.835-.29-13.675-.697-20.605-.749-.31.011-2.772 3.44-1.4 4.214 8.975 5.202-.983 10.125-2.457 15.163-.283.773-5.533 1.425-8.507 2.116-1.071-1.019-3.809-2.39-3.005-3.063 6.307-5.794-3.612-5.565-10.689-6.844-2.913-.485-4.228-2.551-6.344-3.885 2.981-.515 5.961-1.03 8.834-1.658 2.257-.49 6.357-1.512 6.246-1.743-3.82-5.616-29.246-8.132-38.717-4.047-2.751 1.152-6.448 1.867-9.62 2.8-.158-1.52-.111-3.106-.579-4.615-.24-.93-1.509-1.708-2.263-2.561-1.735.647-4.713 1.22-5.101 1.938-1.449 2.866-2.586 5.78-3.103 8.673-1.203 6.847-.998 6.781-13.905 4.415-2.289-.389-5.784.202-8.562.592-5.559.722-12.717 2.966-16.161 2.09-11.057-2.666-21.831-3.229-34.082-1.687-2.47.32-6.108-.198-8.201-.888-7.221-2.388-13.554-3.106-20.652.838-1.724.94-9.154 1.375-10.421.656-2.531-1.378-4.219-5.191-3.297-5.458 5.227-1.297 11.194-2.15 17.075-2.531 4.125-.32 8.391.411 12.524.326.827-.03 2.709-2.324 2.185-2.54-3.145-1.181-6.703-2.348-10.549-2.918-4.055-.621-8.716-.81-13.163-.832-12.619-.088-25.954-2.85-36.996 3.578-2.532 1.496-9.567 1.39-14.611 2.035-1.561-6.047-17.389-3.325-23.224-7.462-2.441-1.734-13.438-5.633-17.107 1.652-.388.718-3.988 1.254-6.246 1.743-2.257.49-4.624.807-6.989 1.183 2.084.455 4.27.848 6.356 1.362 1.773.407 3.547.874 5.219 1.343-1.741.472-3.371 1.174-5.124 1.294-6.906.651-13.922 1.072-20.832 1.606 5.921.732 11.945 1.46 17.865 2.193 1.87.228 3.745.632 5.617.919-2.251.665-4.484 1.858-6.756 1.937-13.742.303-27.597.375-41.343.561-3.929.02-8.069-.07-11.88.356-1.545.171-3.459 1.587-3.636 2.415-.26 1.417.722 2.849 1.185 4.24-5.067.002-10.235.064-15.302.065.262-1.358.629-2.662.787-4.017.072-.882-.269-1.75-.404-2.626-2.057.307-5.569.43-5.965.912-1.68 2.171-4.071 4.718-3.07 6.678.556 1.095 7.09 1.63 11.137 2.017 3.319.295 6.93.052 10.443-.012 20.264-.12 20.787.038 30.167 7.866.959.787 3.865 1.097 5.134 1.874 1.056.608 1.094 1.663 1.639 2.465-12.813.271-4.693 4.681-6.784 6.925-4.978 5.395-9.069 6.652-20.412 4.642-1.666-.294-4.882-.592-5.084-.468-8.089 8.026-26.333 1.036-38.135 6.434-5.698 2.604-10.008.642-6.944 5.346.655.974 2.141 2.037 1.761 2.989-4.374 10.713-5.942 21.797-21.116 31.243-1.012.622-4.327.444-6.595.641-1.192-4.417-7.906-4.183-15.542-3.741-2.787.156-8.3-.767-8.214-1.239.273-3.94-9.527-9.055 7.038-11.392 1.853-.241 2.933-1.862 4.451-2.795-2.077-.221-4.262-.614-6.435-.656-1.655-.001-3.289.584-5.044.645-3.101.05-6.104-.08-9.209-.148.462-1.541 1.027-3.087 1.388-4.566.179-.769.757-1.962.026-2.171-6.681-1.762-24.714.04-27.294 3.063-5.556 6.589-16.485 7.498-28.619 6.513-11.613-.886-21.712.111-30.574 3.882-2.647 1.148-6.823 2.936-6.372 3.977.893 1.846 4.299 4.543 7.405 4.669 11.5.597 22.377 4.031 35.088.889 4.407-1.092 10.086-1.349 15.15-1.408 2.791-.039 7.584.967 7.82 1.78.594 2.15-.25 4.585-1.827 6.752-.293.48-5.872.616-8.772.482-7.356-.389-14.959-1.884-21.97-1.287-9.484.8-19.033 2.717-27.325 5.059-1.836.709 1.31 4.824.36 7.203-1.52 3.749-5.521 7.526 4.182 9.945-1.933.889-3.868 1.719-5.8 2.608l-5.806 2.49c2.396.503 4.692 1.069 7.086 1.513 2.08.338 4.363.552 6.542.769-1.83.886-3.343 1.936-5.493 2.539-9.72 2.92-8.405 4.986 1.364 6.347 9.771 1.419 19.743 2.655 29.512 4.016 1.351.188 2.41.855 3.665 1.28-1.433.402-2.757.976-4.2 1.085-10.816 1.199-21.526 2.452-32.347 3.475-5.771.553-8.45.823-1.967 2.826 6.588 2.058 12.873 4.303 18.75 6.738 1.364.539 1.65 2.759.732 3.084-3.27 1.111-8.746 1.244-10.767 2.546-3.945 2.484-6.527 5.449-8.49 8.392-.295.421 5.543 1.743 8.875 2.389 2.291.448 4.979.413 7.571.616-2.34 1.079-4.36 2.44-7.127 3.123-3.585.947-7.814 1.27-11.507 2.103-.92.267-1.798 1.764-1.587 1.874 5.53 1.391 11.2 3.775 16.99 3.749 7.444-.025 9.718-.046 6.434 3.53-2.391 2.548 2.15 5.205 5.688 2.911 6.769-4.46 14.455-.621 20.907-2.371 1.741-.472 5.4.633 8.208 1.063-1.904 1.709-2.944 4.444-5.821 4.955-6.058 1.208-13.414.819-19.577 1.973-2.774.507-3.921 3.129-5.827 4.779 3.008.247 6.867 1.169 8.707.577 7.367-2.193 10.276-1.825 13.618 1.989 4.96 5.693 7.74 5.362 16.025-.09 1.11-.742 6.269-1.098 8.043-.632 9.185 2.378 3.57 10.201 16.624 10.86 11.188.549 22.837-.444 34.306-.726 2.791-.039 5.495.395 8.285.356 4.549-.041 10.356.402 13.524-.648 11.541-4.039 22.153-2.239 33.071-.566 1.559.239 2.921.72 4.381 1.079-1.633.585-3.147 1.635-4.799 1.693-12.388.608-11.343 3.798-8.212 7.502 2.051 2.393 3.384 4.986 6.048 7.181 5.856 4.724-6.055 7.076-7.786 10.715-.19.475-2.555.851-3.885 1.25-1.85-2.576-3.597-5.155-5.447-7.73-.544-.744-1.934-2.045-2.554-2.023-5.974.677-15.373 12.562-10.755 14.455 9.758 3.942 5.192 6.389-4.472 7.958-4.832.814-13.214.637-8.35 3.635 2.856 1.778-1.033 8.719 13.739 5.388 3.489-.767 10.178 1.229 14.975 2.352 3.128.713-10.813 1.257-.942 2.556 3.532.463 8.458 2.286 10.172-1.821 1.048-2.501 20.743-4.068 25.665-2.362 1.152.429 2.63 1.258 2.233 1.741-.394.542-2.443 1.082-3.882 1.309-3.398.411-6.905.651-10.411.949 4.058.68 8.016 1.481 12.17 1.981 3.322.354 7.135-.014 10.355.402 2.388.269 4.287 1.317 6.38 2.007-2.251.665-4.389 1.62-6.756 1.937-5.659.784-11.435 1.22-17.1 1.828-1.442.168-2.776.449-4.216.675 1.256.425 2.422 1.206 3.766 1.218 4.555.134 9.399-.328 13.857-.014 3.317.236 8.833 1.218 8.97 2.151.673 4.377 11.759 7.862 3.264 13.204-2.024 1.244-.159 4.229 1.765 5.981 1.07 1.019 5.728 1.15 8.747 1.69.274-1.007.856-2.083.924-3.083.228-5.171.145-10.389.787-15.574.167-1.121 2.686-2.969 4.642-3.213 11.943-1.472 10.764-5.538 11.142-9.423.158-1.355 1.453-2.749 2.231-4.126 2.712.668 5.218 1.344 8.03 1.891 3.229.65 6.559 1.238 9.984 1.588.415.044 2.732-1.679 2.418-1.786-2.729-1.137-5.762-2.087-8.795-3.037-.94-.261-2.588-.086-3.221-.416-2.837-1.25-5.365-2.57-7.998-3.886 4.028-.141 8.758-.892 11.985-.301 6.249 1.249 11.699 3.288 11.705-2.344-.002-.058 4.637-.455 4.643-.279 3.279 4.931 11.925 3.808 20.082 3.465 8.568-.416 17.231-1.07 25.818-.959 16.243.197 19.377-1.79 13.338-8.737-1.724-1.934-2.216-4.147-3.325-6.22 5.284.285 10.668.45 15.956.852 2.801.254 6.433.597 7.706 1.491 5.317 4.097 8.885 2.682 13.314-.699 2.518-1.906 5.779-3.252 7.354.331.563 1.271 3.389 2.228 5.084 3.342.681-1.197 1.155-2.387 1.942-3.529.693-.845 1.802-1.647 2.808-2.444 1.574.649 3.762 1.1 4.721 1.888.961.847.796 2.026 1.143 3.07 1.153 3.304 1.045 3.19 7.088 1.571 1.742-.471 5.871-.674 6.507-.226 6.773 4.339 18.961 3.914 27.102 6.036 10.024 2.701 15.155 1.584 22.929-.8 3.069-.928 7.091-1.244 10.689-1.839 2.146 7.963 7.908 1.367 12.84.491 2.774-.507 6.418.187 9.624.193 4.034.035 9.742.599 11.879-.356 4.476-2.092 5.315-4.644-1.885-6.446-1.355-.305.663-4.599.973-4.61 9.302-.148 20.998-2.727 25.343 3.106 2.714 3.601 7.461 3.318 13.517 2.051 6.774-1.41 12.94-2.504 18.742.696 1.688.938 6.538.652 9.961.943.259-1.417 1.95-3.294.576-4.127-1.798-1.11-5.855-1.79-9.166-1.851-3.208-.064-6.688.938-10.092 1.174-1.238.101-2.715-.727-4.072-1.09.908-.619 1.8-1.706 2.73-1.738 8.675-.303 17.446-.843 25.839-.373 2.693.141 3.738 3.331 6.579 4.698 2.841 1.368 6.407 2.769 10.35 3.16 7.369.74 15.326.58 22.793 1.2 12.135.984 17.033-.829 17.753-6.721.157-1.413 1.959-3.06 4.196-4.135 1.625-.82 14.694 6.058 15.729 6.081 10.77.445 8.434 4.516 10.09 7.45.925-.149 2.268-.196 2.774-.507 3.434-2.29 10.462-5.293 9.37-6.897-3.807-5.265 8.469-6.104 11.041-9.361 4.002 2.031 8.103 3.941 11.798 6.042 5.806 3.317 10.685 6.726 22.558 3.32 3.276-.936 9.296-.324 13.76.165 7.37.799 14.749 1.833 21.521 3.239 2.709.551 4.116 2.321 6.123 3.483-2.89.159-5.679.257-8.569.416-2.373.141-4.748.224-7.225.369 1.07 1.019 2.691 2.957 2.999 2.888 8.224-1.343 10.001 7.864 20.653 2.096.23.637.461 1.333.691 1.97.358 1.337-.306 3.003 1.177 4.007 4.986 3.522 5.816 6.485-2.967 9.549-1.942.654-1.767 2.643-2.44 4.074 8.773-.482 17.537-1.198 26.322-1.328 8.992-.138 5.784-3.076 7.473-5.013.595-.724 3.141-1.811 3.765-1.715 8.017 1.539 10.141 5.983 3.851 9.37-6.189 3.325-.433 5.236 2.431 7.248 3.289 2.35 6.7 2.289 7.301-1.134 2.692.082 6.089-.33 7.765.257 18.945 6.38 27.941 6.359 45.848 1.042 4.298-1.265 9.124-8.004 16.999-1.766 1.832-.827 5.502-2.304 5.291-2.414-2.643-1.609-6.308-2.89-8.643-4.568a38.51 38.51 0 01-7.801-7.062c-.54-.626 1.058-2.207 2.595-2.613 7.066-1.947 20.403.873 23.224 4.588 2.388 3.143 4.98 6.221 8.495 9.09 1.066.902 6.369 1.714 8.213 1.239 13.525-3.522 30.545-4.702 38.761-12.087 3.404-3.111 10.485-4.648 16.146-2.499 12.053 4.508 12.642.733 16.104-3.671 5.939-7.423 23.186-8.024 36.176-3.432 10.26 3.632 15.94 12.058 36.49 8.349 10.7 1.446 14.47-.152 9.63-5.381-1.83-1.931-2.42-4.081-3.53-6.096 3.66.929 7.21 1.861 10.86 2.731.83.206 2.49.207 3.3-.056 9.11-2.84 15.51-.13 22.91 1.372 4.27.848 9.54.899 14.31 1.261.15-1.589-.53-3.267.55-4.83 1.08-1.68 4.13-3.136 5.52-4.827 2.77-3.441 12.3-5.944 18.77-4.233 5.32 1.398 9.44 3.719 14.06 5.67-5.14.766-10.29 1.414-15.33 2.235-2.36.376-4.72.986-6.87 1.706-.51.194-.06 1-.04 1.527 2.15-.368 4.41-.975 6.57-1.109 3.82-.192 8.77-.775 11.28.018 6.69 2.113 20.11-4.339 21.93 3.107 1.84-.651 3.56-1.649 5.52-1.835 7.2-.838 14.51-1.914 21.75-1.873 2.58.027 4.65 2.83 7.28 4.205 1.37.656 4.71 1.595 5.33 1.339 3.67-1.418 8.06-2.921 9.96-4.806 3.2-3.103 3.89-3.831 5.58-2.834 13.19 7.284 27.79 4.898 43.46.772 3.28-.877 8.24-.874 12.08-.655 2.59.144 5.01 1.35 6.91 2.282 1.58.824 2.14 2.037 3.21 3.056 1.51-1.051 4.67-2.334 4.33-3.144-2.6-6.186 8.71-2.239 12.27-3.83 2.75 1.605 6.32 3.006 7.83 4.831 1.4 1.652.55 3.736.61 5.669 3.79-1.188 7.88-2.328 11.35-3.681 2.65-1.031 4.67-2.451 6.8-3.757 10.52-6.468 10.21-6.34 20.65-.896 2.63 1.375 7.53 2.378 11.56 2.413 1.97.049 4.56-2.506 6.69-3.929 1.61-1.112 3.19-3.279 4.43-3.264 3 .072 6.85.759 8.44 1.818 2.75 1.84 4.8 4.115 5.71 6.372 1.13 2.835 1.89 3.688 9.82 2.884 16.79-1.759 34.38-1.668 51.06-3.599 16.99-1.942 35.64-3.824 49.55-8.357 20.95-6.832 43.68-7.272 66.04-9.695 7.52-.848 16.47-2.158 21.34-4.557 7.63-3.727 12.95-5.321 21.35-1.566 5.68 2.501 11.28 3.01 19.67.429 7.98-2.449 19.87-5.327 27.25-4.294 12.67 1.729 24.2.154 36.28-.268 64.97-2.323 126.12-9.97 177.38-31 2.75-1.152 6.37-4.094 6.16-4.145-9-3.031.87-4.724 3.17-6.799 1.6-1.464 5.34-3.941 5.03-4.047-11.3-3.713.79-6.599 2.65-9.773.87-1.438 1.44-2.983 1.7-4.459.64-5.244.14-10.506 1.61-15.72 3.4-11.852 8.25-23.637 11.45-35.482 2.01-10.278 1.54-20.47-8.31-29.923z" fill="#DFF5B0"/><path d="M122.39 88.797c2.563-.617 5.442-1.07 7.581-1.967 3.258-1.405 6.047-4.378 8.938-4.479 11.262-.217.623 2.972 2.018 4.39.322.341 1.977.342 2.813.606 2.297.624 4.493 1.31 6.688 1.997l-3.357 1.526c1.622 1.997 3.247 4.054 4.869 6.051 3.891-1.075 10.272-1.885 11.153-3.265 2.835-4.56-4.685-9.58 4.253-14.059-.938-.202-2.095-.748-2.919-.661-11.616 1.873-17.163-2.922-25.993-4.08-4.883-.652-11.611-.887-15.708.196-3.381.88-4.614 3.976-5.776 6.188-.579 1.135.816 2.554 1.686 3.756 1.083 1.37 2.572 2.551 3.754 3.801z" fill="#DFF5B0"/></svg>