<svg width="1908" height="340" viewBox="0 0 1908 340" fill="none" xmlns="http://www.w3.org/2000/svg">
<path d="M1905.35 151.938C1903.74 150.41 1904.29 148.396 1904.12 146.583C1903.48 137.16 1904.48 127.563 1901.87 118.267C1899.15 108.799 1892.62 99.6986 1888.36 90.3433C1886.34 85.7792 1886.27 80.971 1884.04 76.4141C1882.14 72.4909 1881.24 67.5943 1869.73 66.8221C1839.57 64.8231 1809.3 62.652 1778.29 66.021C1762.12 67.7583 1746.03 69.0231 1730.35 67.1059C1725.15 66.4657 1722.68 66.6693 1717.33 67.3839C1704.98 69.0465 1691.42 68.6393 1678.4 69.1516C1673.55 69.3209 1668.17 69.2151 1663.96 70.1831C1653.81 72.4732 1646.06 72.5675 1637.65 68.8712C1622.94 62.4613 1603.62 59.8498 1582.92 59.281C1574.32 59.0525 1565.35 59.7759 1556.86 59.3681C1547.33 58.9377 1538.08 57.6175 1528.74 56.8283C1521.59 56.1979 1511.61 60.7109 1507.06 54.8856C1506.95 54.7135 1502.01 55.355 1499.44 55.738C1495.63 56.2814 1491.64 57.418 1487.92 57.3718C1468.36 56.9391 1448.4 57.0482 1429.52 55.3598C1405.56 53.262 1379.91 56.1508 1356.9 51.7904C1355.97 51.5884 1354.04 52.6529 1352.49 52.7655C1347.03 53.3079 1341.37 54.0919 1335.89 54.107C1325.45 54.1191 1313.69 52.0065 1304.85 53.6639C1276.81 58.9243 1249.12 56.6045 1221.32 57.0458C1210.67 57.2409 1200.02 57.1431 1189.37 57.1624C1181.09 57.2161 1171.11 58.5615 1165.06 56.9539C1156.6 54.7847 1151.5 53.6721 1144.93 58.1249C1144.03 58.7432 1138.35 59.0585 1137.92 58.6627C1129.3 51.8646 1114.55 55.6644 1103.08 56.0055C1097.19 56.1521 1094.24 57.4284 1089.8 54.65C1086.09 52.3151 1078.28 47.8941 1073.69 55.5047C1073.3 56.1051 1069.51 56.9414 1067.85 56.7647C1056.01 55.476 1044.37 53.9457 1032.54 52.5984C1029.01 52.1935 1025.18 52.2681 1021.56 52.1012C1021.51 59.319 1010.88 57.1668 1002 57.4179C998.483 57.4817 994.834 59.5449 991.253 60.6085C988.898 61.2772 985.431 62.6301 984.179 62.3218C981.675 61.7051 980.073 60.2942 978.581 59.0556C976.118 56.6775 978.65 52.3065 968.254 53.6663C957.654 55.0919 947.395 57.3856 936.675 58.346C926.985 59.2119 916.845 59.0374 907.014 58.8522C899.46 58.7049 888.313 53.5202 888.952 62.7086C889.005 64.1734 882.358 66.2825 879.492 67.0864C855.531 73.7298 830.957 74.7626 806.953 68.6182C805.178 68.1521 801.336 67.6994 800.628 68.1348C793.317 71.9096 784.587 70.6887 776.304 70.3908C767.708 70.0452 767.17 72.3519 769.225 74.8616C775.932 83.1344 776.035 83.1308 759.524 86.9918C757.983 87.2802 756.66 87.8544 755.334 88.3699C753.089 89.2109 750.949 90.1068 748.706 91.0063C746.801 89.7821 743.657 88.6011 743.609 87.2534C743.581 86.4917 748.181 84.982 750.963 84.709C760.442 83.7332 763.482 81.9845 757.861 78.0738C756.59 77.2381 757.463 75.6237 757.626 74.386C758.555 68.5457 750.914 65.9961 738.268 68.021C733.333 68.8384 728.413 70.0659 723.462 70.4145C721.295 70.5487 718.855 68.8152 716.549 67.9569C718.579 66.8888 720.276 65.1869 722.542 64.9319C726.971 64.4255 731.846 64.8422 736.491 64.6216C738.764 64.5424 741.015 63.8772 743.277 63.505C741.489 62.6873 739.884 61.1593 738.022 61.1655C722.096 61.1342 706.073 61.2822 690.164 61.7195C687.891 61.7987 685.579 63.6394 683.239 64.7183C685.737 65.1592 688.141 65.8967 690.624 65.9275C694.661 66.0214 698.773 65.35 702.809 65.4439C714.092 65.7546 710.316 70.0515 709.584 72.7171C708.12 78.0481 695.13 76.2717 693.345 75.5126C686.31 72.5312 697.66 74.7168 697.504 73.2556C697.484 72.6696 696.727 71.7573 695.793 71.6726C691.534 71.1171 686.95 70.1622 682.721 70.4857C671.171 71.3577 663.94 77.3592 651.002 77.0476C650.174 77.0178 649.082 78.2879 648.173 78.9062C650.258 79.3615 652.249 80.1134 654.528 80.21C664.266 80.6918 675.015 80.5517 673.701 87.1682C673.35 88.9404 672.793 90.7198 672.34 92.4956C668.886 91.3254 665.225 90.1623 661.871 88.9299C659.252 87.9653 656.94 86.9312 654.524 85.9008C652.503 87.2032 650.376 88.4507 648.563 89.8046C647.656 90.4815 647.273 91.3163 646.472 92.0482C645.373 93.1425 644.275 94.2368 643.176 95.3311C640.866 94.3556 636.381 93.28 636.66 92.3903C638.94 83.8628 625.784 80.3321 614.051 76.1066C609.128 74.3422 605.731 71.8793 597.74 73.9766C596.203 74.3822 592.424 72.8126 589.609 72.1481C592.05 71.007 594.162 69.3494 597.037 68.7798C600.736 68.1228 605.413 68.7811 609.007 68.0691C611.06 67.6455 611.712 65.6281 613.009 64.2923C611.038 64.1263 608.951 63.6124 606.782 63.688C599.036 63.9581 591.286 64.111 583.763 64.8426C581.291 65.1048 577.227 67.1238 577.469 68.1127C578.819 74.0496 568.531 72.6483 562.146 73.3989C560.087 73.6467 557.463 72.5649 555.172 72.1168C556.479 71.0739 557.892 70.086 559.095 69.0467C560.9 67.4584 562.496 65.8188 564.3 64.2305C557.465 63.9408 550.625 63.534 543.695 63.4823C543.385 63.4931 540.923 66.9229 542.295 67.6964C551.27 72.8981 541.312 77.8213 539.838 82.8594C539.555 83.6319 534.305 84.2843 531.331 84.9747C530.26 83.956 527.522 82.5848 528.326 81.9115C534.633 76.1182 524.714 76.3467 517.637 75.0681C514.724 74.583 513.409 72.5169 511.293 71.1827C514.274 70.6681 517.254 70.1535 520.127 69.5253C522.384 69.0359 526.484 68.013 526.373 67.7822C522.553 62.1661 497.127 59.6499 487.656 63.7348C484.905 64.8867 481.208 65.6023 478.036 66.5342C477.878 65.0144 477.925 63.4288 477.457 61.9197C477.217 60.9894 475.948 60.2123 475.194 59.3586C473.459 60.0058 470.481 60.579 470.093 61.2965C468.644 64.163 467.507 67.0773 466.99 69.97C465.787 76.8172 465.992 76.7515 453.085 74.3855C450.796 73.996 447.301 74.5871 444.523 74.9773C438.964 75.6991 431.806 77.9434 428.362 77.0661C417.305 74.401 406.531 73.838 394.28 75.3798C391.81 75.7005 388.172 75.1821 386.079 74.4924C378.858 72.1041 372.525 71.3863 365.427 75.3297C363.703 76.2699 356.273 76.7049 355.006 75.9864C352.475 74.608 350.787 70.7948 351.709 70.528C356.936 69.2311 362.903 68.3777 368.784 67.9967C372.909 67.6769 377.175 68.4081 381.308 68.3227C382.135 68.2939 384.017 65.9989 383.493 65.7825C380.348 64.6015 376.79 63.4349 372.944 62.865C368.889 62.2437 364.228 62.0542 359.781 62.0333C347.162 61.9452 333.827 59.1835 322.785 65.6112C320.253 67.1074 313.218 67.0007 308.174 67.6459C306.613 61.599 290.785 64.3215 284.95 60.1837C282.509 58.4501 271.512 54.5509 267.843 61.8361C267.455 62.5536 263.855 63.0898 261.597 63.5792C259.34 64.0686 256.973 64.3858 254.608 64.7616C256.692 65.2169 258.878 65.61 260.964 66.1239C262.737 66.5315 264.511 66.9976 266.183 67.4673C264.442 67.9387 262.812 68.6408 261.059 68.7606C254.153 69.4121 247.137 69.8327 240.227 70.3669C246.148 71.0992 252.172 71.8278 258.092 72.5601C259.962 72.7882 261.837 73.1921 263.709 73.4789C261.458 74.144 259.225 75.3365 256.953 75.4158C243.211 75.7189 229.356 75.7913 215.61 75.9773C211.681 75.9969 207.541 75.9066 203.73 76.3328C202.185 76.504 200.271 77.92 200.094 78.7476C199.834 80.1646 200.816 81.597 201.279 82.9889C196.212 82.9895 191.044 83.0524 185.977 83.0531C186.239 81.6946 186.606 80.3912 186.764 79.0363C186.836 78.1538 186.495 77.2857 186.36 76.4104C184.303 76.7168 180.791 76.8392 180.395 77.3224C178.715 79.493 176.324 82.0403 177.325 84.0001C177.881 85.0954 184.415 85.6302 188.462 86.0171C191.781 86.312 195.392 86.0688 198.905 86.005C219.169 85.8851 219.692 86.0429 229.072 93.8705C230.031 94.6584 232.937 94.9677 234.206 95.7448C235.262 96.3534 235.3 97.408 235.845 98.2104C223.032 98.4811 231.152 102.891 229.061 105.135C224.083 110.53 219.992 111.787 208.649 109.777C206.983 109.483 203.767 109.185 203.565 109.309C195.476 117.335 177.232 110.345 165.43 115.743C159.732 118.347 155.422 116.385 158.486 121.089C159.141 122.063 160.627 123.126 160.247 124.078C155.873 134.791 154.305 145.875 139.131 155.321C138.119 155.943 134.804 155.765 132.536 155.962C131.344 151.545 124.63 151.779 116.994 152.221C114.207 152.377 108.694 151.454 108.78 150.982C109.053 147.042 99.2531 141.927 115.818 139.59C117.671 139.349 118.751 137.728 120.269 136.795C118.192 136.574 116.007 136.181 113.834 136.139C112.179 136.138 110.545 136.723 108.79 136.784C105.689 136.834 102.686 136.704 99.581 136.636C100.043 135.095 100.608 133.549 100.969 132.07C101.148 131.301 101.726 130.108 100.995 129.899C94.3135 128.137 76.2812 129.939 73.7006 132.962C68.1452 139.551 57.2163 140.46 45.0822 139.475C33.4686 138.589 23.3701 139.586 14.5083 143.357C11.8607 144.505 7.68484 146.293 8.13567 147.334C9.02894 149.18 12.4345 151.877 15.5413 152.003C27.0411 152.6 37.9184 156.034 50.6289 152.892C55.0365 151.8 60.7148 151.543 65.7798 151.484C68.5705 151.445 73.3633 152.451 73.5992 153.264C74.1931 155.414 73.3494 157.849 71.7723 160.016C71.4793 160.496 65.9 160.632 62.9998 160.498C55.6438 160.109 48.0414 158.614 41.0309 159.211C31.5458 160.011 21.9972 161.928 13.7048 164.27C11.8688 164.979 15.0148 169.094 14.0657 171.473C12.5452 175.222 8.54386 178.999 18.2474 181.418C16.3144 182.307 14.3793 183.137 12.4463 184.026C10.5112 184.856 8.5761 185.686 6.64099 186.516C9.0374 187.019 11.3326 187.585 13.7269 188.029C15.8072 188.367 18.0899 188.581 20.2692 188.798C18.4395 189.684 16.9259 190.734 14.7759 191.337C5.05635 194.257 6.37113 196.323 16.1403 197.684C25.9115 199.103 35.883 200.339 45.6522 201.7C47.0032 201.888 48.0612 202.555 49.3173 202.98C47.8839 203.382 46.5601 203.956 45.1163 204.065C34.3011 205.264 23.5913 206.517 12.7699 207.54C6.99873 208.093 4.31971 208.363 10.8027 210.366C17.3911 212.424 23.676 214.669 29.5539 217.104C30.9175 217.643 31.2037 219.863 30.2846 220.188C27.0153 221.299 21.5393 221.432 19.5177 222.734C15.5735 225.218 12.9908 228.183 11.0279 231.126C10.7327 231.547 16.5709 232.869 19.9031 233.515C22.1941 233.963 24.8815 233.928 27.474 234.131C25.1342 235.21 23.1146 236.571 20.347 237.254C16.7615 238.201 12.5333 238.524 8.84029 239.357C7.91914 239.624 7.04198 241.121 7.25273 241.231C12.7832 242.622 18.4525 245.006 24.2425 244.98C31.6871 244.955 33.9614 244.934 30.6767 248.51C28.286 251.058 32.8276 253.715 36.3649 251.421C43.1339 246.961 50.82 250.8 57.2723 249.05C59.0134 248.578 62.6722 249.683 65.4796 250.113C63.576 251.822 62.5362 254.557 59.659 255.068C53.6011 256.276 46.2451 255.887 40.0817 257.041C37.3078 257.548 36.1606 260.17 34.2548 261.82C37.2626 262.067 41.1217 262.989 42.9619 262.397C50.329 260.204 53.2376 260.572 56.5796 264.386C61.54 270.079 64.3202 269.748 72.6049 264.296C73.7159 263.554 78.8736 263.198 80.6483 263.664C89.8333 266.042 84.2186 273.865 97.2718 274.524C108.46 275.073 120.109 274.08 131.578 273.798C134.369 273.759 137.073 274.193 139.863 274.154C144.412 274.113 150.219 274.556 153.387 273.506C164.928 269.467 175.54 271.267 186.458 272.94C188.017 273.179 189.379 273.66 190.839 274.019C189.206 274.604 187.692 275.654 186.04 275.712C173.652 276.32 174.697 279.51 177.828 283.214C179.879 285.607 181.212 288.2 183.876 290.395C189.732 295.119 177.821 297.471 176.09 301.11C175.9 301.585 173.535 301.961 172.205 302.36C170.355 299.784 168.608 297.205 166.758 294.63C166.214 293.886 164.824 292.585 164.204 292.607C158.23 293.284 148.831 305.169 153.449 307.062C163.207 311.004 158.641 313.451 148.977 315.02C144.145 315.834 135.763 315.657 140.627 318.655C143.483 320.433 139.594 327.374 154.366 324.043C157.855 323.276 164.544 325.272 169.341 326.395C172.469 327.108 158.528 327.652 168.399 328.951C171.931 329.414 176.857 331.237 178.571 327.13C179.619 324.629 199.314 323.062 204.236 324.768C205.388 325.197 206.866 326.026 206.469 326.509C206.075 327.051 204.026 327.591 202.587 327.818C199.189 328.229 195.682 328.469 192.176 328.767C196.234 329.447 200.192 330.248 204.346 330.748C207.668 331.102 211.481 330.734 214.701 331.15C217.089 331.419 218.988 332.467 221.081 333.157C218.83 333.822 216.692 334.777 214.325 335.094C208.666 335.878 202.89 336.314 197.225 336.922C195.783 337.09 194.449 337.371 193.009 337.597C194.265 338.022 195.431 338.803 196.775 338.815C201.33 338.949 206.174 338.487 210.632 338.801C213.949 339.037 219.465 340.019 219.602 340.952C220.275 345.329 231.361 348.814 222.866 354.156C220.842 355.4 222.707 358.385 224.631 360.137C225.701 361.156 230.359 361.287 233.378 361.827C233.652 360.82 234.234 359.744 234.302 358.744C234.53 353.573 234.447 348.355 235.089 343.17C235.256 342.049 237.775 340.201 239.731 339.957C251.674 338.485 250.495 334.419 250.873 330.534C251.031 329.179 252.326 327.785 253.104 326.408C255.816 327.076 258.322 327.752 261.134 328.299C264.363 328.949 267.693 329.537 271.118 329.887C271.533 329.931 273.85 328.208 273.536 328.101C270.807 326.964 267.774 326.014 264.741 325.064C263.801 324.803 262.153 324.978 261.52 324.648C258.683 323.398 256.155 322.078 253.522 320.762C257.55 320.621 262.28 319.87 265.507 320.461C271.756 321.71 277.206 323.749 277.212 318.117C277.21 318.059 281.849 317.662 281.855 317.838C285.134 322.769 293.78 321.646 301.937 321.303C310.505 320.887 319.168 320.233 327.755 320.344C343.998 320.541 347.132 318.554 341.093 311.607C339.369 309.673 338.877 307.46 337.768 305.387C343.052 305.672 348.436 305.837 353.724 306.239C356.525 306.493 360.157 306.836 361.43 307.73C366.747 311.827 370.315 310.412 374.744 307.031C377.262 305.125 380.523 303.779 382.098 307.362C382.661 308.633 385.487 309.59 387.182 310.704C387.863 309.507 388.337 308.317 389.124 307.175C389.817 306.33 390.926 305.528 391.932 304.731C393.506 305.38 395.694 305.831 396.653 306.619C397.614 307.466 397.449 308.645 397.796 309.689C398.949 312.993 398.841 312.879 404.884 311.26C406.626 310.789 410.755 310.586 411.391 311.034C418.164 315.373 430.352 314.948 438.493 317.07C448.517 319.771 453.648 318.654 461.422 316.27C464.491 315.342 468.513 315.026 472.111 314.431C474.257 322.394 480.019 315.798 484.951 314.922C487.725 314.415 491.369 315.109 494.575 315.115C498.609 315.15 504.317 315.714 506.454 314.759C510.93 312.667 511.769 310.115 504.569 308.313C503.214 308.008 505.232 303.714 505.542 303.703C514.844 303.555 526.54 300.976 530.885 306.809C533.599 310.41 538.346 310.127 544.402 308.86C551.176 307.45 557.342 306.356 563.144 309.556C564.832 310.494 569.682 310.208 573.105 310.499C573.364 309.082 575.055 307.205 573.681 306.372C571.883 305.262 567.826 304.582 564.515 304.521C561.307 304.457 557.827 305.459 554.423 305.695C553.185 305.796 551.708 304.968 550.351 304.605C551.259 303.986 552.151 302.899 553.081 302.867C561.756 302.564 570.527 302.024 578.92 302.494C581.613 302.635 582.658 305.825 585.499 307.192C588.34 308.56 591.906 309.961 595.849 310.352C603.218 311.092 611.175 310.932 618.642 311.552C630.777 312.536 635.675 310.723 636.395 304.831C636.552 303.418 638.354 301.771 640.591 300.696C642.216 299.876 655.285 306.754 656.32 306.777C667.09 307.222 664.754 311.293 666.41 314.227C667.335 314.078 668.678 314.031 669.184 313.72C672.618 311.43 679.646 308.427 678.554 306.823C674.747 301.558 687.023 300.719 689.595 297.462C693.597 299.493 697.698 301.403 701.393 303.504C707.199 306.821 712.078 310.23 723.951 306.824C727.227 305.888 733.247 306.5 737.711 306.989C745.081 307.788 752.46 308.822 759.232 310.228C761.941 310.779 763.348 312.549 765.355 313.711C762.465 313.87 759.676 313.968 756.786 314.127C754.413 314.268 752.038 314.351 749.561 314.496C750.631 315.515 752.252 317.453 752.56 317.384C760.784 316.041 762.561 325.248 773.213 319.48C773.443 320.117 773.674 320.813 773.904 321.45C774.262 322.787 773.598 324.453 775.081 325.457C780.067 328.979 780.897 331.942 772.114 335.006C770.172 335.66 770.347 337.649 769.674 339.08C778.447 338.598 787.211 337.882 795.996 337.752C804.988 337.614 801.78 334.676 803.469 332.739C804.064 332.015 806.61 330.928 807.234 331.024C815.251 332.563 817.375 337.007 811.085 340.394C804.896 343.719 810.652 345.63 813.516 347.642C816.805 349.992 820.216 349.931 820.817 346.508C823.509 346.59 826.906 346.178 828.582 346.765C847.527 353.145 856.523 353.124 874.43 347.807C878.728 346.542 883.554 339.803 891.429 346.041C893.261 345.214 896.931 343.737 896.72 343.627C894.077 342.018 890.412 340.737 888.077 339.059C884.897 336.882 882.328 334.449 880.276 331.997C879.736 331.371 881.334 329.79 882.871 329.384C889.937 327.437 903.274 330.257 906.095 333.972C908.483 337.115 911.075 340.193 914.59 343.062C915.656 343.964 920.959 344.776 922.803 344.301C936.328 340.779 953.348 339.599 961.564 332.214C964.968 329.103 972.049 327.566 977.71 329.715C989.763 334.223 990.352 330.448 993.814 326.044C999.753 318.621 1017 318.02 1029.99 322.612C1040.25 326.244 1045.93 334.67 1066.48 330.961C1077.18 332.407 1080.95 330.809 1076.11 325.58C1074.28 323.649 1073.69 321.499 1072.58 319.484C1076.24 320.413 1079.79 321.345 1083.44 322.215C1084.27 322.421 1085.93 322.422 1086.74 322.159C1095.85 319.319 1102.25 322.029 1109.65 323.531C1113.92 324.379 1119.19 324.43 1123.96 324.792C1124.11 323.203 1123.43 321.525 1124.51 319.962C1125.59 318.282 1128.64 316.826 1130.03 315.135C1132.8 311.694 1142.33 309.191 1148.8 310.902C1154.12 312.3 1158.24 314.621 1162.86 316.572C1157.72 317.338 1152.57 317.986 1147.53 318.807C1145.17 319.183 1142.81 319.793 1140.66 320.513C1140.15 320.707 1140.6 321.513 1140.62 322.04C1142.77 321.672 1145.03 321.065 1147.19 320.931C1151.01 320.739 1155.96 320.156 1158.47 320.949C1165.16 323.062 1178.58 316.61 1180.4 324.056C1182.24 323.405 1183.96 322.407 1185.92 322.221C1193.12 321.383 1200.43 320.307 1207.67 320.348C1210.25 320.375 1212.32 323.178 1214.95 324.553C1216.32 325.209 1219.66 326.148 1220.28 325.892C1223.95 324.474 1228.34 322.971 1230.24 321.086C1233.44 317.983 1234.13 317.255 1235.82 318.252C1249.01 325.536 1263.61 323.15 1279.28 319.024C1282.56 318.147 1287.52 318.15 1291.36 318.369C1293.95 318.513 1296.37 319.719 1298.27 320.651C1299.85 321.475 1300.41 322.688 1301.48 323.707C1302.99 322.656 1306.15 321.373 1305.81 320.563C1303.21 314.377 1314.52 318.324 1318.08 316.733C1320.83 318.338 1324.4 319.739 1325.91 321.564C1327.31 323.216 1326.46 325.3 1326.52 327.233C1330.31 326.045 1334.4 324.905 1337.87 323.552C1340.52 322.521 1342.54 321.101 1344.67 319.795C1355.19 313.327 1354.88 313.455 1365.32 318.899C1367.95 320.274 1372.85 321.277 1376.88 321.312C1378.85 321.361 1381.44 318.806 1383.57 317.383C1385.18 316.271 1386.76 314.104 1388 314.119C1391 314.191 1394.85 314.878 1396.44 315.937C1399.19 317.777 1401.24 320.052 1402.15 322.309C1403.28 325.144 1404.04 325.997 1411.97 325.193C1428.76 323.434 1446.35 323.525 1463.03 321.594C1480.02 319.652 1498.67 317.77 1512.58 313.237C1533.53 306.405 1556.26 305.965 1578.62 303.542C1586.14 302.694 1595.09 301.384 1599.96 298.985C1607.59 295.258 1612.91 293.664 1621.31 297.419C1626.99 299.92 1632.59 300.429 1640.98 297.848C1648.96 295.399 1660.85 292.521 1668.23 293.554C1680.9 295.283 1692.43 293.708 1704.51 293.286C1769.48 290.963 1830.63 283.316 1881.89 262.286C1884.64 261.134 1888.26 258.192 1888.05 258.141C1879.05 255.11 1888.92 253.417 1891.22 251.342C1892.82 249.878 1896.56 247.401 1896.25 247.295C1884.95 243.582 1897.04 240.696 1898.9 237.522C1899.77 236.084 1900.34 234.539 1900.6 233.063C1901.24 227.819 1900.74 222.557 1902.21 217.343C1905.61 205.491 1910.46 193.706 1913.66 181.861C1915.67 171.583 1915.2 161.391 1905.35 151.938Z" fill="#DFF5B0"/>
<path d="M122.39 88.7973C124.953 88.1795 127.832 87.7268 129.971 86.8304C133.229 85.4254 136.018 82.4521 138.909 82.3511C150.171 82.1338 139.532 85.3226 140.927 86.7412C141.249 87.0821 142.904 87.083 143.74 87.3473C146.037 87.9713 148.233 88.6577 150.428 89.344C149.309 89.8526 148.19 90.3612 147.071 90.8698C148.693 92.8674 150.318 94.9236 151.94 96.9212C155.831 95.8462 162.212 95.0364 163.093 93.6557C165.928 89.0961 158.408 84.0764 167.346 79.5971C166.408 79.3951 165.251 78.8486 164.427 78.936C152.811 80.8091 147.264 76.014 138.434 74.8551C133.551 74.2039 126.823 73.9694 122.726 75.0516C119.345 75.9326 118.112 79.0277 116.95 81.2399C116.371 82.3753 117.766 83.7939 118.636 84.996C119.719 86.3668 121.208 87.5473 122.39 88.7973Z" fill="#DFF5B0"/>
</svg>
