<svg width="112" height="57" fill="none" xmlns="http://www.w3.org/2000/svg"><path d="M23.686.071c6.346 0 12.697-.058 19.03-.07 8.759-.023 16.502 7.162 13.372 18.074-1.116 3.887-3.402 6.694-3.402 6.694s-.363-2.664-3.584-5.35c0 0-2.327-2.473-6.482-3.272-1.982-.38-3.62-.37-9.943 1.45-8.832 2.544-8.383 2.928-11.246 3.383-9.68 1.535-16.997-2.74-20.023-11.894C.728 7.034.328 4.923.056 2.776-.194.812.424-.009 2.615.026c7.022.121 14.044.045 21.07.045z" fill="#000"/><path d="M42.886 32.088c-3.14.076-5.983-2.606-6.056-5.708-.077-3.08 2.654-5.85 5.833-5.927 3.14-.075 5.983 2.607 6.056 5.709.077 3.079-2.658 5.85-5.833 5.926z" fill="#000"/><path d="M44.478 50.047c-5.657.794-6.709.357-8.6.071-8.66-1.303-16.916-7.47-13.374-18.074 1.815-5.427 6.91-7.074 6.91-7.074s-1.416 2.21.28 5.226c0 0 1.924 3.58 6.279 3.771 2.018.09 3.62.37 9.943-1.45 8.832-2.544 8.383-2.928 11.246-3.383 9.68-1.54 18.059 4.342 20.023 11.889 0 0 .957 2.722.363 6.27-1.021 6.092-7.58 9.703-7.58 9.703s-.141-9.533-10.008-9.533c-9.449.004-10.043 1.816-15.482 2.584z" fill="#FFB600"/><path d="M82.922 13.991C82.749 6.726 89.2.183 96.702.005c7.413-.179 14.131 6.154 14.299 13.477.172 7.266-6.278 13.809-13.781 13.987-7.408.179-14.126-6.154-14.298-13.478z" fill="#000"/><path d="M76.137.005c-7.503.178-13.954 6.72-13.781 13.986.172 7.324 6.89 13.657 14.298 13.478 7.503-.178 13.954-6.72 13.781-13.987C90.267 6.16 83.55-.174 76.137.005z" fill="#FFB600"/></svg>