<svg width="97" height="50" fill="none" xmlns="http://www.w3.org/2000/svg"><path d="M70.23 14.842v6.417c0 1.406-.4 2.482-1.201 3.23-.8.755-1.906 1.133-3.316 1.133a7.06 7.06 0 01-2.224-.333c-.673-.214-1.246-.52-1.72-.921l.86-1.601c.865.685 1.874 1.027 3.03 1.027.8 0 1.391-.195 1.773-.587.392-.4.587-1.014.587-1.84v-.575c-.637.765-1.537 1.148-2.702 1.148-1.21 0-2.142-.334-2.797-1-.646-.677-.969-1.646-.969-2.91v-3.188h2.21v3.055c0 .73.178 1.281.533 1.655.355.373.855.56 1.501.56.682 0 1.224-.196 1.624-.587.4-.391.6-.983.6-1.774v-2.909h2.21zm9.99 8.539c-.455.302-1.028.538-1.72.707a9.05 9.05 0 01-2.183.253c-.964 0-1.782-.115-2.456-.347-.673-.24-1.182-.569-1.528-.987a2.248 2.248 0 01-.518-1.454c0-.498.14-.938.423-1.32.282-.383.668-.668 1.16-.855a2.21 2.21 0 01-.874-.8c-.2-.338-.3-.716-.3-1.134 0-.507.16-.97.478-1.388.318-.418.8-.751 1.446-1 .646-.25 1.437-.374 2.374-.374.619 0 1.224.062 1.815.187a6.654 6.654 0 011.542.48l-.614 1.654a6.327 6.327 0 00-2.66-.573c-.71 0-1.247.107-1.611.32-.355.205-.532.485-.532.84 0 .33.118.583.355.761.245.169.614.254 1.105.254h2.606v1.707h-2.743c-.555 0-.982.094-1.282.28a.902.902 0 00-.45.814c0 .374.19.667.573.88.39.205.986.308 1.787.308.564 0 1.128-.072 1.692-.214.564-.151 1.042-.36 1.433-.627l.682 1.628zm12.199-8.699c1.128 0 2.005.325 2.633.974.628.64.942 1.57.942 2.788v5.737h-2.21v-5.67c0-.658-.178-1.152-.533-1.48-.345-.339-.805-.508-1.378-.508-.628 0-1.128.178-1.501.534-.373.347-.56.876-.56 1.588v5.536h-2.21v-5.67c0-.658-.164-1.152-.491-1.48-.328-.339-.774-.508-1.338-.508-.618 0-1.114.178-1.487.534-.373.347-.56.876-.56 1.588v5.536h-2.21v-9.339h2.142v1.148a2.825 2.825 0 011.16-.961c.482-.231 1.037-.347 1.665-.347.655 0 1.228.12 1.72.36.49.232.868.57 1.132 1.014a3.11 3.11 0 011.283-1.014c.536-.24 1.136-.36 1.8-.36zm-31 13.335h3.254c.778 0 1.463.147 2.057.44.6.287 1.064.694 1.391 1.22.335.528.502 1.142.502 1.842 0 .7-.167 1.314-.502 1.841a3.3 3.3 0 01-1.391 1.23c-.594.288-1.28.431-2.057.431h-3.255v-7.004zm3.172 5.673c.716 0 1.286-.193 1.709-.58.43-.394.645-.924.645-1.591 0-.667-.215-1.194-.645-1.581-.423-.393-.993-.59-1.71-.59h-1.514v4.342h1.515zm5.17-4.052h1.596v5.383h-1.596v-5.383zm.798-.75c-.293 0-.532-.084-.716-.25a.803.803 0 01-.277-.621c0-.247.092-.454.276-.62.185-.167.424-.25.717-.25s.532.08.716.24c.184.16.276.36.276.6 0 .26-.092.477-.276.65-.184.167-.423.25-.716.25zm7.96.75v4.483c0 .987-.263 1.72-.788 2.2-.526.481-1.293.721-2.303.721a5.88 5.88 0 01-1.515-.19c-.477-.127-.873-.31-1.187-.55l.635-1.12c.232.186.525.333.88.44.355.113.71.17 1.064.17.553 0 .959-.124 1.218-.37.266-.24.4-.608.4-1.101v-.23c-.417.447-.997.67-1.74.67-.506 0-.97-.107-1.393-.32a2.559 2.559 0 01-.992-.92 2.516 2.516 0 01-.369-1.362c0-.513.123-.967.369-1.36.245-.394.576-.697.992-.911a2.97 2.97 0 011.392-.33c.799 0 1.406.257 1.822.77v-.69h1.514zm-3.02 3.842c.424 0 .768-.12 1.034-.36.273-.247.41-.567.41-.96 0-.394-.137-.711-.41-.951-.266-.247-.61-.37-1.033-.37-.423 0-.771.123-1.044.37-.273.24-.41.557-.41.95 0 .394.137.714.41.961.273.24.62.36 1.044.36zm4.505-3.842h1.597v5.383h-1.597v-5.383zm.799-.75c-.294 0-.532-.084-.717-.25a.803.803 0 01-.276-.621c0-.247.092-.454.276-.62.184-.167.423-.25.717-.25.293 0 .532.08.716.24.184.16.276.36.276.6 0 .26-.092.477-.276.65-.184.167-.423.25-.716.25zm5.596 5.873c-.157.113-.352.2-.584.26a3.05 3.05 0 01-.706.08c-.662 0-1.17-.163-1.525-.49-.355-.327-.532-.807-.532-1.441v-4.723h1.596v1.31h1.362v1.202h-1.362v2.191c0 .227.058.404.174.53.116.12.283.18.502.18.246 0 .464-.066.655-.2l.42 1.101zm6.319-5.123v5.383h-1.525v-.62c-.395.467-.969.7-1.72.7a2.94 2.94 0 01-1.411-.34 2.474 2.474 0 01-.983-.97c-.239-.42-.358-.908-.358-1.461 0-.554.12-1.041.358-1.461a2.48 2.48 0 01.983-.971 2.94 2.94 0 011.412-.34c.703 0 1.252.217 1.647.65v-.57h1.597zM89.75 33.82c.403 0 .737-.133 1.003-.4.266-.273.4-.637.4-1.09 0-.454-.134-.814-.4-1.081a1.34 1.34 0 00-1.003-.41c-.41 0-.747.136-1.013.41-.266.267-.4.627-.4 1.08 0 .454.134.818.4 1.091.266.267.604.4 1.013.4zm6.421 1.281c-.62 0-1.105-.16-1.453-.48-.348-.327-.522-.787-.522-1.38v-5.644h1.596v5.553c0 .227.058.404.174.53.123.12.294.18.512.18.082 0 .164-.01.246-.03a.788.788 0 00.204-.07L97 34.971c-.266.087-.542.13-.829.13zM15.072 13.827l.1.117c.21.247.434.516.679.804.12.144.248.292.376.443.647.762 1.38 1.626 2.151 2.528l.934 1.096.946 1.106.058.069c.144.166.283.333.427.496.023.027.046.057.073.084.113.128.221.257.33.386l.21.246.057.069c.043.053.09.102.132.155l.163.193c.023.03.05.057.074.087.066.076.131.156.197.232.047.053.09.106.136.159l.163.193c.046.057.097.11.143.167.024.026.047.057.074.083.074.088.147.175.22.258l.07.08c.043.053.09.102.132.151.047.053.09.106.136.16l.066.075c.271.315.523.614.764.891l.035.038.209.242.112.133.05.06c.117.133.222.259.326.38l.353.41c.031.037.058.067.085.102l.004.003.295.345.004.004c.038.045.077.087.108.125.008.008.016.011.024.019.042.03.112.034.155 0 .007-.008.015-.011.023-.019.027-.03.058-.068.093-.106.023-.03.05-.06.077-.091l.206-.239c.027-.03.05-.057.074-.087.007-.008.011-.015.019-.023l.124-.144c0-.004.004-.004.004-.004l.112-.132c.027-.034.058-.069.09-.106.108-.13.224-.262.348-.41a.645.645 0 01.05-.057c.051-.06.11-.125.163-.19.05-.056.101-.117.152-.177l.554-.648c.039-.042.074-.087.112-.13l.04-.045c.053-.064.112-.129.166-.197l.178-.208.105-.122.046-.053c.082-.098.167-.197.252-.295l.066-.076c.027-.03.055-.06.078-.091.21-.243.422-.493.64-.75.05-.061.104-.122.154-.182.008-.008.016-.02.024-.027.066-.08.135-.16.205-.239.058-.064.113-.132.17-.197a35.287 35.287 0 00.423-.496l.419-.49c.02-.018.035-.04.054-.06.314-.367.628-.739.946-1.107l.934-1.095 2.152-2.528.376-.444c.244-.287.469-.557.678-.803.035-.042.062-.076.097-.114a15.72 15.72 0 00-10.482-3.968c-4.047 0-7.726 1.5-10.493 3.96zm14.958 18.53a.475.475 0 00-.72.114l-2.365 4.017-.586.99a.609.609 0 01-.523.295h-.558a.61.61 0 01-.527-.3l-.004-.003-2.947-5.007a.477.477 0 00-.72-.114l-2.198 1.918-3.055 2.668a15.71 15.71 0 009.726 3.34 15.71 15.71 0 009.73-3.343l-1.175-1.028-4.078-3.547zm-16.629-8.699a2681.068 2681.068 0 01-2.407-3.957 14.848 14.848 0 00-1.004 5.375c0 2.07.422 4.037 1.19 5.833l.593-.709 3.186-3.809c.004-.004.031-.034.066-.08a289.836 289.836 0 01-1.624-2.653z" fill="#000"/><path d="M25.584 0C11.454 0 0 11.192 0 25s11.455 25 25.584 25c14.13 0 25.585-11.192 25.585-25S39.714 0 25.585 0zm20.003 38.182h-8.838a.14.14 0 01-.04-.007l-.007.007-.004-.004a17.622 17.622 0 01-11.145 3.935 17.603 17.603 0 01-11.14-3.934h-.004l-.008-.008c-.012.004-.023.008-.039.008H5.524c-.175 0-.268-.198-.159-.327L9.85 32.49a16.652 16.652 0 01-1.737-7.42c0-9.412 7.808-17.041 17.44-17.041 9.633 0 17.44 7.63 17.44 17.04 0 2.657-.624 5.174-1.732 7.418l1.701 2.031 2.784 3.328.008.008c.1.132.007.33-.167.33z" fill="#000"/><path d="M39.97 19.944c-.71 1.164-1.543 2.54-2.257 3.71l-1.608 2.642-.012.012.058.072c.004.003.004.007.008.011l3.772 4.51a14.857 14.857 0 001.186-5.829c0-1.891-.357-3.7-1-5.367-.05.08-.097.16-.148.239z" fill="#000"/></svg>