<svg width="141" height="50" fill="none" xmlns="http://www.w3.org/2000/svg"><path d="M70.228 15.44l6.705-.415c.147 1.075.442 1.894.888 2.456.728.911 1.765 1.367 3.112 1.367 1.004 0 1.78-.232 2.325-.697a2.102 2.102 0 00.817-1.621 2.037 2.037 0 00-.766-1.566c-.51-.46-1.712-.895-3.608-1.306-3.091-.684-5.296-1.595-6.614-2.733a5.506 5.506 0 01-1.498-1.948 5.435 5.435 0 01-.493-2.396 5.844 5.844 0 011.02-3.271 6.735 6.735 0 013.06-2.427C76.536.294 78.406 0 80.787 0c2.914 0 5.137.535 6.667 1.606 1.53 1.07 2.44 2.771 2.731 5.104l-6.643.382c-.17-1.007-.541-1.743-1.112-2.21-.572-.466-1.354-.698-2.347-.697-.819 0-1.436.174-1.849.516a1.555 1.555 0 00-.622 1.258 1.244 1.244 0 00.51.967c.332.297 1.12.574 2.364.83 3.081.655 5.291 1.318 6.631 1.989 1.34.67 2.31 1.502 2.908 2.494.61 1.006.926 2.16.91 3.332a7.072 7.072 0 01-1.211 3.992 7.585 7.585 0 01-3.392 2.768c-1.454.63-3.285.944-5.494.944-3.878 0-6.565-.737-8.06-2.21-1.494-1.473-2.344-3.348-2.55-5.625zM1.6 22.897V.38h11.747c2.178 0 3.843.184 4.994.551a5.332 5.332 0 012.785 2.049 6.17 6.17 0 011.064 3.647 6.177 6.177 0 01-.817 3.231 6.31 6.31 0 01-2.226 2.217 8.648 8.648 0 01-2.474.891 7.138 7.138 0 011.834.828c.422.347.802.74 1.132 1.173.372.43.7.895.982 1.387l3.413 6.543h-7.965l-3.765-6.888c-.478-.891-.903-1.47-1.275-1.737a2.994 2.994 0 00-1.73-.52h-.627v9.145H1.6zM8.671 9.498h2.98c.63-.046 1.255-.15 1.866-.307a1.865 1.865 0 001.143-.707 2.06 2.06 0 00.444-1.304 2.047 2.047 0 00-.702-1.673c-.466-.39-1.342-.584-2.63-.584h-3.1v4.575zM0 42.165l6.705-.412c.146 1.075.442 1.894.888 2.456.719.911 1.759 1.367 3.119 1.367 1.005 0 1.78-.234 2.326-.7a2.1 2.1 0 00.816-1.62 2.042 2.042 0 00-.765-1.566c-.51-.46-1.713-.895-3.61-1.304-3.09-.688-5.295-1.599-6.612-2.733a5.513 5.513 0 01-1.498-1.95 5.442 5.442 0 01-.494-2.397 5.857 5.857 0 011.02-3.271 6.735 6.735 0 013.06-2.426c1.36-.59 3.231-.884 5.611-.884 2.915 0 5.137.535 6.667 1.606 1.53 1.07 2.44 2.772 2.732 5.104l-6.631.385c-.17-1.007-.541-1.744-1.112-2.212-.572-.468-1.353-.698-2.344-.69-.818 0-1.434.168-1.85.503a1.556 1.556 0 00-.622 1.258 1.245 1.245 0 00.51.97c.332.297 1.12.573 2.365.828 3.08.654 5.291 1.317 6.63 1.988 1.34.671 2.31 1.502 2.908 2.494.61 1.006.926 2.16.91 3.332a7.067 7.067 0 01-1.21 3.992 7.587 7.587 0 01-3.393 2.768c-1.453.63-3.285.944-5.493.944-3.879 0-6.565-.737-8.06-2.21C1.08 46.312.221 44.44 0 42.165zm41.572-1.764l6.177 1.842a11.187 11.187 0 01-1.961 4.279 8.517 8.517 0 01-3.316 2.595c-1.323.582-3.006.873-5.05.873-2.479 0-4.504-.355-6.075-1.065-1.57-.71-2.931-1.96-4.08-3.752-1.143-1.79-1.713-4.081-1.712-6.873 0-3.722 1.003-6.583 3.01-8.585 2.006-2.002 4.845-3.002 8.518-3 2.875 0 5.134.574 6.777 1.722 1.642 1.147 2.863 2.909 3.662 5.285l-6.223 1.366a5.253 5.253 0 00-.684-1.51 4.067 4.067 0 00-1.446-1.228 4.206 4.206 0 00-1.915-.43c-1.597 0-2.82.634-3.67 1.902-.646.942-.968 2.419-.967 4.432 0 2.494.385 4.203 1.153 5.13.769.926 1.847 1.388 3.237 1.386 1.346 0 2.366-.373 3.06-1.12.694-.746 1.195-1.83 1.505-3.249zm11.607-13.296h7.047v7.873h7.702v-7.873h7.077v22.507h-7.077v-9.098h-7.702v9.106h-7.047V27.105zm26.213 11.268c0-3.671 1.037-6.532 3.112-8.582 2.074-2.05 4.964-3.074 8.671-3.07 3.795 0 6.72 1.006 8.773 3.02 2.054 2.013 3.084 4.829 3.089 8.448 0 2.632-.449 4.79-1.347 6.473a9.503 9.503 0 01-3.889 3.929c-1.7.936-3.814 1.404-6.34 1.404-2.571 0-4.697-.404-6.376-1.213a9.534 9.534 0 01-4.099-3.838c-1.064-1.748-1.596-3.939-1.594-6.571zm7.047.032c0 2.274.425 3.906 1.275 4.898.85.992 2.015 1.487 3.494 1.487 1.515 0 2.687-.485 3.517-1.457.83-.971 1.245-2.716 1.245-5.235 0-2.119-.434-3.667-1.3-4.646-.868-.978-2.043-1.466-3.526-1.464a4.33 4.33 0 00-1.876.354 4.289 4.289 0 00-1.534 1.126c-.862 1.006-1.293 2.652-1.295 4.937z" fill="#000"/><path d="M100.048 38.372c0-3.67 1.037-6.532 3.111-8.582 2.075-2.05 4.965-3.074 8.672-3.07 3.798 0 6.724 1.006 8.776 3.02 2.052 2.013 3.078 4.83 3.078 8.451 0 2.633-.448 4.79-1.344 6.473a9.523 9.523 0 01-3.889 3.929c-1.701.936-3.814 1.404-6.341 1.404-2.572 0-4.698-.404-6.376-1.213a9.555 9.555 0 01-4.101-3.838c-1.057-1.75-1.586-3.941-1.586-6.574zm7.049.033c0 2.273.425 3.906 1.275 4.898.851.991 2.017 1.488 3.5 1.49 1.515 0 2.687-.486 3.517-1.458.829-.971 1.244-2.716 1.244-5.235 0-2.119-.432-3.667-1.298-4.645-.865-.979-2.04-1.467-3.525-1.465a4.326 4.326 0 00-1.88.351 4.269 4.269 0 00-1.537 1.126c-.866 1.007-1.297 2.653-1.296 4.938z" fill="#000"/><path d="M122.951 27.105H130V44.07h11v5.537h-18.049V27.105z" fill="#000"/></svg>