<svg width="60" height="60" fill="none" xmlns="http://www.w3.org/2000/svg"><circle cx="30" cy="30" r="30" fill="#70CB0E"/><circle cx="30" cy="30" r="30" stroke="#fff"/><path d="M48.322 12.402a4.453 4.453 0 01-2.12 3.772 4.287 4.287 0 01-2.283.631c-2.412-.02-4.351-2.025-4.331-4.477a4.475 4.475 0 01.572-2.162c.759-1.35 2.193-2.256 3.832-2.241 2.412.02 4.351 2.024 4.33 4.477z" fill="#585E60"/><path d="M46.202 16.173a4.286 4.286 0 01-2.283.632c-2.412-.02-4.351-2.025-4.331-4.478a4.475 4.475 0 01.572-2.162 19.637 19.637 0 016.042 6.008z" fill="#414749"/><path d="M20.412 12.166c-.02 2.452-1.992 4.424-4.404 4.403a4.295 4.295 0 01-2.1-.565 4.453 4.453 0 01-2.23-3.912c.02-2.452 1.99-4.424 4.403-4.403 1.682.014 3.135.994 3.852 2.418.312.617.485 1.317.479 2.059z" fill="#585E60"/><path d="M19.933 10.107a4.47 4.47 0 01.479 2.059c-.02 2.452-1.992 4.424-4.404 4.403a4.295 4.295 0 01-2.1-.565 19.622 19.622 0 016.025-5.897z" fill="#414749"/><path d="M47.97 26.872c0 9.195-6.681 16.804-15.377 18.082-.847.124-1.713.188-2.593.188-3.836 0-7.39-1.221-10.309-3.303-4.633-3.305-7.661-8.777-7.661-14.967 0-10.09 8.046-18.27 17.97-18.27s17.97 8.18 17.97 18.27z" fill="#F9E8D4"/><path d="M35.348 40.837l-2.755 4.117c-.847.124-1.713.188-2.593.188-3.836 0-7.39-1.221-10.309-3.303a18.79 18.79 0 01-1.02-3.204 1.9 1.9 0 01.357-1.593 1.87 1.87 0 011.455-.714c.394 0 .772.126 1.093.365 1.186.878 2.883 2.363 4.233 4.452l.164.256 6.131-3.584 3.244 3.02z" fill="#EFCDB1"/><path d="M47.97 26.872c0 10.09-8.046 18.27-17.97 18.27-.306 0-.61-.007-.912-.022 9.5-.485 17.057-8.47 17.057-18.248S38.588 9.11 29.088 8.625c.301-.015.606-.023.912-.023 9.924 0 17.97 8.18 17.97 18.27z" fill="#EFCDB1"/><path d="M34.193 23.363s-3.41 1.209-2.045 5.665c1.365 4.455 4.48 7.52 7.385 5.988 2.904-1.533 2.215-7.65.26-10.344-1.956-2.693-5.6-1.309-5.6-1.309zm-8.387 0s3.411 1.209 2.046 5.665c-1.365 4.455-4.481 7.52-7.385 5.988-2.904-1.533-2.215-7.65-.26-10.344 1.956-2.693 5.6-1.309 5.6-1.309z" fill="#585E60"/><path d="M30 35.662c1.065 0 1.928-.878 1.928-1.96 0-1.082-.863-1.96-1.928-1.96s-1.928.878-1.928 1.96c0 1.082.863 1.96 1.928 1.96z" fill="#8B5016"/><path d="M20.032 38.322c-.094-.424.377-.738.722-.482 1 .74 2.62 2.124 3.889 4.085a29.246 29.246 0 011.136 1.918c.326.604.602 1.18.822 1.703l-1.93 1.29a21.89 21.89 0 01-1.847-2.308 28.592 28.592 0 01-.645-.956c-.204-.315-.39-.632-.561-.949a16.938 16.938 0 01-1.586-4.3z" fill="#009655"/><path d="M22.824 44.529l2.292-1.846c.24.396.46.783.663 1.16.326.604.602 1.18.822 1.703l-1.93 1.29a21.94 21.94 0 01-1.847-2.307z" fill="#006B42"/><path d="M21.618 42.624c.856.207 1.964.524 4.161 1.219.326.604.602 1.18.822 1.703l-1.93 1.29c-.778-.833-1.652-1.963-2.492-3.264-.204-.315-.39-.632-.561-.948z" fill="#006B42"/><path d="M15.264 44.06c-.42-.217-.29-.858.18-.887 1.234-.076 3.118-.075 5.146.352.954.2 1.853.428 2.652.667.457.136.88.275 1.265.415l-.364 1.791a27.65 27.65 0 01-3.133-.41c-.29-.053-.586-.112-.886-.175-2.028-.427-3.757-1.186-4.86-1.753z" fill="#00C37A"/><path d="M21.01 45.988l2.232-1.796c.457.136.881.275 1.265.415l-.364 1.791a27.653 27.653 0 01-3.133-.41z" fill="#009655"/><path d="M18.875 49.117L32.804 37.57l2.544 3.267L21.42 52.384l-2.545-3.267z" fill="#A4E869"/><path d="M18.875 49.117l1.686-1.357c.044.047.087.097.127.15l2.298 2.95c.042.055.082.11.119.168l-1.685 1.357-2.545-3.268z" fill="#60DC4D"/><path d="M32.804 37.57l.733.941L19.61 50.058l-.733-.941L32.804 37.57z" fill="#60DC4D"/><path d="M19.836 48.596l2.297 2.95a1.101 1.101 0 01-.174 1.53 1.06 1.06 0 01-1.505-.178l-2.298-2.95a1.101 1.101 0 01.175-1.53 1.06 1.06 0 011.505.178z" fill="#A4E869"/><path d="M34.833 36.445c-1.426 0-2.582 1.175-2.582 2.625s1.156 2.626 2.582 2.626l1.622-.2v-5.05h-1.622z" fill="#F9E8D4"/><path d="M29.243 9.309c.273-.012.52-.018.757-.018 8.823 0 16.21 6.713 17.185 15.615a.682.682 0 00.748.608.686.686 0 00.598-.76 19.086 19.086 0 00-2.568-7.684c1.802-.798 3.02-2.623 3.037-4.662a5.137 5.137 0 00-1.448-3.64 4.971 4.971 0 00-3.554-1.532c-2.082-.017-3.945 1.269-4.715 3.193a18.38 18.38 0 00-10.098-2.496.684.684 0 00-.648.717.68.68 0 00.706.659zm14.744-.696a3.637 3.637 0 012.6 1.12 3.758 3.758 0 011.058 2.663c-.012 1.574-1.003 2.974-2.44 3.5a18.951 18.951 0 00-2.73-3.115 18.747 18.747 0 00-2.02-1.608c.503-1.53 1.923-2.574 3.532-2.56zm3.994 18.397a.678.678 0 00-.706.658c-.375 8.555-6.84 15.552-15.04 16.639l2.333-1.935c.088.007.176.012.265.012a.683.683 0 00.677-.689.683.683 0 00-.677-.688c-1.05 0-1.905-.869-1.905-1.937s.855-1.937 1.905-1.937a.683.683 0 00.677-.688.683.683 0 00-.677-.688c-1.14 0-2.146.599-2.728 1.504l-1.428 1.183V36.26a2.646 2.646 0 001.928-2.557c0-1.46-1.169-2.648-2.605-2.648s-2.605 1.188-2.605 2.648c0 1.222.819 2.253 1.928 2.557v3.308l-3.529 2.925a29.944 29.944 0 00-.585-.945c-1.294-2-2.92-3.423-4.056-4.265a1.115 1.115 0 00-1.297-.031c-.4.267-.59.747-.485 1.222.18.807.47 1.844.932 2.961-4.732-3.25-7.596-8.656-7.596-14.562 0-8.322 5.812-15.567 13.82-17.227a.688.688 0 00.529-.812.677.677 0 00-.8-.537 18.36 18.36 0 00-5.466 2.093c-.706-1.986-2.578-3.372-4.703-3.39h-.045a4.967 4.967 0 00-3.535 1.472A5.137 5.137 0 0011 12.086c-.018 2.138 1.249 4.02 3.151 4.798a19.24 19.24 0 00-2.798 9.988c0 3.553.972 7.017 2.813 10.018a18.895 18.895 0 005.516 5.774 20.878 20.878 0 00-4.28-.178 1.13 1.13 0 00-1.045.921 1.15 1.15 0 00.6 1.267c1.131.582 2.922 1.37 5.03 1.813.269.056.534.108.799.157l-1.168.968a1.718 1.718 0 00-1.707.266 1.773 1.773 0 00-.651 1.188 1.79 1.79 0 00.365 1.309l2.298 2.95a1.73 1.73 0 002.456.29c.366-.294.598-.716.651-1.187a1.814 1.814 0 00-.01-.482l7.395-6.13a.66.66 0 00.118.007c4.723-.135 9.18-2.067 12.55-5.441a19.031 19.031 0 005.545-12.653.684.684 0 00-.647-.718zM28.75 33.703c0-.7.561-1.271 1.25-1.271.69 0 1.251.57 1.251 1.271s-.56 1.272-1.25 1.272-1.25-.57-1.25-1.272zM12.355 12.098a3.76 3.76 0 011.103-2.644 3.626 3.626 0 012.618-1.077c1.654.014 3.098 1.16 3.529 2.76a18.827 18.827 0 00-4.673 4.569c-1.541-.492-2.59-1.944-2.577-3.608zm20.704 29.75L22.354 50.72l-1.703-2.188 10.946-9.075c.115 1 .67 1.864 1.461 2.39zm-8.98.455c.227.353.446.71.656 1.068l-1.193.988c-.27-.374-.537-.764-.797-1.165-1.037-1.605-1.61-3.299-1.907-4.426.9.723 2.202 1.93 3.24 3.535zM20.26 45.14a18.669 18.669 0 01-3.909-1.313 18.72 18.72 0 014.1.373c.531.111 1.058.235 1.572.368.154.226.31.448.466.664l-.307.255a34.949 34.949 0 01-1.922-.347zm1.424 7.13a.4.4 0 01-.147.267.39.39 0 01-.553-.065l-2.298-2.95a.403.403 0 01.308-.65.398.398 0 01.31.152l2.297 2.95a.402.402 0 01.083.296z" fill="#000"/><path d="M31.501 29.232c.987 3.22 2.798 5.66 4.844 6.528a4.167 4.167 0 001.63.343c.639 0 1.269-.159 1.87-.476 1.046-.552 1.776-1.62 2.112-3.089.589-2.578-.123-6.213-1.62-8.275-2.233-3.076-6.213-1.609-6.38-1.545-.262.102-3.951 1.633-2.456 6.514zm1.65-4.23a3.194 3.194 0 011.27-.99l.008-.003c.13-.049 3.196-1.164 4.819 1.072 1.267 1.746 1.89 4.951 1.39 7.146-.17.742-.553 1.722-1.417 2.178-.754.398-1.547.426-2.355.084-1.655-.702-3.216-2.873-4.072-5.666-.486-1.59-.366-2.875.357-3.821zm-7.107-2.284c-.169-.064-4.149-1.53-6.381 1.545-.503.692-.938 1.599-1.258 2.622a.69.69 0 00.44.865.675.675 0 00.85-.447c.276-.882.642-1.65 1.057-2.222 1.623-2.236 4.69-1.12 4.818-1.073l.014.005c.114.04 2.778 1.033 1.621 4.81-.855 2.793-2.416 4.964-4.072 5.666-.808.342-1.6.314-2.354-.084-1.107-.584-1.695-2.23-1.575-4.403a.685.685 0 00-.638-.727.681.681 0 00-.714.649c-.154 2.77.685 4.85 2.303 5.703a3.977 3.977 0 001.87.476 4.16 4.16 0 001.63-.343c2.046-.868 3.857-3.308 4.843-6.528 1.496-4.881-2.193-6.412-2.454-6.514z" fill="#000"/><path d="M33.94 29.616a.683.683 0 00.678-.689v-.058a.683.683 0 00-.678-.689.683.683 0 00-.677.689v.058c0 .38.303.689.677.689zm-7.203-.689v-.058a.683.683 0 00-.677-.689.683.683 0 00-.678.689v.058c0 .38.303.689.677.689a.683.683 0 00.678-.689z" fill="#000"/></svg>